<svg width="177" height="32" viewBox="0 0 177 32" fill="none" xmlns="http://www.w3.org/2000/svg">
<g clip-path="url(#clip0_6361_146565)">
<path d="M9.48966 18.9793C10.3724 19.8621 10.3724 21.1862 9.48966 22.069L8.71724 22.8414C7.83448 23.7241 6.51034 23.7241 5.62759 22.8414L0.662069 17.8759C-0.22069 16.9931 -0.22069 15.669 0.662069 14.7862L1.43448 14.0138C2.31724 13.131 3.64138 13.131 4.52414 14.0138L9.48966 18.9793ZM8.93793 9.48966C8.05517 8.6069 6.73103 8.6069 5.84828 9.48966L5.07586 10.2621C4.1931 11.1448 4.1931 12.469 5.07586 13.3517L10.0414 18.3172C10.9241 19.2 12.2483 19.2 13.131 18.3172L13.9034 17.5448C14.7862 16.6621 14.7862 15.3379 13.9034 14.4552L8.93793 9.48966ZM22.1793 13.9034C21.2966 13.0207 19.9724 13.0207 19.0897 13.9034L18.3172 14.6759C17.4345 15.5586 17.4345 16.8828 18.3172 17.7655L23.2828 22.731C24.1655 23.6138 25.4897 23.6138 26.3724 22.731L27.1448 21.9586C28.0276 21.0759 28.0276 19.7517 27.1448 18.869L22.1793 13.9034ZM26.7034 9.37931C25.8207 8.49655 24.4966 8.49655 23.6138 9.37931L22.8414 10.1517C21.9586 11.0345 21.9586 12.3586 22.8414 13.2414L27.8069 18.2069C28.6897 19.0897 30.0138 19.0897 30.8966 18.2069L31.669 17.4345C32.5517 16.5517 32.5517 15.2276 31.669 14.3448L26.7034 9.37931ZM18.4276 4.52414C19.3103 3.64138 19.3103 2.31724 18.4276 1.43448L17.6552 0.662069C16.7724 -0.22069 15.4483 -0.22069 14.5655 0.662069L9.6 5.62759C8.71724 6.51034 8.71724 7.83448 9.6 8.71724L10.3724 9.48966C11.2552 10.3724 12.5793 10.3724 13.4621 9.48966L18.4276 4.52414ZM22.8414 8.93793C23.7241 8.05517 23.7241 6.73103 22.8414 5.84828L22.069 5.07586C21.1862 4.1931 19.8621 4.1931 18.9793 5.07586L14.0138 10.0414C13.131 10.9241 13.131 12.2483 14.0138 13.131L14.7862 13.9034C15.669 14.7862 16.9931 14.7862 17.8759 13.9034L22.8414 8.93793ZM18.4276 21.9586C19.3103 21.0759 19.3103 19.7517 18.4276 18.869L17.6552 18.0966C16.7724 17.2138 15.4483 17.2138 14.5655 18.0966L9.6 23.0621C8.71724 23.9448 8.71724 25.269 9.6 26.1517L10.3724 26.9241C11.2552 27.8069 12.5793 27.8069 13.4621 26.9241L18.4276 21.9586ZM22.8414 26.3724C23.7241 25.4897 23.7241 24.1655 22.8414 23.2828L22.069 22.5103C21.1862 21.6276 19.8621 21.6276 18.9793 22.5103L14.1241 27.5862C13.2414 28.469 13.2414 29.7931 14.1241 30.6759L14.8966 31.4483C15.7793 32.331 17.1034 32.331 17.9862 31.4483L22.8414 26.3724ZM59.0345 22.069C59.1448 22.2897 59.8069 23.2828 59.8069 23.2828C59.4759 24.8276 58.4828 26.9241 58.4828 26.9241L58.3724 27.0345C54.731 28.469 48.9931 29.6828 42.9241 27.2552C39.2828 25.8207 36.6345 22.9517 35.6414 19.2C34.5379 15.3379 35.3103 11.1448 37.7379 7.83448C40.3862 4.30345 44.5793 2.31724 50.3172 1.98621C52.5241 1.87586 56.9379 2.42759 59.3655 3.86207H59.5862C59.5862 3.86207 59.6966 9.93103 59.5862 10.1517L59.4759 10.4828L57.7103 10.5931L57.6 9.93103C57.269 8.16552 56.4966 3.53103 49.9862 3.86207C47.2276 3.97241 44.9103 5.4069 43.2552 7.61379C41.1586 10.3724 40.6069 14.0138 41.4897 18.2069C42.3724 22.1793 45.4621 24.7172 47.7793 25.7103C48.7724 26.0414 51.8621 26.8138 54.1793 25.7103C56.1655 24.7172 58.1517 23.1724 59.0345 22.069ZM81.3241 28.469V7.61379C81.3241 6.95172 81.3241 5.84828 80.6621 5.07586C80.5517 4.96552 79.5586 4.1931 79.5586 4.1931V3.31034L85.1862 2.2069L85.7379 2.53793C85.7379 2.53793 85.7379 24.6069 85.7379 24.9379C85.8483 27.0345 87.2828 27.2552 87.2828 27.2552V28.5793L81.3241 28.469ZM106.152 27.0345C105.159 26.8138 104.607 25.931 104.607 24.4966V11.2552L104.166 11.0345L98.5379 12.1379V13.0207C98.5379 13.0207 99.531 13.7931 99.6414 13.9034C100.303 14.6759 100.303 15.7793 100.303 16.4414V24.2759C98.4276 25.7103 96.7724 26.1517 95.5586 25.6C94.6759 25.1586 94.1241 24.0552 94.1241 22.5103V11.2552L93.6828 11.0345L88.0552 12.1379V13.0207C88.0552 13.0207 89.0483 13.7931 89.1586 13.9034C89.931 14.6759 89.931 15.7793 89.8207 16.4414V23.1724C89.8207 24.4966 89.931 24.9379 90.0414 25.4897C90.3724 26.9241 91.2552 27.9172 92.469 28.3586C94.4552 29.131 97.3241 28.3586 100.303 26.3724V28.2483H106.483V27.0345H106.152ZM134.179 27.0345C133.186 26.8138 132.745 25.931 132.634 24.4966V16.4414C132.634 14.5655 131.641 11.0345 128 11.0345C125.241 11.0345 123.476 12.6897 122.483 13.5724C121.931 12.3586 120.717 11.0345 118.51 11.0345C116.745 11.0345 115.2 11.6966 113.655 13.0207V11.3655L113.103 11.0345L107.476 12.1379V13.0207C107.476 13.0207 108.469 13.7931 108.579 13.9034C109.241 14.6759 109.241 15.7793 109.241 16.4414V28.2483H115.421V27.0345L115.09 26.9241C114.097 26.7034 113.655 25.931 113.655 24.3862C113.655 24.3862 113.655 16.2207 113.655 14.8966C114.759 14.0138 115.862 13.7931 116.966 13.9034C117.848 14.0138 118.841 14.6759 118.841 17.9862V28.1379H124.91V26.9241L124.579 26.8138C123.586 26.5931 123.145 25.8207 123.034 24.2759V16.2207C123.034 16 123.034 15.3379 122.924 14.8966C124.028 13.9034 125.131 13.7931 126.234 13.9034C127.117 14.0138 128.11 14.6759 128.11 17.9862V28.1379H134.179V26.9241V27.0345ZM79.3379 19.7517C79.3379 17.2138 78.4552 14.8966 76.9103 13.3517C75.2552 11.6966 72.9379 10.8138 70.069 10.8138C64.7724 10.8138 60.8 14.6759 60.8 19.7517C60.8 25.1586 64.4414 28.6897 70.069 28.6897C72.7172 28.6897 75.1448 27.8069 76.8 26.1517C78.4552 24.3862 79.3379 22.1793 79.3379 19.7517ZM70.069 26.7034C66.6483 26.7034 65.6552 24.0552 65.6552 19.6414C65.6552 16.4414 66.6483 12.5793 70.069 12.5793C73.4897 12.5793 74.4828 16.4414 74.4828 19.6414C74.4828 24.0552 73.4897 26.7034 70.069 26.7034ZM154.924 5.62759C154.924 4.41379 155.917 3.31034 157.241 3.31034C158.455 3.31034 159.559 4.30345 159.559 5.62759C159.559 6.95172 158.566 7.94483 157.241 7.94483C155.917 7.94483 154.924 6.84138 154.924 5.62759ZM155.145 28.2483V16.331C155.145 15.669 155.145 14.5655 154.483 13.7931C154.372 13.6828 153.379 12.9103 153.379 12.9103V12.0276L159.007 10.9241L159.559 11.2552V24.4966C159.559 25.931 160.11 26.8138 160.993 27.0345L161.324 27.1448V28.3586L155.145 28.2483ZM151.945 15.1172C150.731 13.0207 149.186 11.6966 147.31 11.2552C144.662 10.5931 142.014 11.8069 140.359 12.6897V2.42759L139.807 2.09655L134.179 3.2V4.08276C134.179 4.08276 135.172 4.85517 135.283 4.96552C135.945 5.73793 135.945 6.73103 135.945 7.50345V26.8138V27.0345L136.166 27.1448C139.366 28.8 143.559 29.0207 146.648 27.8069C150.069 26.3724 151.614 23.9448 152.166 22.1793C153.269 19.4207 152.828 16.6621 151.945 15.1172ZM147.31 24.3862C146.317 26.0414 144.331 27.0345 142.786 26.5931C141.241 26.1517 140.359 24.4966 140.359 21.9586C140.359 21.9586 140.359 16.1103 140.359 14.7862C140.359 14.7862 140.469 14.7862 140.579 14.6759C141.572 14.2345 143.338 13.2414 145.655 14.4552C146.869 15.1172 147.862 16.331 148.303 17.8759C148.855 19.9724 148.524 22.2897 147.31 24.3862ZM176.552 26.4828L176.221 26.3724C176 26.3724 175.559 25.7103 175.559 24.7172V16.8828C175.559 14.5655 174.786 12.8 173.462 11.9172C172.248 11.0345 170.593 10.9241 168.607 11.5862C166.29 12.3586 162.869 15.3379 162.317 16L162.207 16.1103V16.331C162.207 16.5517 162.538 16.8828 162.648 17.1034L162.759 17.2138H166.621C166.621 17.2138 166.621 16.331 166.621 16.1103C166.621 14.5655 167.614 13.7931 168.497 13.6828C169.379 13.5724 169.931 13.5724 170.372 13.9034C170.924 14.3448 171.255 15.4483 171.255 17.2138V18.2069L163.2 21.7379L163.09 21.8483V21.9586C162.317 24.1655 162.538 25.931 163.531 27.1448C165.186 29.0207 169.269 29.2414 175.228 27.9172C175.669 27.8069 176.662 27.6966 176.662 27.6966C176.552 27.5862 176.552 26.4828 176.552 26.4828ZM171.366 19.9724V26.0414C170.041 26.9241 168.717 27.0345 167.724 26.2621C166.731 25.3793 166.51 23.8345 167.172 22.2897L171.366 19.9724Z" fill="white"/>
</g>
<defs>
<clipPath id="clip0_6361_146565">
<rect width="176.552" height="32" fill="white"/>
</clipPath>
</defs>
</svg>
