<svg width="200" height="28" viewBox="0 0 200 28" fill="none" xmlns="http://www.w3.org/2000/svg">
<g clip-path="url(#clip0_6490_12510)">
<path d="M115.474 8.94743L108.421 0.842163L112.421 19.2632L126.947 0.842163L115.474 8.94743ZM21.3684 16.9474L31.0526 6.00006L20.2105 10.3158L0 6.10532L21.3684 16.9474Z" fill="#FF0011"/>
<path d="M108 5.57902L103.789 20.6316H111.158L108 5.57902ZM125.053 5.57902L113.684 20.6316H120.842L125.053 5.57902ZM195.053 7.15796C193.853 7.18165 192.684 7.54678 191.684 8.2106C191.213 8.57886 190.789 9.00303 190.421 9.47375L190.842 7.47375H186.421L181.684 24.4211H186.632L188.21 19.158C188.632 20.2106 189.579 20.8422 190.842 20.8422H191.684C192.947 20.6316 194.21 20.1053 195.474 19.2632C196.21 18.7369 196.947 18.0001 197.579 17.158C198.105 16.3159 198.632 15.158 198.947 14.0001C199.474 12.1053 199.474 10.5264 198.842 9.15796C198.21 7.89481 196.947 7.15796 195.053 7.15796ZM194 14.0001C193.684 14.9474 193.263 15.6843 192.737 16.1053C192.421 16.5264 192.105 16.6316 191.684 16.8422C191.405 16.8825 191.121 16.8825 190.842 16.8422C190.105 16.8422 189.789 16.7369 189.474 16.1053C189.263 15.579 189.263 14.8422 189.474 14.0001C189.789 12.7369 190.316 12.1053 190.737 11.7895C190.947 11.4738 191.579 10.9474 192.421 10.9474C193.789 10.9474 194.526 12.0001 193.895 14.1053M86.3158 7.15796C85.1518 7.20123 84.0224 7.56553 83.0526 8.2106C82.5449 8.57208 82.0851 8.99652 81.6842 9.47375L82.2105 7.47375H77.6842L72.9473 24.4211H77.8947L79.3684 19.158C79.8947 20.2106 80.8421 20.8422 82.1052 20.8422H82.9473C84.2105 20.6316 85.4736 20.1053 86.7368 19.2632C87.4736 18.7369 88.1052 18.0001 88.7368 17.158C89.2631 16.3159 89.7894 15.158 90.2105 14.0001C90.7368 12.1053 90.6315 10.5264 90.1052 9.15796C89.4736 7.89481 88.2105 7.15796 86.2105 7.15796M85.1579 14.0001C84.9473 14.9474 84.5263 15.6843 84 16.1053C83.6842 16.5264 83.2631 16.6316 82.9473 16.8422C82.6336 16.8933 82.3137 16.8933 82 16.8422C81.2631 16.8422 80.9473 16.7369 80.7368 16.1053C80.421 15.579 80.421 14.8422 80.7368 14.0001C81.0526 12.7369 81.5789 12.1053 82 11.7895C82.2105 11.4738 82.8421 10.9474 83.6842 10.9474C85.0526 10.9474 85.7894 12.0001 85.1579 14.1053M0.421021 26.4211L13.0526 21.3685L36.8421 26.6316L11.5789 13.6843L0.421021 26.4211ZM18.9473 1.89481C18.5047 1.9216 18.0717 2.03554 17.6732 2.23008C17.2747 2.42462 16.9185 2.69593 16.6251 3.02845C16.3317 3.36097 16.1069 3.74815 15.9635 4.16778C15.8201 4.5874 15.7609 5.03122 15.7894 5.47375C16 7.26323 17.6842 8.63165 19.4737 8.63165C19.9259 8.6054 20.3682 8.4882 20.7741 8.28706C21.18 8.08592 21.5412 7.80497 21.836 7.46102C22.1308 7.11708 22.3532 6.71719 22.4899 6.2853C22.6266 5.85341 22.6748 5.39838 22.6315 4.94744C22.6053 4.49519 22.4881 4.05288 22.287 3.64698C22.0858 3.24107 21.8049 2.87991 21.4609 2.5851C21.117 2.29028 20.7171 2.06787 20.2852 1.93118C19.8533 1.79449 19.3983 1.74631 18.9473 1.78954M177.158 16.8422C176.913 17.169 176.595 17.4343 176.229 17.617C175.864 17.7997 175.461 17.8948 175.053 17.8948C174.21 17.8948 173.789 17.6843 173.368 17.2632C173.053 16.7369 172.947 16.2106 173.158 15.3685H182.632C183.368 13.0527 183.368 11.0527 182.421 9.57902C181.579 8.10533 180 7.26323 177.579 7.26323L176.316 7.36849C174.457 7.651 172.721 8.46827 171.319 9.7206C169.918 10.9729 168.91 12.6062 168.421 14.4211C167.895 16.5264 168.21 18.1053 169.158 19.3685C170.21 20.4211 171.684 21.0527 173.789 21.0527C175.339 21.0695 176.876 20.7834 178.316 20.2106C179.884 19.5291 181.181 18.3437 182 16.8422H177.158ZM176.316 10.5264H176.947C177.579 10.5264 178 10.7369 178.21 11.158C178.526 11.579 178.632 12.2106 178.526 12.8422H174C174.316 11.579 175.053 10.7369 176.316 10.5264ZM137.789 7.68428C136.947 7.47375 135.789 7.26323 134.316 7.26323C133.29 7.27108 132.268 7.37682 131.263 7.57902C130.21 7.78954 129.368 8.10533 128.632 8.42112C128.012 8.76678 127.469 9.23402 127.035 9.79477C126.601 10.3555 126.285 10.9982 126.105 11.6843H131.053L131.263 11.3685C131.368 11.0527 131.789 10.7369 132.105 10.6316C132.44 10.4952 132.797 10.4238 133.158 10.4211C133.579 10.4211 133.895 10.4211 134.21 10.6316C134.526 10.6316 134.737 11.158 134.632 11.4738C134.421 12.0001 133.789 12.4211 132.842 12.5264L127.895 13.3685C127.269 13.5366 126.668 13.7843 126.105 14.1053C125.684 14.4211 125.158 14.7369 124.737 15.2632C124.316 15.7895 124 16.3159 123.789 17.158C123.474 18.4211 123.684 19.3685 124.421 20.1053C125.053 20.7369 126 21.0527 127.158 21.0527C129.076 21.1444 130.957 20.5048 132.421 19.2632L132.21 20.6316H137.474C137.474 20.6316 137.053 20.4211 137.263 19.7895L139.263 12.7369L139.684 10.5264C139.684 9.89481 139.684 9.36849 139.368 8.84218C139.158 8.31586 138.632 8.00007 137.789 7.78954M132.526 17.2632C132.186 17.6494 131.75 17.9397 131.263 18.1053H130.421C129.263 18.1053 128.842 17.7895 128.947 17.0527C129.158 16.7369 129.368 16.3159 129.684 16.1053L130.737 15.6843L132.105 15.4738L133.579 15.0527C133.474 15.8948 133.158 16.6316 132.526 17.2632ZM147.895 16.9474C147.686 17.1517 147.439 17.3127 147.168 17.4211C146.897 17.5295 146.608 17.5832 146.316 17.579C145.579 17.579 145.158 17.2632 144.947 16.6316C144.737 16.1053 144.737 15.0527 145.158 13.7895C145.263 13.4738 145.684 12.4211 146.105 12.0001C146.316 11.579 146.632 11.2632 147.053 11.0527C147.368 10.8422 147.789 10.7369 148.21 10.7369C148.842 10.7369 149.158 10.9474 149.368 11.2632C149.684 11.579 149.684 12.0001 149.579 12.6316H154.632C154.947 10.7369 154.526 9.26323 153.474 8.42112C152.421 7.68428 150.947 7.36849 149.263 7.36849C147.158 7.36849 145.263 7.89481 143.579 9.15796C141.874 10.4374 140.65 12.2547 140.105 14.3159C139.474 16.4211 139.684 18.1053 140.737 19.3685C141.789 20.4211 143.263 21.0527 145.368 21.0527C147.097 21.0529 148.799 20.6185 150.316 19.7895C151.111 19.3566 151.824 18.7864 152.421 18.1053C153.053 17.4738 153.474 16.6316 153.895 15.579H148.842C148.632 16.2106 148.316 16.6316 147.895 16.9474ZM74.3158 9.26323C73.4736 8.00007 71.8947 7.15796 69.3684 7.15796C68.7317 7.1701 68.0975 7.24057 67.4736 7.36849C65.8947 7.68428 64.421 8.31586 63.2631 9.26323C61.7317 10.5088 60.6277 12.2017 60.1052 14.1053C59.6842 16.0001 59.7894 17.579 60.5263 18.9474C61.3684 20.3159 62.9473 21.0527 65.4736 21.0527C66.2105 21.0527 66.8421 21.0527 67.5789 20.8422C69.0528 20.5644 70.4303 19.9119 71.5789 18.9474C73.1103 17.7018 74.2143 16.009 74.7368 14.1053C75.2631 12.2106 75.1579 10.6316 74.3158 9.26323ZM69.8947 14.1053C69.5789 15.158 69.1579 16.0001 68.5263 16.6316C68.2105 17.0527 67.4736 17.6843 66.421 17.6843C65.6842 17.6843 65.1579 17.3685 64.9473 16.6316C64.6887 15.8094 64.6887 14.9276 64.9473 14.1053C65.2631 13.0527 65.6842 12.2106 66.3158 11.4738C66.5817 11.1853 66.9088 10.96 67.273 10.8143C67.6373 10.6686 68.0295 10.6062 68.421 10.6316C69.1579 10.6316 69.7894 10.8422 70 11.4738C70.2105 12.2106 70.2105 13.0527 69.8947 14.1053ZM91.6842 11.2632H95.5789L92.9473 20.6316H97.8947L100.526 11.158H104.105L105.158 7.47375H92.7368L91.6842 11.2632ZM155.895 11.2632H159.789L157.263 20.6316H162.105L164.842 11.158H168.421L169.474 7.47375H157.053L155.895 11.2632ZM47.0526 7.47375L43.3684 20.6316H48.3158L50.9473 11.158H54.9473L52.3158 20.6316H57.3684L61.0526 7.47375H47.0526ZM37.6842 16.8422C37.4794 17.0515 37.2332 17.2157 36.9613 17.3245C36.6894 17.4332 36.3979 17.4841 36.1052 17.4738C35.3684 17.4738 34.9473 17.158 34.7368 16.5264C34.5263 16.0001 34.5263 15.0527 34.9473 13.6843C35.1983 13.0557 35.5159 12.4557 35.8947 11.8948C36.1052 11.4738 36.421 11.158 36.8421 10.9474C37.1579 10.7369 37.5789 10.6316 38 10.6316C38.6315 10.6316 38.9473 10.8422 39.1579 11.158C39.4736 11.4738 39.4736 12.0001 39.3684 12.5264H44.2105C44.5263 10.6316 44.1052 9.15796 43.0526 8.31586C42 7.57902 40.421 7.26323 38.8421 7.26323C36.7518 7.20162 34.7034 7.85725 33.0374 9.12113C31.3713 10.385 30.188 12.181 29.6842 14.2106C29.0526 16.3159 29.2631 18.0001 30.3158 19.2632C31.3684 20.3159 32.8421 20.9474 34.9473 20.9474C36.7026 20.9978 38.4418 20.5993 40 19.7895C40.7931 19.353 41.5052 18.7833 42.1052 18.1053C42.6315 17.4738 43.1579 16.6316 43.5789 15.579H38.5263C38.3158 16.2106 38 16.6316 37.5789 16.9474" fill="white"/>
</g>
<defs>
<clipPath id="clip0_6490_12510">
<rect width="200" height="26.3158" fill="white" transform="translate(0 0.842163)"/>
</clipPath>
</defs>
</svg>
