<svg width="72" height="55" viewBox="0 0 72 55" fill="none" xmlns="http://www.w3.org/2000/svg">
<g clip-path="url(#clip0_1_10531)">
<path d="M7.28116 24.3931C2.9765 22.3178 0 17.9183 0 12.831C0 5.73954 5.73954 0 12.831 0C17.859 0 22.1992 2.89349 24.31 7.09142L45.8096 7.13885C47.4935 7.13885 48.8573 8.51445 48.8573 10.1984V16.6257H58.3916C58.8778 16.6257 59.3402 16.8154 59.6841 17.1593L70.6177 28.0692C70.9616 28.4131 71.1514 28.8756 71.1514 29.3618V46.782C71.1514 48.4659 69.7876 49.8415 68.0919 49.8415H61.8898C61.202 52.7943 58.5576 55 55.3913 55C52.2251 55 49.5806 52.7943 48.8928 49.8415H29.4804C28.7926 52.7943 26.1481 55 22.9819 55C19.8157 55 17.1712 52.7943 16.4834 49.8415H10.3288C8.64489 49.8415 7.2693 48.4778 7.2693 46.782V24.3931H7.28116Z" fill="white"/>
<path fill-rule="evenodd" clip-rule="evenodd" d="M52.5808 21.9858H56.8381L64.5106 29.6465V33.2633H52.5808V21.9977V21.9858ZM46.1772 35.8366H10.9454V42.8806H19.2701C20.3374 42.1454 21.63 41.7185 23.0174 41.7185C24.4049 41.7185 25.6975 42.1454 26.7648 42.8806H46.1891V35.8366H46.1772Z" fill="#B5CAFF"/>
<path fill-rule="evenodd" clip-rule="evenodd" d="M23.8239 12.8309C23.8239 18.9025 18.9026 23.8238 12.831 23.8238C6.75939 23.8238 1.82623 18.9025 1.82623 12.8309C1.82623 6.75933 6.75939 1.82617 12.831 1.82617C18.9026 1.82617 23.8239 6.74747 23.8239 12.8191V12.8309ZM22.0451 12.8309C22.0451 17.9182 17.9183 22.045 12.831 22.045C7.74365 22.045 3.61688 17.9182 3.61688 12.8309C3.61688 7.74359 7.7318 3.60496 12.831 3.60496C17.9302 3.60496 22.0451 7.73173 22.0451 12.8191V12.8309Z" fill="#1551E5"/>
<path fill-rule="evenodd" clip-rule="evenodd" d="M26.3023 9.0481C25.8161 9.0481 25.4129 9.45129 25.4129 9.93749C25.4129 10.4237 25.8161 10.8269 26.3023 10.8269H45.442V35.0658H10.9929V26.3142C10.9929 25.828 10.5897 25.4248 10.1035 25.4248C9.6173 25.4248 9.21411 25.828 9.21411 26.3142V46.3314C9.21411 47.3157 10.0086 48.1102 10.9929 48.1102H17.9539C17.9539 48.1813 17.9539 48.2525 17.9539 48.3236C17.9539 51.1223 20.2426 53.3635 23.0412 53.3635C25.8398 53.3635 28.1285 51.1223 28.1285 48.3236C28.1285 45.525 25.8398 43.2838 23.0412 43.2838C20.9541 43.2838 19.1516 44.5289 18.3689 46.3314H10.9929V36.8446H45.442V46.3314H30.6425C30.1563 46.3314 29.7531 46.7346 29.7531 47.2208C29.7531 47.707 30.1563 48.1102 30.6425 48.1102H50.2447C50.2447 48.1813 50.2447 48.2525 50.2447 48.3236C50.2447 51.1223 52.5334 53.3635 55.332 53.3635C58.1307 53.3635 60.4194 51.1223 60.4194 48.3236C60.4194 48.2525 60.4194 48.1813 60.4194 48.1102H67.6412C68.6136 48.1102 69.4082 47.3157 69.42 46.3433L69.4556 40.1531L69.4082 30.18C69.4082 29.7057 69.2184 29.2551 68.8864 28.923L58.9015 18.9619C58.5694 18.6298 58.1188 18.4401 57.6445 18.4401H51.4424C50.9562 18.4401 50.553 18.8433 50.553 19.3295C50.553 19.8157 50.9562 20.2189 51.4424 20.2189H57.6445L67.6294 30.18L67.6649 39.2518H63.1706C62.6844 39.2518 62.2812 39.655 62.2812 40.1412C62.2812 40.6274 62.6844 41.0306 63.1706 41.0306H67.6649L67.6294 46.3314H60.0043C59.2216 44.5408 57.4192 43.2838 55.332 43.2838C53.2449 43.2838 51.4424 44.5289 50.6598 46.3314H47.2208V10.8269C47.2208 9.84262 46.4263 9.0481 45.442 9.0481H26.3023ZM58.5457 47.5054C58.5457 47.5054 58.522 47.4461 58.522 47.4105C58.1188 46.0587 56.8618 45.0625 55.3439 45.0625C53.5058 45.0625 52.0354 46.533 52.0354 48.3236C52.0354 50.1143 53.5058 51.5847 55.3439 51.5847C57.182 51.5847 58.6524 50.1143 58.6524 48.3236C58.6524 48.039 58.6169 47.7663 58.5457 47.5054ZM19.958 47.1378C20.4442 45.9282 21.6419 45.0625 23.0412 45.0625C24.8793 45.0625 26.3497 46.533 26.3497 48.3236C26.3497 50.1143 24.8793 51.5847 23.0412 51.5847C21.2031 51.5847 19.7327 50.1143 19.7327 48.3236C19.7327 48.0272 19.7682 47.7307 19.8512 47.458C19.8868 47.3512 19.9224 47.2445 19.958 47.1378Z" fill="#1551E5"/>
<circle cx="12.8241" cy="12.8249" r="10.999" fill="#1551E5"/>
<path d="M17.3484 9.59985L12.9924 11.3683L4.81073 9.63748L13.4571 14.0256L17.3484 9.59985Z" fill="#FF0016"/>
<path d="M10.1429 13.1318L5.58972 18.3148L10.7156 16.2501L20.2866 18.2678L10.1429 13.1318Z" fill="white"/>
<path d="M12.9299 10.7147C13.6809 10.6583 14.2489 9.99511 14.1878 9.24729C14.1127 8.49007 13.4697 7.93038 12.7045 7.99623C11.9723 8.05267 11.3996 8.70642 11.4606 9.46364C11.5217 10.2068 12.1788 10.7711 12.9299 10.7147Z" fill="white"/>
</g>
<defs>
<clipPath id="clip0_1_10531">
<rect width="71.1514" height="55" fill="white"/>
</clipPath>
</defs>
</svg>
