<svg width="77" height="65" viewBox="0 0 77 65" fill="none" xmlns="http://www.w3.org/2000/svg">
<rect width="77" height="65" fill="#F5F5F5"/>
<g clip-path="url(#clip0_0_1)">
<rect width="1440" height="9223" transform="translate(-81 -1816)" fill="white"/>
<g clip-path="url(#clip1_0_1)">
<path fill-rule="evenodd" clip-rule="evenodd" d="M34.4365 48.7499C29.1923 52.8756 20.8087 52.8635 17.5611 48.7259C14.3135 44.5882 23.7435 53.3086 31.5257 46.5728C42.772 36.8421 29.7817 26.3896 34.1479 29.3245C40.7994 33.811 39.6928 44.6363 34.4486 48.7499H34.4365Z" fill="#B5CAFF"/>
<path d="M26.2213 53.008C18.836 53.008 12.834 47.006 12.834 39.6207C12.834 32.2354 18.836 26.2334 26.2213 26.2334C33.6066 26.2334 39.6086 32.2354 39.6086 39.6207C39.6086 47.006 33.6066 53.008 26.2213 53.008ZM26.2213 28.0376C19.8344 28.0376 14.6382 33.2338 14.6382 39.6207C14.6382 46.0076 19.8344 51.2038 26.2213 51.2038C32.6082 51.2038 37.8044 46.0076 37.8044 39.6207C37.8044 33.2338 32.6082 28.0376 26.2213 28.0376Z" fill="#1551E5"/>
<path d="M19.3773 64.9999C19.245 64.9999 19.1006 64.9638 18.9804 64.9037L12.1604 61.5238C11.8236 61.3554 11.6192 60.9945 11.6673 60.6096L12.2927 55.1849C11.4989 54.3791 9.43003 52.226 8.29939 50.5421L2.6582 50.6864C2.21316 50.6864 1.85232 50.4098 1.75609 49.9888L0.0240399 42.5795C-0.060157 42.2066 0.0962087 41.8217 0.40894 41.6172L4.97963 38.6703C5.06382 37.5878 5.31642 34.8574 6.05013 32.8367L2.42967 28.278C2.16505 27.9412 2.16505 27.4721 2.42967 27.1474L7.26497 21.2656C7.50553 20.9649 7.91449 20.8567 8.26331 20.989L13.3392 22.8052C15.0712 21.4701 16.8033 20.6762 18.7999 19.9906L19.9667 14.4577C20.0509 14.0367 20.4237 13.748 20.8447 13.748H28.4585C28.8434 13.748 29.1802 13.9886 29.3125 14.3495L31.1528 19.4855C32.2354 19.8704 35.1341 20.9288 36.9023 21.9633L41.9661 19.4133C42.351 19.2208 42.8081 19.3171 43.0727 19.6539L47.8479 25.5837C48.0884 25.8844 48.1125 26.2934 47.92 26.6181L45.0573 31.2851C45.358 32.2473 46.1158 34.701 46.4165 36.6255L51.6488 38.6824C52.0457 38.8387 52.2742 39.2477 52.2141 39.6687L50.7827 48.4131C50.7106 48.8581 50.3136 49.207 49.8686 49.1709L44.7326 49.0145L41.1001 53.6935L42.5916 59.2144C42.6998 59.6113 42.5314 60.0202 42.1826 60.2247L34.8815 64.5308C34.4967 64.7593 33.9915 64.6631 33.7148 64.3023L30.2748 59.8759C29.3125 60.0082 27.2677 60.2849 25.8845 60.2849C25.1989 60.2849 24.2246 60.2368 23.6353 60.2007L20.087 64.6631C19.9065 64.8796 19.6539 64.9999 19.3773 64.9999ZM13.5316 60.2007L19.1247 62.9671L22.5166 58.7092C22.6971 58.4807 22.9857 58.3604 23.2864 58.3724C23.2985 58.3724 24.9463 58.4806 25.8845 58.4806C27.5684 58.4806 30.5033 58.0236 30.5274 58.0236C30.8521 57.9755 31.1769 58.1078 31.3814 58.3604L34.665 62.5822L40.6911 59.0219L39.2598 53.7295C39.1876 53.4529 39.2478 53.1642 39.4162 52.9477L43.6019 47.5471C43.7824 47.3185 44.047 47.1862 44.3477 47.1983L49.1589 47.3426L50.3497 40.1017L45.2979 38.117C44.9852 37.9967 44.7687 37.7081 44.7326 37.3833C44.48 35.1581 43.2652 31.5016 43.2531 31.4655C43.1689 31.2129 43.205 30.9362 43.3373 30.7077L46.0797 26.2212L42.1586 21.3498L37.2992 23.7915C37.0105 23.9359 36.6617 23.9118 36.3971 23.7314C34.5929 22.5286 30.2387 21.0611 30.2026 21.0371C29.938 20.9529 29.7335 20.7484 29.6373 20.4838L27.8692 15.5282H21.6266L20.4959 20.8446C20.4237 21.1574 20.2072 21.41 19.8945 21.5182C17.7174 22.2399 15.9012 23.0338 14.109 24.5132C13.8684 24.7177 13.5316 24.7658 13.2309 24.6696L8.28736 22.8894L4.31808 27.7127L7.80624 32.103C8.01072 32.3676 8.05883 32.7164 7.92652 33.0171C6.9763 35.2303 6.77182 39.1755 6.77182 39.2116C6.75979 39.5003 6.60343 39.7649 6.36286 39.9212L1.93651 42.7719L3.35583 48.8461L8.78052 48.7138C9.12933 48.7138 9.41801 48.8702 9.57437 49.1589C10.693 51.0473 13.8564 54.1746 13.8804 54.2107C14.0729 54.4031 14.1691 54.6798 14.1451 54.9564L13.5437 60.1766L13.5316 60.2007Z" fill="#1551E5"/>
<path d="M63.3543 53.0079C66.2572 53.0079 68.6105 50.6546 68.6105 47.7517C68.6105 44.8487 66.2572 42.4954 63.3543 42.4954C60.4513 42.4954 58.098 44.8487 58.098 47.7517C58.098 50.6546 60.4513 53.0079 63.3543 53.0079Z" fill="#B5CAFF"/>
<path d="M61.7163 54.295C61.2232 54.295 60.73 54.2469 60.2369 54.1627C58.156 53.7778 56.3398 52.599 55.149 50.8429C53.9462 49.0868 53.5011 46.9819 53.8981 44.889C54.7039 40.5829 58.8657 37.7443 63.1717 38.5381C65.2526 38.923 67.0689 40.1018 68.2596 41.8579C69.4625 43.614 69.9075 45.7189 69.5106 47.8118C69.1257 49.8927 67.9469 51.7089 66.1908 52.8997C64.8557 53.8138 63.3041 54.295 61.7163 54.295ZM61.6923 40.21C58.7935 40.21 56.2075 42.2668 55.6662 45.2258C55.0407 48.5575 57.2419 51.7691 60.5737 52.3825C62.1854 52.6832 63.8213 52.3344 65.1684 51.4082C66.5156 50.4821 67.4297 49.0868 67.7304 47.475C68.0311 45.8633 67.6823 44.2274 66.7561 42.8803C65.83 41.5331 64.4347 40.619 62.8229 40.3183C62.438 40.2461 62.0652 40.21 61.6923 40.21Z" fill="#1551E5"/>
<path d="M63.7371 61.4757C63.4123 61.4757 63.0996 61.2953 62.9312 60.9825L61.584 58.3724C60.9706 58.3364 59.9722 58.2762 59.2746 58.1439C58.9619 58.0838 58.5409 57.9875 58.2161 57.9033L55.9428 59.876C55.6181 60.1526 55.149 60.1767 54.8122 59.912L51.3842 57.338C51.0835 57.1095 50.9512 56.7126 51.0594 56.3517L51.9014 53.6213C51.6007 53.2004 51.1436 52.4787 50.8309 51.6126L50.5181 50.7707L52.2141 50.1452L52.5268 50.9872C52.9117 52.0456 53.5853 52.8515 53.5973 52.8515C53.8018 53.0921 53.862 53.4048 53.7778 53.7055L52.9839 56.2675L55.3294 58.0236L57.4103 56.2194C57.6388 56.027 57.9395 55.9548 58.2282 56.027C58.2282 56.027 59.1062 56.2555 59.6355 56.3517C60.5376 56.5201 62.1854 56.5682 62.1974 56.5682C62.5222 56.5682 62.8229 56.7607 62.9672 57.0614L64.1941 59.4309L67.2974 58.3003L67.0809 55.5098C67.0568 55.2331 67.1651 54.9565 67.3816 54.764L70.2563 52.202C70.4728 52.0096 70.7735 51.9374 71.0502 51.9975L73.3596 52.5027L74.5383 49.2311L72.2169 47.7757C71.9282 47.5952 71.7718 47.2825 71.7959 46.9457C71.8801 45.7309 71.5914 43.6139 71.5914 43.5899C71.5553 43.3253 71.6395 43.0606 71.82 42.8682L73.6242 40.8715L72.2409 38.2975L69.5947 39.0553C69.282 39.1395 68.9452 39.0553 68.7167 38.8388C68.0191 38.1532 66.263 37.1187 65.6495 36.7699C65.409 36.6376 65.2406 36.3971 65.1925 36.1204L64.7715 33.4622L61.8967 32.9209L60.8383 35.4589C60.718 35.7596 60.4413 35.964 60.1286 36.0122C58.8897 36.1805 57.8433 36.4211 56.7487 37.0225C56.4721 37.1789 56.1353 37.1789 55.8586 37.0225L53.5011 35.6393L51.2037 37.3473L50.1332 35.8919L52.9117 33.8351C53.2004 33.6186 53.5973 33.5945 53.9101 33.787L56.3518 35.2183C57.4103 34.7131 58.4206 34.4726 59.3829 34.3162L60.5255 31.5738C60.6939 31.1768 61.1029 30.9483 61.5239 31.0325L65.7457 31.8264C66.1186 31.8985 66.4073 32.1992 66.4674 32.5721L66.9245 35.4228C67.55 35.7836 68.7528 36.5173 69.5947 37.2029L72.4574 36.373C72.8664 36.2527 73.2994 36.4331 73.5039 36.818L75.5366 40.5949C75.7171 40.9317 75.669 41.3406 75.4164 41.6293L73.4678 43.7944C73.54 44.4078 73.6603 45.5625 73.6482 46.5488L76.1501 48.1124C76.5109 48.341 76.6673 48.786 76.5229 49.183L74.827 53.8739C74.6706 54.2949 74.2256 54.5475 73.7926 54.4513L71.1584 53.8739L68.9573 55.8225L69.1978 58.8415C69.2339 59.2505 68.9933 59.6234 68.6084 59.7557L64.1099 61.3915C64.0137 61.4276 63.9054 61.4396 63.7972 61.4396L63.7371 61.4757Z" fill="#1551E5"/>
<path d="M51.8051 27.3639C51.4684 27.3639 51.1195 27.3398 50.7828 27.3037L49.8806 27.2075L50.0731 25.4153L50.9752 25.5115C55.1009 25.9686 58.8055 22.9856 59.2626 18.872C59.4791 16.8754 58.9138 14.9148 57.6628 13.3511C56.4119 11.7875 54.6197 10.8012 52.6231 10.5846C50.6264 10.3561 48.6658 10.9335 47.1021 12.1844C45.5385 13.4353 44.5522 15.2275 44.3357 17.2121L44.2395 18.1143L42.4473 17.9218L42.5435 17.0197C43.1088 11.9198 47.7036 8.2151 52.8155 8.79245C55.2933 9.0691 57.5065 10.2839 59.0581 12.2205C60.6097 14.157 61.3194 16.5867 61.0427 19.0645C60.5135 23.8156 56.4721 27.3519 51.7931 27.3519L51.8051 27.3639Z" fill="#1551E5"/>
<path d="M65.8901 29.3125L64.2663 28.5307L66.9125 22.9978L64.2061 20.9049C63.9415 20.7004 63.8092 20.3636 63.8693 20.0388C64.1219 18.5834 64.0257 16.0214 64.0257 15.9974C64.0257 15.7328 64.1219 15.4802 64.3264 15.2998L66.7922 13.0625L65.3488 9.58639L61.9809 10.2119C61.6562 10.272 61.3314 10.1517 61.1269 9.89912C60.3692 8.99701 58.3845 7.52958 57.6869 7.04846C57.4584 6.89209 57.314 6.6395 57.302 6.36286L57.0975 3.03106L53.4891 1.97259L51.8653 4.99165C51.7089 5.2683 51.4202 5.44872 51.1075 5.46075C49.592 5.52089 48.3049 5.67725 46.9097 6.27866C46.621 6.39894 46.2842 6.36285 46.0196 6.18243L43.3253 4.22185L40.222 6.3388L41.5572 9.61045C41.6774 9.92318 41.6293 10.272 41.4128 10.5246C40.4145 11.7394 39.5605 14.1932 39.5485 14.2172C39.4522 14.4939 39.2357 14.7104 38.9471 14.7825L34.2801 16.1658L33.7629 14.4337L37.9968 13.1828C38.2735 12.4371 38.899 10.9335 39.6808 9.81493L38.2615 6.3388C38.1051 5.94187 38.2374 5.49683 38.5862 5.25627L42.8201 2.36952C43.1328 2.15301 43.5538 2.16504 43.8545 2.38155L46.6571 4.42633C48.0163 3.92115 49.3033 3.75275 50.4941 3.68058L52.2141 0.469073C52.4186 0.0962009 52.8516 -0.084221 53.2605 0.0240322L58.18 1.45538C58.5409 1.56363 58.8055 1.88839 58.8296 2.27329L59.0461 5.80956C59.7196 6.30271 61.1871 7.38525 62.1132 8.33547L65.7096 7.67392C66.1306 7.60175 66.5396 7.81826 66.708 8.21519L68.6686 12.9422C68.8129 13.2911 68.7287 13.7 68.44 13.9526L65.8059 16.3462C65.8179 17.0679 65.8299 18.5714 65.6856 19.7983L68.5483 22.0114C68.8851 22.2761 68.9933 22.7331 68.8129 23.118L65.854 29.3125H65.8901Z" fill="#1551E5"/>
</g>
</g>
<defs>
<clipPath id="clip0_0_1">
<rect width="1440" height="9223" fill="white" transform="translate(-81 -1816)"/>
</clipPath>
<clipPath id="clip1_0_1">
<rect width="76.5229" height="65" fill="white"/>
</clipPath>
</defs>
</svg>
