<svg width="77" height="56" viewBox="0 0 77 56" fill="none" xmlns="http://www.w3.org/2000/svg">
<g clip-path="url(#clip0_1_10545)">
<path d="M16.0702 21.4242C19.02 21.4242 21.4113 19.0329 21.4113 16.0831C21.4113 13.1332 19.02 10.7419 16.0702 10.7419C13.1204 10.7419 10.7291 13.1332 10.7291 16.0831C10.7291 19.0329 13.1204 21.4242 16.0702 21.4242Z" fill="#B5CAFF"/>
<path d="M65.3091 21.4242C68.2589 21.4242 70.6502 19.0329 70.6502 16.0831C70.6502 13.1332 68.2589 10.7419 65.3091 10.7419C62.3593 10.7419 59.968 13.1332 59.968 16.0831C59.968 19.0329 62.3593 21.4242 65.3091 21.4242Z" fill="#B5CAFF"/>
<path fill-rule="evenodd" clip-rule="evenodd" d="M53.8111 26.4864C51.5997 29.1025 51.3244 33.3198 53.3759 35.0785C55.4275 36.8372 51.1734 31.8149 54.8591 28.0263C60.1878 22.5578 80.6412 32.3399 69.9838 24.7977C66.68 22.4616 57.3991 22.2253 53.8111 26.4864Z" fill="#B5CAFF"/>
<path fill-rule="evenodd" clip-rule="evenodd" d="M3.71233 26.4864C1.50091 29.1025 -0.852608 32.6811 1.19895 34.4398C3.25051 36.1984 1.06573 31.8149 4.76031 28.0263C10.089 22.5578 33.7752 33.0486 19.885 24.7977C16.4036 22.7328 7.30033 22.2253 3.71233 26.4864Z" fill="#B5CAFF"/>
<path d="M13.8458 23.5377C9.67161 23.5377 6.27899 20.1954 6.27899 16.0831C6.27899 11.9708 9.67161 8.62842 13.8458 8.62842C18.0199 8.62842 21.4126 11.9708 21.4126 16.0831C21.4126 20.1954 18.0199 23.5377 13.8458 23.5377ZM13.8458 9.94086C10.4088 9.94086 7.61117 12.697 7.61117 16.0831C7.61117 19.4692 10.4088 22.2253 13.8458 22.2253C17.2828 22.2253 20.0804 19.4692 20.0804 16.0831C20.0804 12.697 17.2828 9.94086 13.8458 9.94086Z" fill="#1551E5"/>
<path d="M27.7626 35.1048H0V34.4485C0 34.2473 0.0177624 29.4 3.62353 25.8389C6.0481 23.4415 9.48512 22.2253 13.8369 22.2253C26.1818 22.2253 27.6649 34.256 27.6738 34.3785L27.7538 35.1048H27.7626ZM1.37659 33.7923H26.2351C25.7377 31.3249 23.4197 23.5378 13.8369 23.5378C9.84925 23.5378 6.73195 24.6227 4.56494 26.7664C2.0782 29.2163 1.50092 32.4361 1.3677 33.7923H1.37659Z" fill="#1551E5"/>
<path d="M63.0831 23.5377C58.909 23.5377 55.5164 20.1954 55.5164 16.0831C55.5164 11.9708 58.909 8.62842 63.0831 8.62842C67.2573 8.62842 70.6499 11.9708 70.6499 16.0831C70.6499 20.1954 67.2573 23.5377 63.0831 23.5377ZM63.0831 9.94086C59.6461 9.94086 56.8485 12.697 56.8485 16.0831C56.8485 19.4692 59.6461 22.2253 63.0831 22.2253C66.5202 22.2253 69.3177 19.4692 69.3177 16.0831C69.3177 12.697 66.5202 9.94086 63.0831 9.94086Z" fill="#1551E5"/>
<path d="M77 35.1048H49.2374V34.4485C49.2374 34.2473 49.2551 29.4 52.8609 25.8389C55.2855 23.4415 58.7225 22.2253 63.0743 22.2253C75.4191 22.2253 76.9023 34.256 76.9112 34.3785L76.9911 35.1048H77ZM50.614 33.7923H75.4724C74.9751 31.3249 72.6571 23.5378 63.0743 23.5378C57.8788 23.5378 54.1931 25.3577 52.1326 28.945C51.0314 30.8612 50.7028 32.8124 50.6051 33.7923H50.614Z" fill="#1551E5"/>
<path d="M38.464 23.5377C44.7375 23.5377 49.8231 18.5275 49.8231 12.347C49.8231 6.16652 44.7375 1.15625 38.464 1.15625C32.1906 1.15625 27.105 6.16652 27.105 12.347C27.105 18.5275 32.1906 23.5377 38.464 23.5377Z" fill="white"/>
<path d="M38.464 24.1939C31.8298 24.1939 26.4389 18.8829 26.4389 12.347C26.4389 5.81101 31.8298 0.5 38.464 0.5C45.0983 0.5 50.4892 5.81101 50.4892 12.347C50.4892 18.8829 45.0983 24.1939 38.464 24.1939ZM38.464 1.81244C32.5669 1.81244 27.7711 6.53723 27.7711 12.347C27.7711 18.1567 32.5669 22.8815 38.464 22.8815C44.3612 22.8815 49.157 18.1567 49.157 12.347C49.157 6.53723 44.3612 1.81244 38.464 1.81244Z" fill="#1551E5"/>
<path fill-rule="evenodd" clip-rule="evenodd" d="M60.1523 42.577H16.7766C16.7766 42.577 16.7055 23.5378 38.4644 23.5378C58.0386 23.5378 60.1523 42.577 60.1523 42.577Z" fill="white"/>
<path d="M60.8984 43.2331H16.1105V42.5769C16.1105 42.2444 16.146 34.4398 21.9543 28.7C25.862 24.8327 31.4217 22.8728 38.4645 22.8728C58.4028 22.8728 60.7918 42.3057 60.8184 42.4982L60.8984 43.2244V43.2331ZM17.4693 41.9207H59.3797C58.7758 38.4558 55.2766 24.194 38.4556 24.194C31.7858 24.194 26.5459 26.0227 22.9046 29.6187C18.4196 34.046 17.6114 39.9695 17.4693 41.9207Z" fill="#1551E5"/>
<path fill-rule="evenodd" clip-rule="evenodd" d="M42.3012 38.4997L50.9159 39.6284L44.7613 45.6832L46.3332 54.109L38.5888 50.2067L30.9421 54.284L32.3098 45.8231L26.0131 39.9172L34.6012 38.5872L38.3579 30.8613L42.3012 38.4997Z" fill="white"/>
<path d="M30.0717 55.5001L31.5993 46.068L24.5743 39.4796L34.1482 37.9921L38.3401 29.3738L42.7363 37.8871L52.3458 39.1471L45.4806 45.893L47.2302 55.2901L38.5977 50.9415L30.0717 55.4826V55.5001ZM27.4518 40.3633L33.0292 45.5955L31.8213 53.0852L38.5888 49.4804L45.4451 52.9277L44.0508 45.473L49.4949 40.1183L41.866 39.1121L38.3757 32.3486L35.0541 39.1908L27.4518 40.372V40.3633Z" fill="#FF0016"/>
</g>
<defs>
<clipPath id="clip0_1_10545">
<rect width="77" height="55" fill="white" transform="translate(0 0.5)"/>
</clipPath>
</defs>
</svg>
