<svg width="37" height="41" viewBox="0 0 37 41" fill="none" xmlns="http://www.w3.org/2000/svg">
<g clip-path="url(#clip0_1_10451)">
<path d="M11.1908 32.3956H7.1402C3.20365 32.3956 0 29.3075 0 25.5129V6.88269C0 3.08811 3.20365 0 7.1402 0H26.1778C30.1143 0 33.318 3.08811 33.318 6.88269V21.6126C33.318 22.5475 32.5324 23.3047 31.5626 23.3047C30.5927 23.3047 29.8071 22.5475 29.8071 21.6126V6.88269C29.8071 4.95367 28.179 3.38423 26.1778 3.38423H7.1402C5.13901 3.38423 3.51085 4.95367 3.51085 6.88269V25.5129C3.51085 27.4419 5.13901 29.0114 7.1402 29.0114H11.1908C12.1607 29.0114 12.9463 29.7686 12.9463 30.7035C12.9463 31.6384 12.1607 32.3956 11.1908 32.3956Z" fill="#1551E5"/>
<path d="M22.6713 32.4506C22.8293 32.0149 23.0049 31.7442 23.018 31.4692C23.1277 28.9564 23.2023 26.4436 23.2901 23.9308C23.3603 21.8707 23.4349 19.8147 23.5139 17.7588C23.5578 16.7097 24.3653 15.9609 25.4098 15.9609C26.4894 15.9609 27.2837 16.7182 27.3188 17.8011C27.3934 19.9586 27.468 22.116 27.5163 24.2735C27.5251 24.6711 27.6567 24.8615 28.0385 25.018C30.3996 25.974 32.7431 26.9809 35.1085 27.9327C36.3505 28.4318 37.0044 29.2864 37 30.5766C36.9912 32.6325 36.9956 34.6927 36.921 36.7486C36.8683 38.2588 36.0477 39.5321 35.3455 40.8224C35.2885 40.9281 35.0383 40.9916 34.8803 40.9916C31.0403 41 27.1959 41.0043 23.3559 40.9831C23.1321 40.9831 22.8293 40.7885 22.6977 40.5982C20.9071 37.9923 19.1429 35.3653 17.3699 32.751C16.9881 32.1883 16.5624 31.6511 16.1938 31.08C15.9919 30.7627 15.8252 30.4116 15.7155 30.0563C15.417 29.1087 15.8691 28.4657 16.8828 28.3134C17.9229 28.1611 18.8664 28.4107 19.6257 29.0875C20.2401 29.6332 20.7623 30.2763 21.3153 30.8854C21.7322 31.3423 22.1271 31.8161 22.6757 32.4464" fill="#1551E5"/>
<path d="M15.575 25.2675C15.0045 25.2675 14.4691 25.001 14.14 24.5484L7.33768 15.2418C6.78033 14.4761 6.96904 13.4227 7.76337 12.8855C8.5577 12.3482 9.65046 12.5301 10.2078 13.2958L15.439 20.4535L23.0575 7.91488C23.549 7.1069 24.6242 6.83616 25.4581 7.30995C26.2919 7.78375 26.5772 8.82017 26.0856 9.62392L17.0891 24.4299C16.7863 24.9249 16.2465 25.2422 15.6496 25.2675C15.6233 25.2675 15.6014 25.2675 15.575 25.2675Z" fill="#FF0016"/>
</g>
<defs>
<clipPath id="clip0_1_10451">
<rect width="37" height="41" fill="white"/>
</clipPath>
</defs>
</svg>
