<svg width="47" height="43" viewBox="0 0 47 43" fill="none" xmlns="http://www.w3.org/2000/svg">
<g clip-path="url(#clip0_1_10434)">
<path d="M40.443 0.5H19.4286C16.1996 0.5 13.5731 2.99769 13.5731 6.06829V11.3799H6.15412C2.92512 11.3799 0.298584 13.8776 0.298584 16.9482V36.9317C0.298584 40.0023 2.92512 42.5 6.15412 42.5H27.1686C30.3976 42.5 33.0241 40.0023 33.0241 36.9317V31.6201H40.443C43.672 31.6201 46.2986 29.1224 46.2986 26.0518V6.06829C46.2986 2.99837 43.672 0.5 40.443 0.5ZM29.87 31.6201V36.9317C29.87 38.3479 28.6585 39.5006 27.1686 39.5006H6.15412C4.66487 39.5006 3.45273 38.3486 3.45273 36.9317V16.9482C3.45273 15.532 4.66415 14.3793 6.15412 14.3793H27.1686C28.6578 14.3793 29.87 15.5313 29.87 16.9482V31.6201ZM43.1444 26.0518C43.1444 27.468 41.933 28.6207 40.443 28.6207H33.0241V16.9482C33.0241 13.8783 30.3976 11.3799 27.1686 11.3799H16.7272V6.06829C16.7272 4.65209 17.9386 3.49941 19.4286 3.49941H40.443C41.9323 3.49941 43.1444 4.6514 43.1444 6.06829V26.0518Z" fill="#1551E5"/>
<path d="M25.4411 17.9756C24.6889 17.5567 23.7236 17.7969 23.2831 18.5115L15.5021 31.1444L10.0936 23.845C9.59188 23.1681 8.60792 23.0058 7.89604 23.4829C7.18416 23.96 7.01357 24.8957 7.51527 25.5727L14.3353 34.7776C14.6319 35.1774 15.1127 35.4135 15.6245 35.4135C15.6468 35.4135 15.6691 35.4135 15.6907 35.4121C16.2262 35.3909 16.7143 35.1116 16.9856 34.6715L26.0054 20.0276C26.4452 19.313 26.1933 18.3945 25.4418 17.9756H25.4411Z" fill="#FF0016"/>
</g>
<defs>
<clipPath id="clip0_1_10434">
<rect width="46" height="42" fill="white" transform="translate(0.298584 0.5)"/>
</clipPath>
</defs>
</svg>
