<svg width="24" height="24" viewBox="0 0 24 24" xmlns="http://www.w3.org/2000/svg">
<path clip-rule="evenodd" d="M5.7373 6H18.2613C18.6673 6 18.9994 6.427 18.9994 6.949V7.051C18.9994 7.573 18.6673 8 18.2613 8H5.7373C5.33132 8 5 7.573 5 7.051V6.949C5 6.427 5.33132 6 5.7373 6ZM18.2613 11H5.7373C5.33132 11 5 11.427 5 11.949V12.051C5 12.573 5.33132 13 5.7373 13H18.2613C18.6673 13 18.9994 12.573 18.9994 12.051V11.949C18.9994 11.427 18.6673 11 18.2613 11ZM18.2613 16H5.7373C5.33132 16 5 16.427 5 16.949V17.051C5 17.573 5.33132 18 5.7373 18H18.2613C18.6673 18 18.9994 17.573 18.9994 17.051V16.949C18.9994 16.427 18.6673 16 18.2613 16Z" />
<path clip-rule="evenodd" d="M5.7373 6H18.2613C18.6673 6 18.9994 6.427 18.9994 6.949V7.051C18.9994 7.573 18.6673 8 18.2613 8H5.7373C5.33132 8 5 7.573 5 7.051V6.949C5 6.427 5.33132 6 5.7373 6ZM18.2613 11H5.7373C5.33132 11 5 11.427 5 11.949V12.051C5 12.573 5.33132 13 5.7373 13H18.2613C18.6673 13 18.9994 12.573 18.9994 12.051V11.949C18.9994 11.427 18.6673 11 18.2613 11ZM18.2613 16H5.7373C5.33132 16 5 16.427 5 16.949V17.051C5 17.573 5.33132 18 5.7373 18H18.2613C18.6673 18 18.9994 17.573 18.9994 17.051V16.949C18.9994 16.427 18.6673 16 18.2613 16Z" />
</svg>
