<svg width="24" height="24" viewBox="0 0 24 24" xmlns="http://www.w3.org/2000/svg">
<path fill-rule="evenodd" clip-rule="evenodd" d="M10.5604 8.43938C11.1464 9.02438 11.1464 9.97538 10.5604 10.5604C9.97443 11.1464 9.02543 11.1464 8.43943 10.5604C7.85343 9.97538 7.85343 9.02438 8.43943 8.43938C9.02543 7.85338 9.97443 7.85338 10.5604 8.43938ZM5.83393 12.8915L11.8659 18.9245L18.9239 11.8665L12.8919 5.83348L5.10693 5.10748L5.83393 12.8915ZM11.8659 20.9985C11.4009 20.9985 10.9369 20.8215 10.5819 20.4685L4.16493 14.0505C3.99993 13.8865 3.89793 13.6685 3.87593 13.4365L3.00393 4.09248C2.97693 3.79648 3.08193 3.50348 3.29293 3.29248C3.50393 3.08148 3.79593 2.97448 4.09293 3.00448L13.4369 3.87648C13.6689 3.89748 13.8859 3.99948 14.0509 4.16448L20.4679 10.5815C20.8109 10.9245 20.9999 11.3805 20.9999 11.8665C20.9999 12.3525 20.8109 12.8085 20.4679 13.1515L13.1509 20.4675C12.7969 20.8215 12.3319 20.9985 11.8659 20.9985Z" />
<path fill-rule="evenodd" clip-rule="evenodd" d="M10.5604 8.43938C11.1464 9.02438 11.1464 9.97538 10.5604 10.5604C9.97443 11.1464 9.02543 11.1464 8.43943 10.5604C7.85343 9.97538 7.85343 9.02438 8.43943 8.43938C9.02543 7.85338 9.97443 7.85338 10.5604 8.43938ZM5.83393 12.8915L11.8659 18.9245L18.9239 11.8665L12.8919 5.83348L5.10693 5.10748L5.83393 12.8915ZM11.8659 20.9985C11.4009 20.9985 10.9369 20.8215 10.5819 20.4685L4.16493 14.0505C3.99993 13.8865 3.89793 13.6685 3.87593 13.4365L3.00393 4.09248C2.97693 3.79648 3.08193 3.50348 3.29293 3.29248C3.50393 3.08148 3.79593 2.97448 4.09293 3.00448L13.4369 3.87648C13.6689 3.89748 13.8859 3.99948 14.0509 4.16448L20.4679 10.5815C20.8109 10.9245 20.9999 11.3805 20.9999 11.8665C20.9999 12.3525 20.8109 12.8085 20.4679 13.1515L13.1509 20.4675C12.7969 20.8215 12.3319 20.9985 11.8659 20.9985Z" />
</svg>
