<svg width="16" height="16" viewBox="0 0 16 16" xmlns="http://www.w3.org/2000/svg">
<path clip-rule="evenodd" d="M9.80336 6.19537C9.5427 5.93471 9.12136 5.93471 8.8607 6.19537L7.9987 7.05737L7.1367 6.19537C6.87603 5.93471 6.4547 5.93471 6.19403 6.19537C5.93336 6.45604 5.93336 6.87737 6.19403 7.13804L7.05603 8.00004L6.19403 8.86204C5.93336 9.12271 5.93336 9.54404 6.19403 9.80471C6.32403 9.93471 6.4947 10 6.66536 10C6.83603 10 7.0067 9.93471 7.1367 9.80471L7.9987 8.94271L8.8607 9.80471C8.9907 9.93471 9.16136 10 9.33203 10C9.5027 10 9.67336 9.93471 9.80336 9.80471C10.064 9.54404 10.064 9.12271 9.80336 8.86204L8.94136 8.00004L9.80336 7.13804C10.064 6.87737 10.064 6.45604 9.80336 6.19537ZM7.9987 13.3334C5.05803 13.3334 2.66536 10.9407 2.66536 8.00004C2.66536 5.05937 5.05803 2.66671 7.9987 2.66671C10.9394 2.66671 13.332 5.05937 13.332 8.00004C13.332 10.9407 10.9394 13.3334 7.9987 13.3334ZM7.9987 1.33337C4.3227 1.33337 1.33203 4.32404 1.33203 8.00004C1.33203 11.676 4.3227 14.6667 7.9987 14.6667C11.6747 14.6667 14.6654 11.676 14.6654 8.00004C14.6654 4.32404 11.6747 1.33337 7.9987 1.33337Z" />
<path clip-rule="evenodd" d="M9.80336 6.19537C9.5427 5.93471 9.12136 5.93471 8.8607 6.19537L7.9987 7.05737L7.1367 6.19537C6.87603 5.93471 6.4547 5.93471 6.19403 6.19537C5.93336 6.45604 5.93336 6.87737 6.19403 7.13804L7.05603 8.00004L6.19403 8.86204C5.93336 9.12271 5.93336 9.54404 6.19403 9.80471C6.32403 9.93471 6.4947 10 6.66536 10C6.83603 10 7.0067 9.93471 7.1367 9.80471L7.9987 8.94271L8.8607 9.80471C8.9907 9.93471 9.16136 10 9.33203 10C9.5027 10 9.67336 9.93471 9.80336 9.80471C10.064 9.54404 10.064 9.12271 9.80336 8.86204L8.94136 8.00004L9.80336 7.13804C10.064 6.87737 10.064 6.45604 9.80336 6.19537ZM7.9987 13.3334C5.05803 13.3334 2.66536 10.9407 2.66536 8.00004C2.66536 5.05937 5.05803 2.66671 7.9987 2.66671C10.9394 2.66671 13.332 5.05937 13.332 8.00004C13.332 10.9407 10.9394 13.3334 7.9987 13.3334ZM7.9987 1.33337C4.3227 1.33337 1.33203 4.32404 1.33203 8.00004C1.33203 11.676 4.3227 14.6667 7.9987 14.6667C11.6747 14.6667 14.6654 11.676 14.6654 8.00004C14.6654 4.32404 11.6747 1.33337 7.9987 1.33337Z" />
</svg>
