<svg width="24" height="25" viewBox="0 0 24 25" xmlns="http://www.w3.org/2000/svg">
<path clip-rule="evenodd" d="M11.9891 7.81537L6.62715 12.1304C6.19715 12.4764 5.56815 12.4084 5.22115 11.9784C4.87515 11.5474 4.94315 10.9184 5.37315 10.5714L11.3731 5.74337C11.7441 5.44537 12.2741 5.44837 12.6401 5.75537L18.6401 10.7554C19.0651 11.1084 19.1221 11.7384 18.7681 12.1634C18.5701 12.4004 18.2861 12.5234 18.0001 12.5234C17.7741 12.5234 17.5471 12.4464 17.3601 12.2914L11.9891 7.81537ZM11.3732 12.7439C11.7442 12.4449 12.2742 12.4489 12.6402 12.7549L18.6402 17.7549C19.0642 18.1089 19.1212 18.7389 18.7682 19.1629C18.5702 19.4009 18.2862 19.5229 17.9992 19.5229C17.7742 19.5229 17.5472 19.4469 17.3602 19.2909L11.9892 14.8159L6.62725 19.1299C6.19725 19.4769 5.56825 19.4089 5.22125 18.9779C4.87425 18.5479 4.94325 17.9189 5.37325 17.5719L11.3732 12.7439Z" />
<path clip-rule="evenodd" d="M11.9891 7.81537L6.62715 12.1304C6.19715 12.4764 5.56815 12.4084 5.22115 11.9784C4.87515 11.5474 4.94315 10.9184 5.37315 10.5714L11.3731 5.74337C11.7441 5.44537 12.2741 5.44837 12.6401 5.75537L18.6401 10.7554C19.0651 11.1084 19.1221 11.7384 18.7681 12.1634C18.5701 12.4004 18.2861 12.5234 18.0001 12.5234C17.7741 12.5234 17.5471 12.4464 17.3601 12.2914L11.9891 7.81537ZM11.3732 12.7439C11.7442 12.4449 12.2742 12.4489 12.6402 12.7549L18.6402 17.7549C19.0642 18.1089 19.1212 18.7389 18.7682 19.1629C18.5702 19.4009 18.2862 19.5229 17.9992 19.5229C17.7742 19.5229 17.5472 19.4469 17.3602 19.2909L11.9892 14.8159L6.62725 19.1299C6.19725 19.4769 5.56825 19.4089 5.22125 18.9779C4.87425 18.5479 4.94325 17.9189 5.37325 17.5719L11.3732 12.7439Z" />
</svg>
