<svg width="32" height="32" viewBox="0 0 32 32" xmlns="http://www.w3.org/2000/svg">
<path clip-rule="evenodd" d="M26.7347 8H5.264C4.568 8 4 8.56933 4 9.26533V9.40133C4 10.0973 4.568 10.6667 5.264 10.6667H26.7347C27.4307 10.6667 28 10.0973 28 9.40133V9.26533C28 8.56933 27.4307 8 26.7347 8Z" />
<path clip-rule="evenodd" d="M23.9559 14.6667H8.04329C7.28545 14.6667 6.66699 15.236 6.66699 15.932V16.068C6.66699 16.764 7.28545 17.3333 8.04329 17.3333H23.9559C24.7137 17.3333 25.3337 16.764 25.3337 16.068V15.932C25.3337 15.236 24.7137 14.6667 23.9559 14.6667Z" />
<path clip-rule="evenodd" d="M19.0159 21.3333L12.9831 21.3333C12.4418 21.3333 12 21.9027 12 22.5987V22.7347C12 23.4307 12.4418 24 12.9831 24H19.0159C19.5572 24 20 23.4307 20 22.7347V22.5987C20 21.9027 19.5572 21.3333 19.0159 21.3333Z" />
</svg>
