<svg width="24" height="24" viewBox="0 0 24 24" xmlns="http://www.w3.org/2000/svg">
<path fill-rule="evenodd" clip-rule="evenodd" d="M6.87112 12.7997H12.0001C12.2841 12.7997 12.5551 12.9207 12.7441 13.1317C12.9331 13.3427 13.0241 13.6247 12.9941 13.9067L12.5451 18.0567L17.1291 11.1997H12.0001C11.7161 11.1997 11.4451 11.0787 11.2561 10.8677C11.0661 10.6567 10.9751 10.3747 11.0061 10.0927L11.4551 5.94374L6.87112 12.7997ZM11.1111 22.9997C10.9971 22.9997 10.8821 22.9807 10.7691 22.9397C10.3371 22.7817 10.0671 22.3497 10.1171 21.8927L10.8861 14.7997H5.00012C4.63112 14.7997 4.29212 14.5967 4.11812 14.2717C3.94412 13.9457 3.96412 13.5507 4.16912 13.2437L12.0581 1.44474C12.3131 1.06074 12.7971 0.902737 13.2301 1.06074C13.6631 1.21774 13.9331 1.65074 13.8831 2.10774L13.1141 9.19974H19.0001C19.3691 9.19974 19.7081 9.40374 19.8821 9.72874C20.0561 10.0547 20.0361 10.4487 19.8311 10.7557L11.9421 22.5557C11.7531 22.8397 11.4371 22.9997 11.1111 22.9997Z" />
<path fill-rule="evenodd" clip-rule="evenodd" d="M6.87112 12.7997H12.0001C12.2841 12.7997 12.5551 12.9207 12.7441 13.1317C12.9331 13.3427 13.0241 13.6247 12.9941 13.9067L12.5451 18.0567L17.1291 11.1997H12.0001C11.7161 11.1997 11.4451 11.0787 11.2561 10.8677C11.0661 10.6567 10.9751 10.3747 11.0061 10.0927L11.4551 5.94374L6.87112 12.7997ZM11.1111 22.9997C10.9971 22.9997 10.8821 22.9807 10.7691 22.9397C10.3371 22.7817 10.0671 22.3497 10.1171 21.8927L10.8861 14.7997H5.00012C4.63112 14.7997 4.29212 14.5967 4.11812 14.2717C3.94412 13.9457 3.96412 13.5507 4.16912 13.2437L12.0581 1.44474C12.3131 1.06074 12.7971 0.902737 13.2301 1.06074C13.6631 1.21774 13.9331 1.65074 13.8831 2.10774L13.1141 9.19974H19.0001C19.3691 9.19974 19.7081 9.40374 19.8821 9.72874C20.0561 10.0547 20.0361 10.4487 19.8311 10.7557L11.9421 22.5557C11.7531 22.8397 11.4371 22.9997 11.1111 22.9997Z" />
</svg>
