<svg width="24" height="24" viewBox="0 0 24 24" xmlns="http://www.w3.org/2000/svg">
<path fill-rule="evenodd" clip-rule="evenodd" d="M9.86326 18.0001C9.58726 18.0001 9.32326 17.8861 9.13426 17.6851L4.27126 12.5061C3.89226 12.1041 3.91326 11.4711 4.31526 11.0931C4.71826 10.7151 5.35126 10.7351 5.72826 11.1371L9.85326 15.5281L18.2613 6.32611C18.6353 5.91711 19.2673 5.89011 19.6753 6.26211C20.0823 6.63411 20.1103 7.26711 19.7383 7.67411L10.6013 17.6741C10.4143 17.8801 10.1483 17.9981 9.87026 18.0001H9.86326Z" />
<path fill-rule="evenodd" clip-rule="evenodd" d="M9.86326 18.0001C9.58726 18.0001 9.32326 17.8861 9.13426 17.6851L4.27126 12.5061C3.89226 12.1041 3.91326 11.4711 4.31526 11.0931C4.71826 10.7151 5.35126 10.7351 5.72826 11.1371L9.85326 15.5281L18.2613 6.32611C18.6353 5.91711 19.2673 5.89011 19.6753 6.26211C20.0823 6.63411 20.1103 7.26711 19.7383 7.67411L10.6013 17.6741C10.4143 17.8801 10.1483 17.9981 9.87026 18.0001H9.86326Z" />
</svg>
