<svg width="16" height="16" viewBox="0 0 16 16" xmlns="http://www.w3.org/2000/svg">
<path fill-rule="evenodd" clip-rule="evenodd" d="M1.69749 1.69749C0.666504 2.72847 0.666504 4.3878 0.666504 7.7065V8.29317C0.666504 11.6119 0.666504 13.2712 1.69749 14.3022C2.72847 15.3332 4.3878 15.3332 7.7065 15.3332H7.7065H8.29317H8.29318C11.6119 15.3332 13.2712 15.3332 14.3022 14.3022C15.3332 13.2712 15.3332 11.6119 15.3332 8.29318V8.29317V7.7065V7.7065C15.3332 4.3878 15.3332 2.72847 14.3022 1.69749C13.2712 0.666504 11.6119 0.666504 8.29317 0.666504H7.7065C4.3878 0.666504 2.72847 0.666504 1.69749 1.69749ZM3.14152 5.12758C3.22097 8.94091 5.1276 11.2326 8.47038 11.2326H8.65989V9.05091C9.88822 9.17314 10.817 10.0715 11.1898 11.2326H12.9254C12.4487 9.49703 11.1959 8.53758 10.4137 8.17091C11.1959 7.71869 12.2959 6.61869 12.5587 5.12758H10.982C10.6398 6.33758 9.62544 7.43758 8.65989 7.54147V5.12758H7.08316V9.35647C6.10538 9.11203 4.87097 7.92647 4.81597 5.12758H3.14152Z"/>
</svg>
