<svg width="16" height="17" viewBox="0 0 16 17" xmlns="http://www.w3.org/2000/svg">
<path clip-rule="evenodd" d="M7.33301 5.83337C7.33301 5.46537 7.63167 5.16671 7.99967 5.16671C8.36767 5.16671 8.66634 5.46537 8.66634 5.83337C8.66634 6.20137 8.36767 6.50004 7.99967 6.50004C7.63167 6.50004 7.33301 6.20137 7.33301 5.83337ZM7.33301 7.83337C7.33301 7.46537 7.63167 7.16671 7.99967 7.16671C8.36767 7.16671 8.66634 7.46537 8.66634 7.83337V11.1667C8.66634 11.5347 8.36767 11.8334 7.99967 11.8334C7.63167 11.8334 7.33301 11.5347 7.33301 11.1667V7.83337ZM7.99967 13.8334C5.05901 13.8334 2.66634 11.4407 2.66634 8.50004C2.66634 5.55937 5.05901 3.16671 7.99967 3.16671C10.9403 3.16671 13.333 5.55937 13.333 8.50004C13.333 11.4407 10.9403 13.8334 7.99967 13.8334ZM7.99967 1.83337C4.31767 1.83337 1.33301 4.81804 1.33301 8.50004C1.33301 12.182 4.31767 15.1667 7.99967 15.1667C11.681 15.1667 14.6663 12.182 14.6663 8.50004C14.6663 4.81804 11.681 1.83337 7.99967 1.83337Z" />
<mask id="mask0_7041_25055" style="mask-type:luminance" maskUnits="userSpaceOnUse" x="1" y="1" width="14" height="15">
<path clip-rule="evenodd" d="M7.33301 5.83337C7.33301 5.46537 7.63167 5.16671 7.99967 5.16671C8.36767 5.16671 8.66634 5.46537 8.66634 5.83337C8.66634 6.20137 8.36767 6.50004 7.99967 6.50004C7.63167 6.50004 7.33301 6.20137 7.33301 5.83337ZM7.33301 7.83337C7.33301 7.46537 7.63167 7.16671 7.99967 7.16671C8.36767 7.16671 8.66634 7.46537 8.66634 7.83337V11.1667C8.66634 11.5347 8.36767 11.8334 7.99967 11.8334C7.63167 11.8334 7.33301 11.5347 7.33301 11.1667V7.83337ZM7.99967 13.8334C5.05901 13.8334 2.66634 11.4407 2.66634 8.50004C2.66634 5.55937 5.05901 3.16671 7.99967 3.16671C10.9403 3.16671 13.333 5.55937 13.333 8.50004C13.333 11.4407 10.9403 13.8334 7.99967 13.8334ZM7.99967 1.83337C4.31767 1.83337 1.33301 4.81804 1.33301 8.50004C1.33301 12.182 4.31767 15.1667 7.99967 15.1667C11.681 15.1667 14.6663 12.182 14.6663 8.50004C14.6663 4.81804 11.681 1.83337 7.99967 1.83337Z" />
</mask>
</svg>
