<svg width="24" height="24" viewBox="0 0 24 24" xmlns="http://www.w3.org/2000/svg">
<path clip-rule="evenodd" d="M13.8287 19C13.5367 19 13.2467 18.873 13.0487 18.627L8.22066 12.627C7.92266 12.256 7.92666 11.726 8.23166 11.36L13.2317 5.35999C13.5847 4.93599 14.2157 4.87899 14.6407 5.23199C15.0647 5.58499 15.1217 6.21599 14.7677 6.63999L10.2927 12.011L14.6077 17.373C14.9537 17.803 14.8857 18.433 14.4547 18.779C14.2707 18.928 14.0487 19 13.8287 19Z" />
<mask id="mask0_6565_9077" style="mask-type:luminance" maskUnits="userSpaceOnUse" x="8" y="5" width="7" height="14">
<path clip-rule="evenodd" d="M13.8287 19C13.5367 19 13.2467 18.873 13.0487 18.627L8.22066 12.627C7.92266 12.256 7.92666 11.726 8.23166 11.36L13.2317 5.35999C13.5847 4.93599 14.2157 4.87899 14.6407 5.23199C15.0647 5.58499 15.1217 6.21599 14.7677 6.63999L10.2927 12.011L14.6077 17.373C14.9537 17.803 14.8857 18.433 14.4547 18.779C14.2707 18.928 14.0487 19 13.8287 19Z" />
</mask>
</svg>
