<svg width="16" height="16" viewBox="0 0 16 16" xmlns="http://www.w3.org/2000/svg">
<path clip-rule="evenodd" d="M12.4601 10.6419L8.66672 12.4046V7.92727L12.6667 6.06927V10.3593C12.6667 10.4753 12.5881 10.5833 12.4601 10.6419ZM3.53539 10.6426C3.40939 10.5839 3.33206 10.4759 3.33339 10.3546V6.06927L7.33339 7.92727V12.4059L3.53539 10.6426ZM7.80472 3.37593C7.86539 3.34727 7.93272 3.33327 8.00006 3.33327C8.06672 3.33327 8.13406 3.34727 8.19472 3.37593L11.7474 5.02527L8.00006 6.7666L4.25205 5.02527L7.80472 3.37593ZM13.7707 4.83927C13.7687 4.83393 13.7694 4.82793 13.7667 4.8226C13.7647 4.81727 13.7594 4.81393 13.7561 4.8086C13.7254 4.75793 13.6881 4.71327 13.6527 4.6666C13.6321 4.64393 13.6154 4.6186 13.5927 4.59927C13.4361 4.41527 13.2514 4.25327 13.0221 4.14727L8.75539 2.16527C8.75472 2.16527 8.75406 2.16527 8.75406 2.1646C8.27472 1.94327 7.72472 1.94393 7.24406 2.16527L2.97939 4.1466C2.75006 4.2526 2.56472 4.41393 2.40806 4.59793C2.38339 4.6186 2.36539 4.6466 2.34339 4.67127C2.30872 4.71593 2.27339 4.75927 2.24406 4.80727C2.24072 4.81327 2.23539 4.81727 2.23272 4.8226C2.23006 4.8286 2.23072 4.8346 2.22806 4.8406C2.08739 5.08193 2.00006 5.35327 2.00006 5.6386V10.3499C1.99472 10.9833 2.37606 11.5726 2.97206 11.8513L7.23806 13.8326C7.47939 13.9453 7.73806 14.0013 7.99739 14.0013C8.25606 14.0013 8.51472 13.9453 8.75539 13.8333L13.0201 11.8519C13.6147 11.5773 13.9994 10.9919 14.0001 10.3599V5.63793C13.9994 5.3526 13.9121 5.08127 13.7707 4.83927Z" />
<mask id="mask0_7160_3783" style="mask-type:luminance" maskUnits="userSpaceOnUse" x="2" y="1" width="12" height="14">
<path clip-rule="evenodd" d="M12.4601 10.6419L8.66672 12.4046V7.92727L12.6667 6.06927V10.3593C12.6667 10.4753 12.5881 10.5833 12.4601 10.6419ZM3.53539 10.6426C3.40939 10.5839 3.33206 10.4759 3.33339 10.3546V6.06927L7.33339 7.92727V12.4059L3.53539 10.6426ZM7.80472 3.37593C7.86539 3.34727 7.93272 3.33327 8.00006 3.33327C8.06672 3.33327 8.13406 3.34727 8.19472 3.37593L11.7474 5.02527L8.00006 6.7666L4.25205 5.02527L7.80472 3.37593ZM13.7707 4.83927C13.7687 4.83393 13.7694 4.82793 13.7667 4.8226C13.7647 4.81727 13.7594 4.81393 13.7561 4.8086C13.7254 4.75793 13.6881 4.71327 13.6527 4.6666C13.6321 4.64393 13.6154 4.6186 13.5927 4.59927C13.4361 4.41527 13.2514 4.25327 13.0221 4.14727L8.75539 2.16527C8.75472 2.16527 8.75406 2.16527 8.75406 2.1646C8.27472 1.94327 7.72472 1.94393 7.24406 2.16527L2.97939 4.1466C2.75006 4.2526 2.56472 4.41393 2.40806 4.59793C2.38339 4.6186 2.36539 4.6466 2.34339 4.67127C2.30872 4.71593 2.27339 4.75927 2.24406 4.80727C2.24072 4.81327 2.23539 4.81727 2.23272 4.8226C2.23006 4.8286 2.23072 4.8346 2.22806 4.8406C2.08739 5.08193 2.00006 5.35327 2.00006 5.6386V10.3499C1.99472 10.9833 2.37606 11.5726 2.97206 11.8513L7.23806 13.8326C7.47939 13.9453 7.73806 14.0013 7.99739 14.0013C8.25606 14.0013 8.51472 13.9453 8.75539 13.8333L13.0201 11.8519C13.6147 11.5773 13.9994 10.9919 14.0001 10.3599V5.63793C13.9994 5.3526 13.9121 5.08127 13.7707 4.83927ZM11.2127 4.11907L5.54602 6.78573L5.12022 5.88091L10.7869 3.21425L11.2127 4.11907Z" />
</mask>
</svg>
