<svg width="16" height="16" viewBox="0 0 16 16"  xmlns="http://www.w3.org/2000/svg">
<path clip-rule="evenodd" d="M7.33555 8.0506C7.3343 8.0339 7.33366 8.01702 7.33366 8V2.66667C7.33366 2.29867 7.63166 2 8.00033 2C8.36899 2 8.66699 2.29867 8.66699 2.66667V7.99988L10.267 6.8C10.5617 6.578 10.9797 6.63867 11.2003 6.93333C11.4217 7.228 11.3617 7.646 11.067 7.86667L8.40033 9.86667C8.28233 9.95533 8.14099 10 8.00033 10C7.86633 10 7.73233 9.95933 7.61699 9.87867L4.95033 8.00267C4.64899 7.79067 4.57633 7.37467 4.78833 7.074C5.00033 6.77267 5.41566 6.7 5.71699 6.912L7.33555 8.0506ZM4.00033 11.3333V12H12.0003V11.3333C12.0003 10.9667 12.3003 10.6667 12.667 10.6667C13.0337 10.6667 13.3337 10.9667 13.3337 11.3333V12.6667C13.3337 13.0333 13.0337 13.3333 12.667 13.3333H3.33366C2.96699 13.3333 2.66699 13.0333 2.66699 12.6667V11.3333C2.66699 10.9667 2.96699 10.6667 3.33366 10.6667C3.70033 10.6667 4.00033 10.9667 4.00033 11.3333Z" />
<path clip-rule="evenodd" d="M7.33555 8.0506C7.3343 8.0339 7.33366 8.01702 7.33366 8V2.66667C7.33366 2.29867 7.63166 2 8.00033 2C8.36899 2 8.66699 2.29867 8.66699 2.66667V7.99988L10.267 6.8C10.5617 6.578 10.9797 6.63867 11.2003 6.93333C11.4217 7.228 11.3617 7.646 11.067 7.86667L8.40033 9.86667C8.28233 9.95533 8.14099 10 8.00033 10C7.86633 10 7.73233 9.95933 7.61699 9.87867L4.95033 8.00267C4.64899 7.79067 4.57633 7.37467 4.78833 7.074C5.00033 6.77267 5.41566 6.7 5.71699 6.912L7.33555 8.0506ZM4.00033 11.3333V12H12.0003V11.3333C12.0003 10.9667 12.3003 10.6667 12.667 10.6667C13.0337 10.6667 13.3337 10.9667 13.3337 11.3333V12.6667C13.3337 13.0333 13.0337 13.3333 12.667 13.3333H3.33366C2.96699 13.3333 2.66699 13.0333 2.66699 12.6667V11.3333C2.66699 10.9667 2.96699 10.6667 3.33366 10.6667C3.70033 10.6667 4.00033 10.9667 4.00033 11.3333Z" />
</svg>
