<svg fill="white" width="16" height="16" viewBox="0 0 16 16" xmlns="http://www.w3.org/2000/svg">
<path clip-rule="evenodd" d="M7.04044 5.62634C7.43111 6.01634 7.43111 6.65034 7.04044 7.04034C6.64978 7.431 6.01711 7.431 5.62644 7.04034C5.23578 6.65034 5.23578 6.01634 5.62644 5.62634C6.01711 5.23567 6.64978 5.23567 7.04044 5.62634ZM3.88944 8.5944L7.91078 12.6164L12.6161 7.91107L8.59478 3.88907L3.40478 3.40507L3.88944 8.5944ZM7.91078 13.9991C7.60078 13.9991 7.29145 13.8811 7.05478 13.6457L2.77678 9.36707C2.66678 9.25774 2.59878 9.1124 2.58411 8.95774L2.00278 2.7284C1.98478 2.53107 2.05478 2.33574 2.19545 2.19507C2.33611 2.0544 2.53078 1.98307 2.72878 2.00307L8.95811 2.5844C9.11278 2.5984 9.25745 2.6664 9.36745 2.7764L13.6454 7.0544C13.8741 7.28307 14.0001 7.58707 14.0001 7.91107C14.0001 8.23507 13.8741 8.53907 13.6454 8.76774L8.76745 13.6451C8.53145 13.8811 8.22145 13.9991 7.91078 13.9991Z" />
<mask id="mask0_7160_6673" style="mask-type:luminance" maskUnits="userSpaceOnUse" x="2" y="1" width="12" height="13">
<path clip-rule="evenodd" d="M7.04044 5.62634C7.43111 6.01634 7.43111 6.65034 7.04044 7.04034C6.64978 7.431 6.01711 7.431 5.62644 7.04034C5.23578 6.65034 5.23578 6.01634 5.62644 5.62634C6.01711 5.23567 6.64978 5.23567 7.04044 5.62634ZM3.88944 8.5944L7.91078 12.6164L12.6161 7.91107L8.59478 3.88907L3.40478 3.40507L3.88944 8.5944ZM7.91078 13.9991C7.60078 13.9991 7.29145 13.8811 7.05478 13.6457L2.77678 9.36707C2.66678 9.25774 2.59878 9.1124 2.58411 8.95774L2.00278 2.7284C1.98478 2.53107 2.05478 2.33574 2.19545 2.19507C2.33611 2.0544 2.53078 1.98307 2.72878 2.00307L8.95811 2.5844C9.11278 2.5984 9.25745 2.6664 9.36745 2.7764L13.6454 7.0544C13.8741 7.28307 14.0001 7.58707 14.0001 7.91107C14.0001 8.23507 13.8741 8.53907 13.6454 8.76774L8.76745 13.6451C8.53145 13.8811 8.22145 13.9991 7.91078 13.9991Z" />
</mask>
</svg>
