<svg fill="white" width="16" height="16" viewBox="0 0 16 16" xmlns="http://www.w3.org/2000/svg">
<path clip-rule="evenodd" d="M4 3.33333C3.63267 3.33333 3.33333 3.63267 3.33333 4V12C3.33333 12.3673 3.63267 12.6667 4 12.6667H12C12.3673 12.6667 12.6667 12.3673 12.6667 12V4C12.6667 3.63267 12.3673 3.33333 12 3.33333H4ZM12 14H4C2.89733 14 2 13.1027 2 12V4C2 2.89733 2.89733 2 4 2H12C13.1027 2 14 2.89733 14 4V12C14 13.1027 13.1027 14 12 14Z" />
<path clip-rule="evenodd" d="M5.99967 10.6667C5.63101 10.6667 5.33301 10.3687 5.33301 10C5.33301 9.63134 5.63101 9.33334 5.99967 9.33334C6.36834 9.33334 6.66634 9.63134 6.66634 10C6.66634 10.3687 6.36834 10.6667 5.99967 10.6667Z" />
<path  clip-rule="evenodd" d="M9.99967 9.33334C10.3683 9.33334 10.6663 9.63134 10.6663 10C10.6663 10.3687 10.3683 10.6667 9.99967 10.6667C9.63101 10.6667 9.33301 10.3687 9.33301 10C9.33301 9.63134 9.63101 9.33334 9.99967 9.33334Z" />
<path clip-rule="evenodd" d="M9.99967 6.66668C9.63101 6.66668 9.33301 6.36801 9.33301 6.00001C9.33301 5.63134 9.63101 5.33334 9.99967 5.33334C10.3683 5.33334 10.6663 5.63134 10.6663 6.00001C10.6663 6.36801 10.3683 6.66668 9.99967 6.66668Z" />
<path  clip-rule="evenodd" d="M5.99967 6.66668C5.63101 6.66668 5.33301 6.36868 5.33301 6.00001C5.33301 5.63134 5.63101 5.33334 5.99967 5.33334C6.36834 5.33334 6.66634 5.63134 6.66634 6.00001C6.66634 6.36868 6.36834 6.66668 5.99967 6.66668Z" />
<mask id="mask0_7160_33060" style="mask-type:luminance" maskUnits="userSpaceOnUse" x="2" y="2" width="12" height="12">
<path clip-rule="evenodd" d="M4 3.33333C3.63267 3.33333 3.33333 3.63267 3.33333 4V12C3.33333 12.3673 3.63267 12.6667 4 12.6667H12C12.3673 12.6667 12.6667 12.3673 12.6667 12V4C12.6667 3.63267 12.3673 3.33333 12 3.33333H4ZM12 14H4C2.89733 14 2 13.1027 2 12V4C2 2.89733 2.89733 2 4 2H12C13.1027 2 14 2.89733 14 4V12C14 13.1027 13.1027 14 12 14Z" />
</mask>
</svg>
