<svg width="24" height="25" viewBox="0 0 24 25" xmlns="http://www.w3.org/2000/svg">
<path clip-rule="evenodd" d="M13.9997 13.2615H12.9997V12.2615C12.9997 11.7095 12.5527 11.2615 11.9997 11.2615C11.4467 11.2615 10.9997 11.7095 10.9997 12.2615V13.2615H9.9997C9.4467 13.2615 8.9997 13.7095 8.9997 14.2615C8.9997 14.8135 9.4467 15.2615 9.9997 15.2615H10.9997V16.2615C10.9997 16.8135 11.4467 17.2615 11.9997 17.2615C12.5527 17.2615 12.9997 16.8135 12.9997 16.2615V15.2615H13.9997C14.5527 15.2615 14.9997 14.8135 14.9997 14.2615C14.9997 13.7095 14.5527 13.2615 13.9997 13.2615ZM17.444 20.2615H6.555C6.249 20.2615 6 20.0375 6 19.7615V4.76147C6 4.48547 6.249 4.26147 6.555 4.26147H12V7.41147C12 8.98347 13.217 10.2615 14.714 10.2615H18V19.7615C18 20.0375 17.751 20.2615 17.444 20.2615ZM14 5.23947L16.742 8.26147H14.714C14.32 8.26147 14 7.88047 14 7.41147V5.23947ZM19.74 8.58947L14.296 2.58947C14.106 2.38047 13.838 2.26147 13.555 2.26147H6.555C5.146 2.26147 4 3.38347 4 4.76147V19.7615C4 21.1395 5.146 22.2615 6.555 22.2615H17.444C18.853 22.2615 20 21.1395 20 19.7615V9.26147C20 9.01247 19.907 8.77347 19.74 8.58947Z" />
<path clip-rule="evenodd" d="M13.9997 13.2615H12.9997V12.2615C12.9997 11.7095 12.5527 11.2615 11.9997 11.2615C11.4467 11.2615 10.9997 11.7095 10.9997 12.2615V13.2615H9.9997C9.4467 13.2615 8.9997 13.7095 8.9997 14.2615C8.9997 14.8135 9.4467 15.2615 9.9997 15.2615H10.9997V16.2615C10.9997 16.8135 11.4467 17.2615 11.9997 17.2615C12.5527 17.2615 12.9997 16.8135 12.9997 16.2615V15.2615H13.9997C14.5527 15.2615 14.9997 14.8135 14.9997 14.2615C14.9997 13.7095 14.5527 13.2615 13.9997 13.2615ZM17.444 20.2615H6.555C6.249 20.2615 6 20.0375 6 19.7615V4.76147C6 4.48547 6.249 4.26147 6.555 4.26147H12V7.41147C12 8.98347 13.217 10.2615 14.714 10.2615H18V19.7615C18 20.0375 17.751 20.2615 17.444 20.2615ZM14 5.23947L16.742 8.26147H14.714C14.32 8.26147 14 7.88047 14 7.41147V5.23947ZM19.74 8.58947L14.296 2.58947C14.106 2.38047 13.838 2.26147 13.555 2.26147H6.555C5.146 2.26147 4 3.38347 4 4.76147V19.7615C4 21.1395 5.146 22.2615 6.555 22.2615H17.444C18.853 22.2615 20 21.1395 20 19.7615V9.26147C20 9.01247 19.907 8.77347 19.74 8.58947Z" />
</svg>
