<svg width="24" height="25" viewBox="0 0 24 25" xmlns="http://www.w3.org/2000/svg">
<path clip-rule="evenodd" d="M12 11.9756C11.173 11.9756 10.5 11.3026 10.5 10.4756C10.5 9.64857 11.173 8.97557 12 8.97557C12.827 8.97557 13.5 9.64857 13.5 10.4756C13.5 11.3026 12.827 11.9756 12 11.9756ZM12 6.97557C10.07 6.97557 8.5 8.54557 8.5 10.4756C8.5 12.4056 10.07 13.9756 12 13.9756C13.93 13.9756 15.5 12.4056 15.5 10.4756C15.5 8.54557 13.93 6.97557 12 6.97557ZM12 20.6221C10.325 19.0381 6 14.5911 6 10.8981C6 7.63307 8.691 4.97607 12 4.97607C15.309 4.97607 18 7.63307 18 10.8981C18 14.5911 13.675 19.0381 12 20.6221ZM12 2.97607C7.589 2.97607 4 6.52907 4 10.8981C4 16.3731 11.049 22.4771 11.349 22.7341C11.537 22.8951 11.768 22.9761 12 22.9761C12.232 22.9761 12.463 22.8951 12.651 22.7341C12.951 22.4771 20 16.3731 20 10.8981C20 6.52907 16.411 2.97607 12 2.97607Z" />
<path clip-rule="evenodd" d="M12 11.9756C11.173 11.9756 10.5 11.3026 10.5 10.4756C10.5 9.64857 11.173 8.97557 12 8.97557C12.827 8.97557 13.5 9.64857 13.5 10.4756C13.5 11.3026 12.827 11.9756 12 11.9756ZM12 6.97557C10.07 6.97557 8.5 8.54557 8.5 10.4756C8.5 12.4056 10.07 13.9756 12 13.9756C13.93 13.9756 15.5 12.4056 15.5 10.4756C15.5 8.54557 13.93 6.97557 12 6.97557ZM12 20.6221C10.325 19.0381 6 14.5911 6 10.8981C6 7.63307 8.691 4.97607 12 4.97607C15.309 4.97607 18 7.63307 18 10.8981C18 14.5911 13.675 19.0381 12 20.6221ZM12 2.97607C7.589 2.97607 4 6.52907 4 10.8981C4 16.3731 11.049 22.4771 11.349 22.7341C11.537 22.8951 11.768 22.9761 12 22.9761C12.232 22.9761 12.463 22.8951 12.651 22.7341C12.951 22.4771 20 16.3731 20 10.8981C20 6.52907 16.411 2.97607 12 2.97607Z" />
</svg>
