<svg width="25" height="24" viewBox="0 0 25 24" xmlns="http://www.w3.org/2000/svg">
<path clip-rule="evenodd" d="M16.5189 10.6787L13.8239 7.98367L15.7719 6.03467L18.4659 8.72867L16.5189 10.6787ZM9.5799 17.6247L6.6029 17.8957L6.8669 14.9397L12.4839 9.32267L15.1799 12.0187L9.5799 17.6247ZM19.9039 7.33767L19.9029 7.33667L17.1649 4.59867C16.4239 3.85967 15.1509 3.82467 14.4489 4.52967L5.4529 13.5257C5.1269 13.8507 4.9249 14.2827 4.8829 14.7397L4.5039 18.9097C4.4779 19.2047 4.5829 19.4967 4.7929 19.7067C4.9819 19.8957 5.2369 19.9997 5.4999 19.9997C5.5309 19.9997 5.5609 19.9987 5.5909 19.9957L9.7609 19.6167C10.2189 19.5747 10.6499 19.3737 10.9749 19.0487L19.9719 10.0517C20.6999 9.32167 20.6689 8.10367 19.9039 7.33767Z" />
<path clip-rule="evenodd" d="M16.5189 10.6787L13.8239 7.98367L15.7719 6.03467L18.4659 8.72867L16.5189 10.6787ZM9.5799 17.6247L6.6029 17.8957L6.8669 14.9397L12.4839 9.32267L15.1799 12.0187L9.5799 17.6247ZM19.9039 7.33767L19.9029 7.33667L17.1649 4.59867C16.4239 3.85967 15.1509 3.82467 14.4489 4.52967L5.4529 13.5257C5.1269 13.8507 4.9249 14.2827 4.8829 14.7397L4.5039 18.9097C4.4779 19.2047 4.5829 19.4967 4.7929 19.7067C4.9819 19.8957 5.2369 19.9997 5.4999 19.9997C5.5309 19.9997 5.5609 19.9987 5.5909 19.9957L9.7609 19.6167C10.2189 19.5747 10.6499 19.3737 10.9749 19.0487L19.9719 10.0517C20.6999 9.32167 20.6689 8.10367 19.9039 7.33767Z" />
</svg>
