<svg width="24" height="24" viewBox="0 0 24 24" xmlns="http://www.w3.org/2000/svg">
<path clip-rule="evenodd" d="M18.2613 13H5.7373C5.33132 13 5 13.427 5 13.949V14.051C5 14.573 5.33132 15 5.7373 15H18.2613C18.6673 15 18.9994 14.573 18.9994 14.051V13.949C18.9994 13.427 18.6673 13 18.2613 13Z" />
<path clip-rule="evenodd" d="M18.2613 5H5.7373C5.33132 5 5 5.427 5 5.949V6.051C5 6.573 5.33132 7 5.7373 7H18.2613C18.6673 7 18.9994 6.573 18.9994 6.051V5.949C18.9994 5.427 18.6673 5 18.2613 5Z" />
<path clip-rule="evenodd" d="M18.2613 17H5.7373C5.33132 17 5 17.427 5 17.949V18.051C5 18.573 5.33132 19 5.7373 19H18.2613C18.6673 19 18.9994 18.573 18.9994 18.051V17.949C18.9994 17.427 18.6673 17 18.2613 17Z" />
<path  clip-rule="evenodd" d="M18.2613 9H5.7373C5.33132 9 5 9.427 5 9.949V10.051C5 10.573 5.33132 11 5.7373 11H18.2613C18.6673 11 18.9994 10.573 18.9994 10.051V9.949C18.9994 9.427 18.6673 9 18.2613 9Z" />
</svg>
