<svg width="16" height="16" viewBox="0 0 16 16" xmlns="http://www.w3.org/2000/svg">
<path d="M5.3477 15.1668C11.7624 15.1668 15.2682 9.71805 15.2682 4.99439C15.2682 4.83809 15.264 4.68613 15.2598 4.53417C15.9415 4.03055 16.5342 3.40102 17 2.68465C16.3734 2.9712 15.7044 3.16223 14.9973 3.24906C15.7171 2.80621 16.2717 2.10722 16.53 1.26929C15.8568 1.6774 15.1116 1.97697 14.3156 2.13761C13.6804 1.44295 12.7743 1.00879 11.7709 1.00879C9.84433 1.00879 8.28194 2.61084 8.28194 4.58627C8.28194 4.86848 8.31158 5.13766 8.37086 5.4025C5.47472 5.24186 2.90461 3.81781 1.18132 1.65569C0.880697 2.18536 0.707098 2.79753 0.707098 3.45311C0.707098 4.69481 1.32105 5.7889 2.26102 6.43146C1.68941 6.41409 1.15168 6.25345 0.681694 5.98427C0.681694 5.9973 0.681694 6.01466 0.681694 6.03203C0.681694 7.76433 1.88418 9.21009 3.48045 9.53571C3.18829 9.6182 2.8792 9.66161 2.56164 9.66161C2.33724 9.66161 2.11706 9.63991 1.90535 9.59649C2.34994 11.0162 3.63711 12.0495 5.1614 12.0799C3.96737 13.0394 2.46426 13.6125 0.829888 13.6125C0.550436 13.6125 0.270984 13.5951 0 13.5647C1.54545 14.572 3.3746 15.1668 5.3477 15.1668Z" />
</svg>
