<svg width="24" height="25" viewBox="0 0 24 25" xmlns="http://www.w3.org/2000/svg">
<path clip-rule="evenodd" d="M12 16C11.173 16 10.5 15.327 10.5 14.5C10.5 13.673 11.173 13 12 13C12.827 13 13.5 13.673 13.5 14.5C13.5 15.327 12.827 16 12 16ZM12 11C10.07 11 8.5 12.57 8.5 14.5C8.5 16.43 10.07 18 12 18C13.93 18 15.5 16.43 15.5 14.5C15.5 12.57 13.93 11 12 11ZM20 18.5C20 19.051 19.552 19.5 19 19.5H5C4.448 19.5 4 19.051 4 18.5V10.5C4 9.949 4.448 9.5 5 9.5H19C19.552 9.5 20 9.949 20 10.5V18.5ZM10 6C10 5.724 10.225 5.5 10.5 5.5H13.5C13.775 5.5 14 5.724 14 6V7.5H10V6ZM19 7.5H16V6C16 4.622 14.879 3.5 13.5 3.5H10.5C9.121 3.5 8 4.622 8 6V7.5H5C3.346 7.5 2 8.846 2 10.5V18.5C2 20.154 3.346 21.5 5 21.5H19C20.654 21.5 22 20.154 22 18.5V10.5C22 8.846 20.654 7.5 19 7.5Z" />
<mask id="mask0_7121_19832" style="mask-type:luminance" maskUnits="userSpaceOnUse" x="2" y="3" width="20" height="19">
<path  clip-rule="evenodd" d="M12 16C11.173 16 10.5 15.327 10.5 14.5C10.5 13.673 11.173 13 12 13C12.827 13 13.5 13.673 13.5 14.5C13.5 15.327 12.827 16 12 16ZM12 11C10.07 11 8.5 12.57 8.5 14.5C8.5 16.43 10.07 18 12 18C13.93 18 15.5 16.43 15.5 14.5C15.5 12.57 13.93 11 12 11ZM20 18.5C20 19.051 19.552 19.5 19 19.5H5C4.448 19.5 4 19.051 4 18.5V10.5C4 9.949 4.448 9.5 5 9.5H19C19.552 9.5 20 9.949 20 10.5V18.5ZM10 6C10 5.724 10.225 5.5 10.5 5.5H13.5C13.775 5.5 14 5.724 14 6V7.5H10V6ZM19 7.5H16V6C16 4.622 14.879 3.5 13.5 3.5H10.5C9.121 3.5 8 4.622 8 6V7.5H5C3.346 7.5 2 8.846 2 10.5V18.5C2 20.154 3.346 21.5 5 21.5H19C20.654 21.5 22 20.154 22 18.5V10.5C22 8.846 20.654 7.5 19 7.5Z" />
</mask>
</svg>
