<svg width="16" height="16" viewBox="0 0 16 16" xmlns="http://www.w3.org/2000/svg">
<path d="M14.3865 4.72418C14.235 4.17937 13.7805 3.74927 13.2047 3.59873C12.1668 3.3335 8.00016 3.3335 8.00016 3.3335C8.00016 3.3335 3.8335 3.3335 2.78804 3.59873C2.21228 3.7421 1.76531 4.17221 1.60622 4.72418C1.3335 5.71342 1.3335 7.77794 1.3335 7.77794C1.3335 7.77794 1.3335 9.84246 1.6138 10.8317C1.76531 11.3765 2.21986 11.8066 2.79562 11.9572C3.8335 12.2224 8.00016 12.2224 8.00016 12.2224C8.00016 12.2224 12.1668 12.2224 13.2123 11.9572C13.788 11.8138 14.235 11.3837 14.3941 10.8317C14.6668 9.84246 14.6668 7.77794 14.6668 7.77794C14.6668 7.77794 14.6668 5.71342 14.3865 4.72418ZM6.63653 9.65608V5.8998L10.1214 7.77794L6.63653 9.65608Z" />
</svg>
