<svg width="66" height="56" viewBox="0 0 66 56" fill="none" xmlns="http://www.w3.org/2000/svg">
<g clip-path="url(#clip0_1_10480)">
<path fill-rule="evenodd" clip-rule="evenodd" d="M64.2083 30.5747H25.8821L27.4405 37.4773H64.2083V30.5747Z" fill="#B5CAFF"/>
<path fill-rule="evenodd" clip-rule="evenodd" d="M25.87 48.1911C25.9739 49.6901 21.3794 53.4319 15.5035 53.8154C9.62758 54.1989 6.16437 53.6527 6.16437 52.142C6.16437 47.459 11.5208 47.9238 15.0186 46.9477C26.5973 43.7172 25.7661 46.6804 25.87 48.1911Z" fill="#B5CAFF"/>
<path d="M61.2754 0.500732H16.7731C14.3143 0.500732 12.3171 2.51108 12.3171 4.98626V25.4384C12.3171 27.9136 14.0487 26.9491 14.0487 25.4384V4.98626C14.0487 3.47559 15.2724 2.24381 16.7731 2.24381H61.2754C62.7761 2.24381 63.9998 3.47559 63.9998 4.98626V34.2003C63.9998 35.711 62.7761 36.9427 61.2754 36.9427H26.5394C26.7818 37.4192 26.7125 38.0234 26.3778 38.4302C26.3778 38.5115 26.3547 38.5928 26.3316 38.6858H61.2754C63.7343 38.6858 65.7314 36.6755 65.7314 34.2003V4.98626C65.7314 2.51108 63.7343 0.500732 61.2754 0.500732Z" fill="#1551E5"/>
<path d="M13.7374 40.2316C6.03753 40.2316 0 36.9778 0 32.8293C0 28.6808 6.03753 25.427 13.7374 25.427C21.4373 25.427 27.4748 28.6808 27.4748 32.8293C27.4748 36.9778 21.4373 40.2316 13.7374 40.2316ZM13.7374 27.1817C7.22656 27.1817 1.7316 29.7731 1.7316 32.8409C1.7316 35.9087 7.22656 38.5001 13.7374 38.5001C20.2482 38.5001 25.7432 35.9087 25.7432 32.8409C25.7432 29.7731 20.2482 27.1817 13.7374 27.1817Z" fill="#1551E5"/>
<path d="M13.7374 55.5006C6.61473 55.5006 1.40837 52.5722 0.103896 49.0279C0.0577202 48.9001 0 48.7723 0 48.6212V32.8405C0 32.3641 0.392497 31.969 0.865802 31.969C1.33911 31.969 1.7316 32.3641 1.7316 32.8405V40.4752C1.7316 43.543 7.22656 46.1344 13.7374 46.1344C20.6061 46.1344 25.7432 42.8458 25.7432 39.9058C25.7432 39.4294 26.1357 39.0343 26.609 39.0343C27.0823 39.0343 27.4748 39.4294 27.4748 39.9058V47.5405C27.4748 51.8634 21.1833 55.5122 13.7374 55.5122V55.5006ZM1.7316 48.0983C1.7316 51.1661 7.22656 53.7575 13.7374 53.7575C20.6061 53.7575 25.7432 50.4689 25.7432 47.5289V43.7057C23.3767 46.1577 18.8283 47.8659 13.7374 47.8659C8.64648 47.8659 4.0635 46.3668 1.7316 44.1125V48.0983Z" fill="#1551E5"/>
<path d="M26.609 49.4813C26.1357 49.4813 25.7432 49.0862 25.7432 48.6098V32.8291C25.7432 32.3526 26.1357 31.9575 26.609 31.9575C27.0823 31.9575 27.4748 32.3526 27.4748 32.8291V47.0642C27.4748 47.5407 27.0823 49.4813 26.609 49.4813Z" fill="#1551E5"/>
<path d="M27.7288 12.644C29.6798 12.644 31.2613 11.052 31.2613 9.08811C31.2613 7.12425 29.6798 5.53223 27.7288 5.53223C25.7779 5.53223 24.1964 7.12425 24.1964 9.08811C24.1964 11.052 25.7779 12.644 27.7288 12.644Z" fill="#FF0217"/>
<path d="M32.1378 19.9303L13.6327 11.3079L13.9213 9.51831L31.7222 17.8154L38.3946 10.6687L39.6529 11.854L32.1378 19.9303Z" fill="#1551E5"/>
<path d="M44.8939 30.2605L21.8981 20.1972L15.6528 26.9022L14.3945 25.7053L21.471 18.1055L45.5865 28.6569L44.8939 30.2605Z" fill="#1551E5"/>
</g>
<defs>
<clipPath id="clip0_1_10480">
<rect width="65.7317" height="55" fill="white" transform="translate(0 0.5)"/>
</clipPath>
</defs>
</svg>
