<svg width="66" height="56" viewBox="0 0 66 56" fill="none" xmlns="http://www.w3.org/2000/svg">
<g clip-path="url(#clip0_1_10567)">
<path fill-rule="evenodd" clip-rule="evenodd" d="M32.1461 38.434L34.6253 32.8981C34.8841 32.403 35.4992 32.2493 35.9455 32.5718L36.1818 32.7406C36.4443 32.9281 36.5944 33.2469 36.5794 33.577L36.4368 36.9863C36.4181 37.3989 36.1518 37.7514 35.773 37.8639L33.9839 38.3965C33.4063 38.5691 32.1611 39.0604 32.1461 38.434Z" fill="#B5CAFF"/>
<path d="M29.4077 35.0379C29.3255 35.0379 29.2433 35.0379 29.1729 35.0027L0.645685 26.9493C0.176101 26.8202 -0.0939098 26.3271 0.0352257 25.8575C0.164361 25.388 0.657424 25.1179 1.12701 25.2471L29.6542 33.3004C30.1238 33.4296 30.3938 33.9226 30.2647 34.3922C30.159 34.7796 29.8068 35.0379 29.4194 35.0379H29.4077Z" fill="#1551E5"/>
<path fill-rule="evenodd" clip-rule="evenodd" d="M61.8911 47.6462H3.33405L4.8015 54.6196H60.7289L61.8911 47.6462Z" fill="#B5CAFF"/>
<path d="M21.7417 5.6889C21.7417 4.71451 21.7417 3.74013 21.7417 2.754C21.7417 1.34525 22.6926 0.5 24.2892 0.5H41.6286C43.1899 0.5 44.1643 1.36873 44.1643 2.76574C44.1643 4.64408 44.1643 6.52241 44.1643 8.41249C44.1643 9.79776 43.2017 10.6547 41.6638 10.6547H35.5592H24.2775C22.6926 10.6547 21.7534 9.8095 21.7417 8.40075C21.7417 7.4968 21.7417 6.59285 21.7417 5.6889ZM42.4034 5.59498C42.4034 4.65582 42.4034 3.71665 42.4034 2.77748C42.4034 2.23746 42.2273 2.08485 41.6286 2.08485H24.2892C23.6787 2.08485 23.5026 2.22572 23.5026 2.76574C23.5026 4.64408 23.5026 6.52241 23.5026 8.40075C23.5026 8.95251 23.6553 9.08164 24.2775 9.08164H35.5592H41.6521C42.2273 9.08164 42.3916 8.92903 42.4034 8.41249C42.4034 7.47332 42.4034 6.53415 42.4034 5.59498Z" fill="#1551E5"/>
<path d="M58.5806 55.4999H6.87938C4.43754 55.4999 2.45355 53.3751 2.45355 50.7689V26.9023H4.21449V50.7806C4.21449 52.4124 5.41193 53.7507 6.87938 53.7507H58.5806C60.048 53.7507 61.2454 52.4242 61.2454 50.7806V25.9749H63.0064V50.7689C63.0064 53.3751 61.0224 55.4999 58.5806 55.4999Z" fill="#1551E5"/>
<path d="M64.5795 26.8554C64.0982 26.8554 63.699 26.4562 63.699 25.9749V13.6366C63.699 12.0048 62.3725 10.6665 60.7289 10.6665H4.73106C3.09925 10.6665 1.76094 11.993 1.76094 13.6366V25.9749C1.76094 26.4562 1.36179 26.8554 0.88047 26.8554C0.399146 26.8554 0 26.468 0 25.9749V13.6366C0 11.0304 2.12487 8.90552 4.73106 8.90552H60.7289C63.3351 8.90552 65.46 11.0304 65.46 13.6366V25.9749C65.46 26.4562 65.0608 26.8554 64.5795 26.8554Z" fill="#1551E5"/>
<path d="M64.3274 25.1233L36.2592 33.1611L36.744 34.854L64.8122 26.8162L64.3274 25.1233Z" fill="#1551E5"/>
<path d="M37.3789 39.5811H28.5272V30.7295H37.3789V39.5811ZM30.2882 37.8202H35.6179V32.4904H30.2882V37.8202Z" fill="#FF0217"/>
</g>
<defs>
<clipPath id="clip0_1_10567">
<rect width="65.46" height="55" fill="white" transform="translate(0 0.5)"/>
</clipPath>
</defs>
</svg>
