<svg width="65" height="66" viewBox="0 0 65 66" fill="none" xmlns="http://www.w3.org/2000/svg">
<path d="M46.376 15.1049C17.965 9.86272 9.1648 27.786 8.31604 37.4029C7.56515 32.0935 8.14506 21.0173 16.3052 14.942C26.7329 7.17849 39.9313 10.8981 46.376 15.1049Z" fill="#B5CAFF"/>
<path d="M18.0989 44.5801V34.5386H20.0572L24.0031 40.3914V34.5386H26.0938V44.5801H24.2681L20.1897 38.5122V44.5801H18.0989ZM30.1427 40.6209C28.4937 40.6209 27.36 39.3442 27.36 37.5941V37.508C27.36 35.7579 28.4937 34.4812 30.1575 34.4812C31.8065 34.4812 32.9402 35.7579 32.9402 37.508V37.5941C32.9402 39.3442 31.8065 40.6209 30.1427 40.6209ZM30.1575 39.2724C30.8789 39.2724 31.3501 38.5695 31.3501 37.6228V37.5224C31.3501 36.5612 30.8789 35.8296 30.1427 35.8296C29.4213 35.8296 28.9501 36.5325 28.9501 37.4793V37.5797C28.9501 38.5408 29.4213 39.2724 30.1575 39.2724ZM27.5072 42.7726V41.5677H32.7782V42.7726H27.5072Z" fill="#1551E5"/>
<path d="M38.1913 44.5801V26.3436L34.0319 27.3401L32.9409 23.1547L39.7938 21.1616H43.3736V44.5801H38.1913Z" fill="#FF0217"/>
<path fill-rule="evenodd" clip-rule="evenodd" d="M58.9175 34.0864C58.9175 48.5457 46.8898 60.2643 32.0489 60.2643C17.2081 60.2643 5.18042 48.5457 5.18042 34.0864C5.18042 19.627 17.2081 7.90845 32.0489 7.90845C46.8898 7.90845 58.9175 19.627 58.9175 34.0864ZM55.3734 34.0864C55.3734 46.625 44.9405 56.8113 32.0489 56.8113C19.1574 56.8113 8.72449 46.6466 8.72449 34.0864C8.72449 21.5261 19.1574 11.3614 32.0489 11.3614C44.9405 11.3614 55.3734 21.5261 55.3734 34.0864Z" fill="#1551E5"/>
</svg>
