<svg width="65" height="56" viewBox="0 0 65 56" fill="none" xmlns="http://www.w3.org/2000/svg">
<g clip-path="url(#clip0_1_10497)">
<path d="M4.59785 34.0239H0.872986V54.3594H4.59785V34.0239Z" fill="#B5CAFF"/>
<path d="M31.9407 55.3835C30.9862 55.3835 30.0317 55.3835 29.0772 55.3835C27.8085 55.3835 26.9005 54.5105 26.8074 53.2184C26.8074 53.0555 26.8074 52.9041 26.8074 52.7412V52.6248V19.4036H25.9344C25.0032 19.4036 24.072 19.4036 23.1407 19.4036C22.3725 19.4036 21.7206 19.0195 21.3831 18.4142C21.0455 17.8089 21.0804 17.0523 21.4878 16.4004C22.4307 14.8639 23.3852 13.3391 24.328 11.8142L27.0402 7.46076C28.2391 5.54012 29.4264 3.61949 30.6254 1.69885C31.254 0.674516 32.0688 0.546474 32.4413 0.523193C32.837 0.523193 33.6053 0.674516 34.2222 1.66393C37.2836 6.56446 40.3333 11.465 43.3714 16.3655C43.7788 17.029 43.8254 17.7973 43.4878 18.4142C43.1386 19.0428 42.4635 19.4153 41.6719 19.4269C40.7407 19.4269 39.8212 19.4269 38.8899 19.4269H38.0751V21.2428C38.0751 24.1412 38.0751 27.0396 38.0751 29.9496C38.0751 30.3803 37.9005 30.8576 37.6212 31.1952C34.5481 34.9782 33.3143 39.32 33.9545 44.0925C34.3503 47.0608 35.5608 49.7962 37.5513 52.2057C38.1915 52.9856 38.2032 53.7539 37.5746 54.5454C37.1206 55.1158 36.5037 55.4184 35.782 55.4184H33.6868C33.128 55.4184 32.5577 55.4184 31.9989 55.4184L31.9407 55.3835ZM27.1217 17.6459H28.5418V52.7412C28.5418 52.8576 28.5418 52.974 28.5418 53.0904C28.5767 53.5676 28.8444 53.6258 29.0772 53.6258C30.5905 53.6258 32.1037 53.6258 33.6169 53.6258H35.7122C35.8984 53.6258 36.0264 53.5676 36.1429 53.4163C36.1661 53.3814 36.1894 53.3581 36.2011 53.3465C36.1894 53.3232 36.1661 53.2999 36.1429 53.2766C33.9429 50.611 32.6042 47.5846 32.1619 44.2787C31.4518 39.0057 32.8138 34.2216 36.2127 30.0428C36.236 30.0078 36.2709 29.9264 36.2709 29.8914C36.2825 26.993 36.2825 24.0946 36.2709 21.1962V17.6343H38.8317C39.7513 17.6343 40.6825 17.6343 41.6021 17.6343C41.7651 17.6343 41.8698 17.5761 41.9048 17.5295C41.928 17.483 41.928 17.3899 41.8349 17.2502C38.7852 12.3496 35.7354 7.44912 32.6857 2.54859C32.5344 2.30415 32.418 2.2343 32.3831 2.2343C32.3598 2.2343 32.2317 2.31579 32.0571 2.58351C30.8698 4.50415 29.6709 6.42478 28.472 8.34542L25.7598 12.6989C24.8053 14.2237 23.8624 15.7486 22.9196 17.2735C22.8381 17.4015 22.8381 17.4946 22.8614 17.5295C22.8847 17.5645 22.9661 17.611 23.1175 17.6227C24.037 17.6227 24.9682 17.6227 25.8878 17.6227H27.0868L27.1217 17.6459Z" fill="#1551E5"/>
<path d="M18.8222 55.3835C17.7979 55.3835 16.7736 55.3835 15.7492 55.3835C14.4572 55.3835 13.5376 54.5338 13.4212 53.2417C13.4095 53.0788 13.4095 52.9042 13.4095 52.7412V27.9825C13.4095 27.7031 13.4095 27.4703 13.4445 27.2491C13.6074 26.0618 14.5037 25.2587 15.6794 25.247C17.9143 25.2354 20.1492 25.2354 22.3725 25.247C23.5714 25.247 24.5259 26.1433 24.6307 27.3772C24.6423 27.5169 24.6423 27.6565 24.6423 27.7962V52.811C24.6423 53.1253 24.6191 53.4629 24.5143 53.8121C24.2233 54.7782 23.3503 55.3952 22.3027 55.3952C21.1386 55.3952 19.9746 55.3952 18.8106 55.3952L18.8222 55.3835ZM19.1365 26.9814C17.9841 26.9814 16.8318 26.9814 15.691 26.9814C15.4931 26.9814 15.2371 27.0396 15.1789 27.4703C15.1556 27.6216 15.1556 27.7729 15.1556 27.9243V40.2862V52.6015V52.7295C15.1556 52.8343 15.1556 52.9507 15.1556 53.0555C15.1905 53.4512 15.3651 53.6142 15.7492 53.6142C17.9376 53.6142 20.1143 53.6142 22.3027 53.6142C22.5937 53.6142 22.7799 53.4978 22.8498 53.265C22.8847 53.137 22.8963 52.9507 22.8963 52.7761V27.8428C22.8963 27.6915 22.8963 27.61 22.8963 27.5285C22.8963 27.4004 22.8148 26.993 22.3609 26.993C21.29 26.993 20.2074 26.993 19.1365 26.993V26.9814Z" fill="#1551E5"/>
<path d="M5.73862 55.3834C4.65608 55.3834 3.57354 55.3834 2.49101 55.3834C0.931217 55.3834 0 54.4406 0 52.8575V35.6649C0 34.1168 0.966138 33.1506 2.50265 33.1506C4.58624 33.1506 6.66984 33.1506 8.75344 33.1506C10.2783 33.1506 11.2328 34.1051 11.2328 35.63V41.6829V52.8692C11.2328 54.4406 10.3016 55.3718 8.7418 55.3834C7.74074 55.3834 6.73968 55.3834 5.73862 55.3834ZM5.63386 34.8967C4.59788 34.8967 3.55026 34.8967 2.51429 34.8967C1.92063 34.8967 1.74603 35.0713 1.74603 35.6649V52.8575C1.74603 53.4628 1.90899 53.6374 2.49101 53.6374C4.5746 53.6374 6.64656 53.6374 8.73016 53.6374C9.33545 53.6374 9.48677 53.4861 9.48677 52.8692V41.6829V35.6416C9.48677 35.0713 9.32381 34.9083 8.75344 34.8967C7.71746 34.8967 6.66984 34.8967 5.63386 34.8967Z" fill="#1551E5"/>
<path fill-rule="evenodd" clip-rule="evenodd" d="M56.6419 52.4641C50.459 55.4257 42.0546 53.5384 39.7194 48.6641C37.3841 43.7898 44.7923 55.1123 54.691 49.7786C68.1525 42.5257 56.9794 28.9846 60.6942 32.9145C66.3591 38.9014 62.8361 49.5051 56.6419 52.4641Z" fill="#B5CAFF"/>
<path fill-rule="evenodd" clip-rule="evenodd" d="M64.4523 41.3803C64.4523 49.1793 58.1317 55.4999 50.3327 55.4999C42.5338 55.4999 36.2131 49.1793 36.2131 41.3803C36.2131 33.5814 42.5338 27.2607 50.3327 27.2607C58.1317 27.2607 64.4523 33.5814 64.4523 41.3803ZM62.5899 41.3803C62.5899 48.1433 57.1073 53.6375 50.3327 53.6375C43.5581 53.6375 38.0756 48.1549 38.0756 41.3803C38.0756 34.6057 43.5581 29.1232 50.3327 29.1232C57.1073 29.1232 62.5899 34.6057 62.5899 41.3803Z" fill="#1551E5"/>
<path d="M51.3683 34.5824H48.3069C47.6783 34.5824 47.1661 35.0945 47.1661 35.7231V40.4257H46.3164C45.6878 40.4257 45.1757 40.9379 45.1757 41.5665V41.7295C45.1757 42.358 45.6878 42.8702 46.3164 42.8702H47.1661V43.9877H46.3164C45.6878 43.9877 45.1757 44.4998 45.1757 45.1284V45.2914C45.1757 45.9199 45.6878 46.4321 46.3164 46.4321H47.1661V47.0374C47.1661 47.666 47.6783 48.1781 48.3069 48.1781H48.4698C49.0984 48.1781 49.6106 47.666 49.6106 47.0374V46.4321H52.1016C52.7302 46.4321 53.2423 45.9199 53.2423 45.2914V45.1284C53.2423 44.4998 52.7302 43.9877 52.1016 43.9877H49.6106V42.8702H51.3683C52.4624 42.8702 53.5217 42.4279 54.3016 41.648C55.0815 40.8681 55.5122 39.8205 55.5238 38.7146C55.5238 37.6205 55.0815 36.5612 54.3016 35.7813C53.5217 35.0014 52.4741 34.5707 51.3683 34.5591V34.5824ZM51.3683 40.4257H49.6106V37.0268H51.3683C52.2995 37.0268 53.0677 37.7951 53.0677 38.7263C53.0677 39.6575 52.2995 40.4257 51.3683 40.4257Z" fill="#FF0016"/>
</g>
<defs>
<clipPath id="clip0_1_10497">
<rect width="64.4519" height="55" fill="white" transform="translate(0 0.5)"/>
</clipPath>
</defs>
</svg>
