<svg width="30" height="51" viewBox="0 0 30 51" fill="none" xmlns="http://www.w3.org/2000/svg">
<g clip-path="url(#clip0_1_10442)">
<path d="M27.9515 0H2.04848C0.921816 0 0 0.923634 0 2.05252V48.9475C0 50.0764 0.921816 51 2.04848 51H27.9515C29.0782 51 30 50.0764 30 48.9475V2.05252C30 0.923634 29.0782 0 27.9515 0ZM9.81222 4.39239C9.81222 4.02294 10.1144 3.71506 10.4882 3.71506H19.5118C19.8805 3.71506 20.1878 4.01781 20.1878 4.39239C20.1878 4.76698 19.8856 5.06973 19.5118 5.06973H10.4882C10.1195 5.06973 9.81222 4.76698 9.81222 4.39239ZM14.9334 48.8346C13.5405 48.8346 12.4087 47.7006 12.4087 46.31C12.4087 44.9194 13.5405 43.7803 14.9334 43.7803C16.3264 43.7803 17.4582 44.9143 17.4582 46.31C17.4582 47.7057 16.3264 48.8346 14.9334 48.8346ZM26.0874 40.9478H3.9126V8.32297H26.0874V40.9426V40.9478Z" fill="#1551E5"/>
<path d="M20.2441 19.0217L15.4916 20.9511L6.56538 19.0628L15.9986 23.8503L20.2441 19.0217Z" fill="#FF0016"/>
<path d="M12.3831 22.8752L7.4155 28.5299L13.0079 26.2773L23.45 28.4786L12.3831 22.8752Z" fill="#1551E5"/>
<path d="M15.4251 20.2377C16.2445 20.1762 16.8641 19.4527 16.7975 18.6368C16.7156 17.8106 16.014 17.2 15.1792 17.2719C14.3803 17.3334 13.7555 18.0467 13.8221 18.8728C13.8887 19.6836 14.6057 20.2993 15.4251 20.2377Z" fill="#1551E5"/>
</g>
<defs>
<clipPath id="clip0_1_10442">
<rect width="30" height="51" fill="white"/>
</clipPath>
</defs>
</svg>
