<svg width="39" height="41" viewBox="0 0 39 41" fill="none" xmlns="http://www.w3.org/2000/svg">
<g clip-path="url(#clip0_1_10419)">
<path d="M33.1839 36.6515H33.1824C29.7683 36.6485 23.205 36.641 17.6074 36.6313C7.64448 36.6125 7.61986 36.6073 7.38892 36.5556C5.43644 36.1195 4.01967 34.3016 4.01967 32.2343V5.79389C4.01967 4.90445 4.71683 4.18286 5.57616 4.18286C6.43549 4.18286 7.13265 4.90445 7.13265 5.79389V32.2335C7.13265 32.755 7.46494 33.2181 7.93695 33.3755C9.24875 33.3957 18.7636 33.4159 33.1861 33.4294C34.0454 33.4302 34.7418 34.1525 34.7411 35.042C34.7404 35.9314 34.0432 36.6515 33.1846 36.6515H33.1839Z" fill="#0043FF"/>
<path d="M0.298584 12.2119L5.57616 6.74635L10.8537 12.2119V7.5736L5.57616 2.11108L0.298584 7.5736V12.2119Z" fill="#0043FF"/>
<path d="M26.9775 40.4948L32.2638 35.0383L26.9891 29.5706L31.4703 29.5751L36.7421 35.0436L31.4587 40.5001L26.9775 40.4948Z" fill="#0043FF"/>
<path d="M36.7421 27.2881C35.8828 27.2881 35.1856 26.5665 35.1856 25.677V4.92097C35.1856 4.26007 34.6658 3.72206 34.0273 3.72206H12.9604C12.1011 3.72206 11.4039 3.00047 11.4039 2.11103C11.4039 1.22159 12.1004 0.5 12.9604 0.5H34.0273C36.3823 0.5 38.2986 2.48344 38.2986 4.92097V25.677C38.2986 26.5665 37.6014 27.2881 36.7421 27.2881Z" fill="#0043FF"/>
<path d="M10.3245 15.2676H13.0089V16.6575C13.6272 15.8348 14.4394 15.0847 15.7997 15.0847C17.0362 15.0847 17.9723 15.6519 18.4668 16.6388C19.2971 15.6332 20.286 15.0847 21.5754 15.0847C23.5713 15.0847 24.7731 16.3278 24.7731 18.6867V25.0671H22.088V19.6008C22.088 18.2843 21.5226 17.6077 20.5155 17.6077C19.5085 17.6077 18.8903 18.2843 18.8903 19.6008V25.0671H16.2052V19.6008C16.2052 18.2843 15.6398 17.6077 14.6327 17.6077C13.6257 17.6077 13.0075 18.2843 13.0075 19.6008V25.0671H10.3231V15.2676H10.3245Z" fill="#0043FF"/>
<path d="M26.8182 18.0287L29.1674 16.0543C29.9978 15.3597 30.3511 14.976 30.3511 14.4088C30.3511 13.879 29.9276 13.5681 29.415 13.5681C28.867 13.5681 28.3906 13.915 27.9136 14.5369L26.8182 13.6048C27.5074 12.6546 28.214 12.0874 29.5033 12.0874C30.9874 12.0874 31.9583 12.9649 31.9583 14.2627C31.9583 15.2503 31.5521 15.8535 30.5096 16.7129L28.9198 18.0107H31.9937V19.4H26.8182V18.0287Z" fill="#FF0016"/>
</g>
<defs>
<clipPath id="clip0_1_10419">
<rect width="38" height="40" fill="white" transform="translate(0.298584 0.5)"/>
</clipPath>
</defs>
</svg>
