<svg width="71" height="24" viewBox="0 0 71 24" fill="none" xmlns="http://www.w3.org/2000/svg">
<path d="M26.1293 0.604706C24.3552 0.604706 22.854 2.10588 22.854 3.88V20.5294C22.854 22.3035 24.3552 23.8047 26.1293 23.8047C27.9034 23.8047 29.4046 22.3035 29.4046 20.5294V3.88C29.4046 2.10588 27.9034 0.604706 26.1293 0.604706Z" fill="white"/>
<path d="M17.8047 0.877655H3.61172C1.8376 0.877655 0.336426 2.37883 0.336426 4.15295C0.336426 5.92707 1.8376 7.42824 3.61172 7.42824H17.8047C19.5788 7.42824 21.08 5.92707 21.08 4.15295C21.08 2.37883 19.5788 0.877655 17.8047 0.877655Z" fill="white"/>
<path d="M68.7081 13.8424L61.8846 2.65177C61.0658 1.28706 59.974 0.74118 58.6093 0.74118C57.2446 0.74118 56.0164 1.42353 55.1975 2.65177L47.1458 15.7529C46.5999 16.7082 46.054 17.1176 44.9623 17.1176H39.094C38.5481 17.1176 38.2752 16.7082 38.2752 16.2988V3.88C38.2752 2.10589 36.774 0.74118 34.9999 0.74118C33.2258 0.74118 31.7246 2.10589 31.7246 3.88V19.1647C31.7246 21.4847 34.0446 23.6682 36.2281 23.6682H48.1011C49.7387 23.6682 50.967 22.44 51.9223 20.8024L58.0634 10.1576C58.0634 10.0212 58.1999 9.88471 58.3364 9.88471C58.4728 9.88471 58.4728 10.0212 58.6093 10.1576L62.7034 16.5718C62.8399 16.8447 62.8399 16.9812 62.8399 17.2541C62.7034 17.5271 62.567 17.5271 62.1576 17.5271H56.5623C54.9246 17.5271 53.5599 18.8918 53.5599 20.5294C53.5599 22.1671 54.9246 23.5318 56.5623 23.5318H65.7058C67.8893 23.5318 70.4823 21.3482 70.4823 18.6188C70.4823 16.8447 70.0728 16.1624 68.7081 13.8424Z" fill="white"/>
<path d="M16.3035 9.20236H3.74819C1.97408 9.20236 0.4729 10.7035 0.4729 12.4777V20.3929C0.4729 22.1671 1.97408 23.6682 3.74819 23.6682C5.52231 23.6682 7.02349 22.1671 7.02349 20.3929V16.7082C7.02349 16.1624 7.4329 15.7529 7.97878 15.7529H16.3035C18.0776 15.7529 19.5788 14.2518 19.5788 12.4777C19.4423 10.7035 18.0776 9.20236 16.3035 9.20236Z" fill="white"/>
</svg>
