<svg viewBox="0 0 103 13" xmlns="http://www.w3.org/2000/svg">
<rect y="0.5" width="4.2562" height="4.0625" />
<rect x="4.2561" y="4.5625" width="4.2562" height="4.875" />
<rect x="4.2561" y="4.5625" width="4.2562" height="4.875" />
<rect y="9.4375" width="4.2562" height="4.0625" />
<rect x="8.51245" y="9.4375" width="4.2562" height="4.0625" />
<rect x="8.51245" y="0.5" width="4.2562" height="4.0625" />
<path d="M31.6192 4.72928C30.5859 2.17204 28.0543 0.5 24.9801 0.5C22.9393 0.5 21.2601 1.13931 19.891 2.44252C18.5476 3.72113 17.876 5.31941 17.876 7.26192C17.876 9.20444 18.5476 10.8027 19.891 12.1059C21.2601 13.3845 22.9393 14.0238 24.9801 14.0238C28.0543 14.0238 30.5859 12.3518 31.6192 9.79457L28.3901 8.88479C27.7959 10.1634 26.5043 10.9502 24.9801 10.9502C23.9209 10.9502 23.0168 10.606 22.2935 9.89293C21.5701 9.17985 21.2085 8.31924 21.2085 7.26192C21.2085 6.20461 21.5701 5.344 22.2935 4.63092C23.0168 3.91785 23.9209 3.5736 24.9801 3.5736C26.5043 3.5736 27.7959 4.36044 28.3901 5.63906L31.6192 4.72928Z" />
<path d="M35.1285 12.1059C36.4977 13.3845 38.1768 14.0238 40.2176 14.0238C42.2585 14.0238 43.9376 13.3845 45.3068 12.1059C46.6759 10.8027 47.3476 9.20444 47.3476 7.26192C47.3476 5.31941 46.6759 3.72113 45.3068 2.44252C43.9376 1.13931 42.2585 0.5 40.2176 0.5C38.1768 0.5 36.4977 1.13931 35.1285 2.44252C33.7852 3.72113 33.1135 5.31941 33.1135 7.26192C33.1135 9.20444 33.7852 10.8027 35.1285 12.1059ZM37.531 4.63092C38.2543 3.91785 39.1585 3.5736 40.2176 3.5736C41.2768 3.5736 42.181 3.91785 42.9043 4.63092C43.6276 5.344 43.9893 6.20461 43.9893 7.26192C43.9893 8.31924 43.6276 9.17985 42.9043 9.89293C42.181 10.606 41.2768 10.9502 40.2176 10.9502C39.1585 10.9502 38.2543 10.606 37.531 9.89293C36.8077 9.17985 36.446 8.31924 36.446 7.26192C36.446 6.20461 36.8077 5.344 37.531 4.63092Z" />
<path d="M52.8026 13.655V6.13084C52.8026 4.58174 54.0426 3.42607 55.6185 3.42607C57.1943 3.42607 58.4084 4.58174 58.4084 6.13084V13.655H61.6376V6.13084C61.6376 4.58174 62.8776 3.42607 64.4534 3.42607C66.0292 3.42607 67.2434 4.58174 67.2434 6.13084V13.655H70.4467V5.24564C70.4467 3.89326 69.93 2.76217 68.9225 1.85238C67.9151 0.942599 66.6492 0.5 65.0992 0.5C63.2134 0.5 61.7668 1.18849 60.8109 2.59005C59.8551 1.18849 58.4343 0.5 56.5743 0.5C54.9985 0.5 53.7326 1.06554 52.8026 2.22122V0.868832H49.5735V13.655H52.8026Z" />
<path d="M76.4158 19.1875V12.6469C77.6041 13.5567 78.9474 14.0238 80.4716 14.0238C82.3316 14.0238 83.8816 13.3845 85.1474 12.1059C86.4132 10.8027 87.0332 9.20444 87.0332 7.26192C87.0332 5.31941 86.4132 3.72113 85.1474 2.44252C83.8816 1.13931 82.3316 0.5 80.4716 0.5C78.9474 0.5 77.6041 0.967187 76.4158 1.87697V0.868832H73.1866V19.1875H76.4158ZM82.6158 4.63092C83.3132 5.344 83.6749 6.20461 83.6749 7.26192C83.6749 8.31924 83.3132 9.17985 82.6158 9.89293C81.9183 10.606 81.0658 10.9502 80.0583 10.9502C79.0508 10.9502 78.1983 10.606 77.5008 9.89293C76.8033 9.17985 76.4675 8.31924 76.4675 7.26192C76.4675 6.20461 76.8033 5.344 77.5008 4.63092C78.1983 3.91785 79.0508 3.5736 80.0583 3.5736C81.0658 3.5736 81.9183 3.91785 82.6158 4.63092Z" />
<path d="M90.7809 12.1059C92.15 13.3845 93.8292 14.0238 95.87 14.0238C97.9108 14.0238 99.59 13.3845 100.959 12.1059C102.328 10.8027 103 9.20444 103 7.26192C103 5.31941 102.328 3.72113 100.959 2.44252C99.59 1.13931 97.9108 0.5 95.87 0.5C93.8292 0.5 92.15 1.13931 90.7809 2.44252C89.4375 3.72113 88.7659 5.31941 88.7659 7.26192C88.7659 9.20444 89.4375 10.8027 90.7809 12.1059ZM93.1833 4.63092C93.9067 3.91785 94.8108 3.5736 95.87 3.5736C96.9291 3.5736 97.8333 3.91785 98.5566 4.63092C99.28 5.344 99.6416 6.20461 99.6416 7.26192C99.6416 8.31924 99.28 9.17985 98.5566 9.89293C97.8333 10.606 96.9291 10.9502 95.87 10.9502C94.8108 10.9502 93.9067 10.606 93.1833 9.89293C92.46 9.17985 92.0983 8.31924 92.0983 7.26192C92.0983 6.20461 92.46 5.344 93.1833 4.63092Z" />
</svg>
