<svg width="257" height="36" viewBox="0 0 257 36" fill="none" xmlns="http://www.w3.org/2000/svg">
<g clip-path="url(#clip0_6688_18645)">
<path d="M148.384 11.5038L139.321 1.08276L144.461 24.767L163.127 1.08276L148.384 11.5038ZM27.4584 21.7895L39.9026 7.71434L25.9705 13.2632L0 7.84968L27.4584 21.7895Z" fill="#FF3D71"/>
<path d="M138.78 7.17301L133.369 26.5264H142.838L138.78 7.17301ZM160.693 7.17301L146.084 26.5264H155.282L160.693 7.17301ZM250.643 9.20309C249.101 9.23354 247.599 9.70299 246.314 10.5565C245.709 11.03 245.164 11.5753 244.691 12.1805L245.232 9.6091H239.551L233.464 31.3986H239.822L241.85 24.6317C242.392 25.985 243.609 26.7971 245.232 26.7971H246.314C247.937 26.5264 249.56 25.8497 251.184 24.767C252.13 24.0903 253.077 23.1429 253.889 22.0602C254.565 20.9775 255.242 19.4888 255.647 18.0001C256.324 15.564 256.324 13.5339 255.512 11.7745C254.7 10.1505 253.077 9.20309 250.643 9.20309ZM249.29 18.0001C248.884 19.2181 248.343 20.1655 247.667 20.7068C247.261 21.2482 246.855 21.3835 246.314 21.6542C245.955 21.706 245.591 21.706 245.232 21.6542C244.285 21.6542 243.879 21.5189 243.474 20.7068C243.203 20.0302 243.203 19.0828 243.474 18.0001C243.879 16.376 244.556 15.564 245.097 15.158C245.367 14.752 246.179 14.0753 247.261 14.0753C249.019 14.0753 249.966 15.4287 249.155 18.1354M110.916 9.20309C109.42 9.25871 107.969 9.7271 106.723 10.5565C106.07 11.0212 105.479 11.5669 104.964 12.1805L105.64 9.6091H99.8242L93.7373 31.3986H100.095L101.988 24.6317C102.665 25.985 103.882 26.7971 105.505 26.7971H106.587C108.21 26.5264 109.834 25.8497 111.457 24.767C112.404 24.0903 113.215 23.1429 114.027 22.0602C114.703 20.9775 115.379 19.4888 115.92 18.0001C116.597 15.564 116.462 13.5339 115.785 11.7745C114.974 10.1505 113.35 9.20309 110.78 9.20309M109.428 18.0001C109.157 19.2181 108.616 20.1655 107.94 20.7068C107.534 21.2482 106.993 21.3835 106.587 21.6542C106.184 21.7199 105.773 21.7199 105.37 21.6542C104.423 21.6542 104.017 21.5189 103.747 20.7068C103.341 20.0302 103.341 19.0828 103.747 18.0001C104.153 16.376 104.829 15.564 105.37 15.158C105.64 14.752 106.452 14.0753 107.534 14.0753C109.293 14.0753 110.239 15.4287 109.428 18.1354M0.541016 33.97L16.7726 27.4738L47.3421 34.2407L14.8789 17.5941L0.541016 33.97ZM24.3473 2.43617C23.7785 2.47062 23.2221 2.61712 22.7101 2.86724C22.198 3.11736 21.7403 3.46619 21.3633 3.89371C20.9863 4.32124 20.6973 4.81904 20.513 5.35856C20.3288 5.89808 20.2528 6.4687 20.2894 7.03767C20.56 9.33843 22.7242 11.0978 25.0236 11.0978C25.6048 11.0641 26.1731 10.9134 26.6947 10.6548C27.2163 10.3962 27.6804 10.035 28.0593 9.59274C28.4381 9.15052 28.7239 8.63638 28.8995 8.08109C29.0752 7.5258 29.1371 6.94076 29.0815 6.36098C29.0478 5.77952 28.8972 5.21084 28.6387 4.68896C28.3803 4.16708 28.0193 3.70273 27.5773 3.32369C27.1353 2.94464 26.6215 2.65869 26.0665 2.48294C25.5115 2.30719 24.9268 2.24525 24.3473 2.30083M227.648 21.6542C227.333 22.0744 226.924 22.4155 226.455 22.6504C225.985 22.8853 225.468 23.0076 224.943 23.0076C223.86 23.0076 223.319 22.7369 222.778 22.1956C222.373 21.5189 222.237 20.8422 222.508 19.7595H234.682C235.628 16.782 235.628 14.2106 234.411 12.3159C233.329 10.4211 231.3 9.33843 228.189 9.33843L226.566 9.47376C224.178 9.83699 221.947 10.8878 220.145 12.4979C218.344 14.108 217.05 16.2079 216.421 18.5414C215.745 21.2482 216.15 23.2783 217.368 24.9023C218.72 26.2557 220.614 27.0678 223.319 27.0678C225.31 27.0893 227.286 26.7215 229.136 25.985C231.152 25.1088 232.818 23.5848 233.87 21.6542H227.648ZM226.566 13.5339H227.377C228.189 13.5339 228.73 13.8046 229 14.3459C229.406 14.8873 229.542 15.6993 229.406 16.5114H223.59C223.996 14.8873 224.943 13.8046 226.566 13.5339ZM177.059 9.87978C175.977 9.6091 174.489 9.33843 172.596 9.33843C171.278 9.34852 169.965 9.48448 168.673 9.74444C167.32 10.0151 166.238 10.4211 165.292 10.8271C164.496 11.2716 163.798 11.8723 163.24 12.5933C162.682 13.3142 162.276 14.1406 162.045 15.0226H168.403L168.673 14.6166C168.808 14.2106 169.349 13.8046 169.755 13.6693C170.185 13.4939 170.644 13.402 171.108 13.3986C171.649 13.3986 172.055 13.3986 172.46 13.6693C172.866 13.6693 173.137 14.3459 173.002 14.752C172.731 15.4287 171.919 15.97 170.702 16.1053L164.345 17.1881C163.541 17.4042 162.768 17.7226 162.045 18.1354C161.504 18.5414 160.828 18.9474 160.287 19.6241C159.746 20.3008 159.34 20.9775 159.069 22.0602C158.664 23.6843 158.934 24.9023 159.881 25.8497C160.693 26.6617 161.91 27.0678 163.398 27.0678C165.862 27.1856 168.279 26.3633 170.161 24.767L169.89 26.5264H176.654C176.654 26.5264 176.113 26.2557 176.383 25.4437L178.953 16.376L179.494 13.5339C179.494 12.7219 179.494 12.0452 179.088 11.3685C178.818 10.6918 178.142 10.2858 177.059 10.0151M170.296 22.1956C169.859 22.6921 169.299 23.0654 168.673 23.2783H167.591C166.103 23.2783 165.562 22.8723 165.697 21.9249C165.968 21.5189 166.238 20.9775 166.644 20.7068L167.997 20.1655L169.755 19.8948L171.649 19.3535C171.514 20.4362 171.108 21.3835 170.296 22.1956ZM190.045 21.7896C189.777 22.0522 189.46 22.2592 189.111 22.3986C188.763 22.538 188.391 22.607 188.016 22.6016C187.069 22.6016 186.528 22.1956 186.257 21.3835C185.987 20.7068 185.987 19.3535 186.528 17.7294C186.663 17.3234 187.204 15.97 187.745 15.4287C188.016 14.8873 188.422 14.4813 188.963 14.2106C189.368 13.9399 189.909 13.8046 190.45 13.8046C191.262 13.8046 191.668 14.0753 191.938 14.4813C192.344 14.8873 192.344 15.4287 192.209 16.2407H198.702C199.107 13.8046 198.566 11.9099 197.214 10.8271C195.861 9.87978 193.967 9.47376 191.803 9.47376C189.098 9.47376 186.663 10.1505 184.499 11.7745C182.308 13.4196 180.735 15.756 180.035 18.4061C179.224 21.1129 179.494 23.2783 180.847 24.9023C182.199 26.2557 184.093 27.0678 186.798 27.0678C189.02 27.068 191.206 26.5095 193.156 25.4437C194.178 24.887 195.094 24.154 195.861 23.2783C196.673 22.4662 197.214 21.3835 197.755 20.0302H191.262C190.992 20.8422 190.586 21.3835 190.045 21.7896ZM95.4957 11.9099C94.4136 10.2858 92.3847 9.20309 89.1384 9.20309C88.3202 9.21869 87.5052 9.3093 86.7036 9.47376C84.6747 9.87978 82.781 10.6918 81.2931 11.9099C79.3253 13.5114 77.9066 15.6879 77.2352 18.1354C76.6942 20.5715 76.8294 22.6016 77.7763 24.361C78.8584 26.1204 80.8873 27.0678 84.1336 27.0678C85.0805 27.0678 85.8921 27.0677 86.8389 26.7971C88.7328 26.4399 90.5029 25.601 91.9789 24.361C93.9467 22.7595 95.3654 20.5829 96.0368 18.1354C96.7131 15.6993 96.5778 13.6693 95.4957 11.9099ZM89.8147 18.1354C89.4089 19.4888 88.8678 20.5715 88.0563 21.3835C87.6505 21.9249 86.7036 22.7369 85.351 22.7369C84.4042 22.7369 83.7279 22.3309 83.4573 21.3835C83.125 20.3264 83.125 19.1926 83.4573 18.1354C83.8631 16.782 84.4042 15.6993 85.2157 14.752C85.5575 14.3811 85.9778 14.0915 86.4459 13.9041C86.9139 13.7168 87.4179 13.6365 87.921 13.6693C88.8678 13.6693 89.6794 13.9399 89.95 14.752C90.2205 15.6993 90.2205 16.782 89.8147 18.1354ZM117.814 14.4813H122.819L119.437 26.5264H125.795L129.176 14.3459H133.775L135.128 9.6091H119.167L117.814 14.4813ZM200.325 14.4813H205.329L202.083 26.5264H208.305L211.822 14.3459H216.421L217.774 9.6091H201.813L200.325 14.4813ZM60.4626 9.6091L55.7284 26.5264H62.0857L65.4673 14.3459H70.6073L67.2257 26.5264H73.7184L78.4526 9.6091H60.4626ZM48.4242 21.6542C48.161 21.9233 47.8446 22.1345 47.4953 22.2743C47.1459 22.4142 46.7713 22.4795 46.3952 22.4662C45.4484 22.4662 44.9073 22.0602 44.6368 21.2482C44.3663 20.5715 44.3663 19.3535 44.9073 17.5941C45.2298 16.7858 45.6379 16.0145 46.1247 15.2933C46.3952 14.752 46.801 14.3459 47.3421 14.0753C47.7479 13.8046 48.2889 13.6693 48.83 13.6693C49.6415 13.6693 50.0473 13.9399 50.3179 14.3459C50.7236 14.752 50.7236 15.4287 50.5884 16.1053H56.8105C57.2163 13.6693 56.6752 11.7745 55.3226 10.6918C53.97 9.74444 51.941 9.33843 49.9121 9.33843C47.2261 9.25921 44.5939 10.1022 42.453 11.7272C40.3122 13.3522 38.7916 15.6613 38.1442 18.2708C37.3326 20.9775 37.6031 23.1429 38.9557 24.767C40.3084 26.1204 42.2021 26.9324 44.9073 26.9324C47.1629 26.9972 49.3977 26.4848 51.4 25.4437C52.4191 24.8824 53.3342 24.1499 54.1052 23.2783C54.7815 22.4662 55.4579 21.3835 55.9989 20.0302H49.5063C49.2357 20.8422 48.83 21.3835 48.2889 21.7896" fill="#1551E5"/>
</g>
<defs>
<clipPath id="clip0_6688_18645">
<rect width="257" height="33.8346" fill="white" transform="translate(0 1.08276)"/>
</clipPath>
</defs>
</svg>
