<svg width="171" height="30" viewBox="0 0 171 30" fill="none" xmlns="http://www.w3.org/2000/svg">
<path d="M14.2011 12.4518C14.4352 12.9177 14.6693 13.6165 14.9034 13.8494C14.9034 14.0824 14.9034 14.3153 14.9034 14.5482C14.6693 15.0141 10.4552 21.7694 10.4552 21.7694C10.4552 21.7694 18.6493 16.8777 19.8199 16.1788C20.9905 15.48 21.2246 14.0824 20.5222 13.1506C20.054 12.4518 13.0305 1.96942 12.7964 1.2706C12.5622 0.804718 12.7964 0.338837 13.2646 0.338837C13.4987 0.338837 13.967 0.338837 14.9034 0.338837C15.3717 0.338837 15.8399 0.338836 16.5422 0.804719C20.9905 4.29884 30.3552 11.9859 32.9305 14.0824C33.6328 14.7812 33.867 15.713 33.3987 16.8777C32.9305 17.8094 31.7599 18.7412 29.887 19.44C27.7799 20.1388 7.41166 27.8259 4.13401 28.9906C3.19754 29.2235 2.26107 29.4565 1.09048 29.4565C-0.314226 29.4565 -0.782461 29.4565 -1.01658 29.4565C-1.48481 29.4565 -1.71893 28.7577 -1.48481 28.5247C-0.548344 27.593 13.0305 12.6847 13.7328 11.9859C13.4987 11.9859 13.9669 11.9859 14.2011 12.4518Z" fill="white"/>
<path d="M95.2057 15.713C94.9716 15.48 94.5033 15.2471 93.801 15.2471H82.3292L83.4998 12.9177H97.3128C98.4833 12.9177 99.4198 12.4518 99.888 11.52L100.356 10.5883C100.59 10.1224 100.59 9.88944 100.356 9.42356C100.122 9.19062 99.6539 8.95767 98.9516 8.95767H80.2222C79.0516 8.95767 78.1151 9.42356 77.6469 10.3553L70.6233 24.0988C70.3892 24.5647 70.3892 25.0306 70.6233 25.2636C70.8575 25.4965 71.3257 25.7294 72.028 25.7294H90.7575C91.928 25.7294 92.8645 25.2636 93.3328 24.3318L93.801 23.1671C94.0351 22.7012 94.0351 22.4683 93.5669 22.0024C93.3328 21.7694 92.8645 21.5365 92.1622 21.5365H78.8175L79.988 18.9741H91.6939C92.6304 18.9741 93.801 18.5083 94.2692 17.5765L94.7375 16.6447C95.6739 16.4118 95.4398 15.9459 95.2057 15.713Z" fill="white"/>
<path d="M170.592 9.42355C170.826 9.88944 170.357 10.3553 169.889 10.5883L158.886 17.1106L163.334 23.8659C163.568 24.3318 163.568 24.5647 163.334 24.7977C163.1 25.2636 162.397 25.2636 161.695 25.2636L158.417 25.4965C157.013 25.4965 156.076 25.0306 155.608 24.3318L153.033 20.6047L146.712 24.3318C146.009 24.7977 144.605 25.4965 142.966 25.4965H138.986C138.049 25.4965 137.815 25.0306 137.815 25.0306C137.581 24.5647 137.815 24.0988 138.517 23.633L150.223 16.6447L146.009 10.3553C145.775 9.88943 145.775 9.65649 146.009 9.42355C146.243 8.95767 146.946 8.72473 147.648 8.72473H151.16C152.565 8.72473 153.267 9.19061 153.969 10.1224L156.076 13.3836L162.163 9.88944C162.866 9.42356 164.504 8.95767 165.909 8.95767H169.421C170.123 8.95767 170.592 9.19061 170.592 9.42355Z" fill="white"/>
<path d="M142.732 9.42356C142.966 9.6565 142.966 10.1224 142.732 10.5883L135.708 24.3318C135.24 25.0306 134.069 25.7294 133.133 25.7294H130.089C129.387 25.7294 128.919 25.4965 128.685 25.2636C128.451 25.0306 128.451 24.5647 128.685 24.0988L135.708 10.3553C136.176 9.6565 137.113 8.95767 138.283 8.95767H141.327C142.029 8.95767 142.498 8.95767 142.732 9.42356Z" fill="white"/>
<path d="M132.431 9.42355C132.665 9.65649 132.665 10.1224 132.431 10.5883L125.407 24.3318C124.939 25.0306 124.002 25.7294 122.832 25.7294H119.788C119.086 25.7294 118.618 25.4965 118.384 25.2636C118.149 25.0306 118.149 24.5647 118.384 24.0988L122.832 15.48L113.467 24.5647C112.765 25.2636 111.594 25.7294 110.424 25.7294H109.253C108.082 25.7294 107.146 25.0306 107.146 24.3318V15.48L102.698 24.3318C102.229 25.0306 101.293 25.7294 100.122 25.7294H97.0788C96.3765 25.7294 95.9082 25.4965 95.6741 25.2636C95.44 25.0306 95.44 24.5647 95.6741 24.0988L102.698 10.3553C103.166 9.65649 104.102 8.95767 105.273 8.95767H110.658C111.126 8.95767 111.828 9.19061 112.062 9.42355C112.296 9.65649 112.531 10.1224 112.531 10.3553V18.5083L121.193 9.88944C121.895 9.19061 123.066 8.72473 124.236 8.72473H130.792C131.728 8.95767 132.196 8.95767 132.431 9.42355Z" fill="white"/>
<path d="M72.0281 11.2871C73.1987 12.6847 73.1987 14.7812 71.794 17.3436C68.7505 22.9341 63.3658 25.4965 53.767 25.4965H43.4658C42.7634 25.4965 42.2952 25.2636 42.0611 25.0306C41.827 24.7977 41.827 24.3318 42.0611 23.8659L47.2117 14.0824H54.2352L50.4893 21.0706H55.1717C61.2587 21.0706 63.1317 19.9059 64.5364 16.8777C65.4729 15.2471 65.4728 14.0824 65.0046 13.6165C64.3023 12.9177 62.8976 12.6847 60.0881 12.6847H58.2152C58.2152 12.6847 48.6164 12.6847 48.3823 12.6847C47.6799 12.6847 46.9776 12.6847 46.5093 12.6847C46.0411 12.6847 45.807 12.4518 46.0411 12.2189C46.2752 11.52 46.9776 10.1224 48.1481 9.42356C48.6164 9.19062 49.0846 8.95767 50.2552 8.95767C50.7234 8.95767 51.1917 8.95767 51.6599 8.95767H61.9611C67.3458 8.95767 70.6234 9.6565 72.0281 11.2871Z" fill="white"/>
</svg>
