<svg width="151" height="25" viewBox="0 0 151 25" fill="none" xmlns="http://www.w3.org/2000/svg">
<path d="M27.2459 4.61883C26.2282 3.80001 21.9541 0.320007 14.8306 0.320007C10.76 0.320007 6.07881 0.934124 0.787048 4.61883C0.379989 4.82354 0.379989 5.84707 0.583518 6.05177C0.787047 6.46118 0.990577 6.25648 1.19411 6.05177C2.41528 5.23295 5.06117 4.00471 6.48587 3.5953C14.8306 1.13883 21.7506 4.20942 24.1929 6.25648C24.8035 6.8706 25.007 7.28001 24.6 8.50824C24.1929 9.53177 23.1753 11.7835 20.9365 14.8541C18.4941 18.3341 14.8306 22.4282 13.8129 22.4282C13.2023 22.4282 10.76 20.1765 8.72469 18.1294C6.6894 15.8777 5.26469 13.8306 5.46822 13.2165C5.46822 12.8071 7.29999 11.1694 7.91058 10.9647H8.11411C9.33528 12.8071 12.1847 16.4918 13.6094 16.4918C15.0341 16.2871 19.3082 11.3741 20.3259 8.91765C20.5294 8.71295 19.7153 7.28001 19.5118 7.68942C17.8835 10.3506 15.6447 13.0118 14.22 13.8306C14.0165 14.0353 13.8129 14.0353 13.6094 13.8306C11.167 11.1694 9.94587 7.68942 8.72469 7.68942C7.29999 7.68942 4.04352 10.5553 3.02587 11.9882C2.21175 13.0118 2.41528 13.4212 3.2294 14.6494C5.06117 17.3106 7.91058 20.3812 10.5565 22.6329C12.1847 23.8612 13.4059 24.4753 14.0165 24.4753C15.2376 24.4753 19.5118 20.9953 22.1576 17.9247C25.2106 14.24 26.8388 11.3741 27.6529 9.73648C28.6706 6.87059 28.8741 6.05177 27.2459 4.61883Z" fill="white"/>
<path d="M45.3599 18.5388H42.9176L37.2188 10.76V18.5388H34.5729V6.46118H37.2188L42.9176 14.0353V6.46118H45.5635V18.5388H45.3599Z" fill="white"/>
<path d="M54.1117 18.7435C52.2799 18.7435 50.8552 18.1294 49.634 16.9012C48.4128 15.6729 47.8022 14.24 47.8022 12.3976C47.8022 10.5553 48.4128 9.12235 49.634 7.89411C50.8552 6.66587 52.2799 6.05176 54.1117 6.05176C55.9434 6.05176 57.5717 6.66587 58.5893 7.89411C59.8105 9.12235 60.4211 10.5553 60.4211 12.3976C60.4211 14.24 59.8105 15.6729 58.5893 16.9012C57.5717 18.3341 55.9434 18.7435 54.1117 18.7435ZM51.4658 15.4682C52.0764 16.2871 53.094 16.4918 54.1117 16.4918C55.1293 16.4918 56.147 16.0823 56.7575 15.4682C57.3681 14.6494 57.7752 13.8306 57.7752 12.6023C57.7752 11.3741 57.3681 10.5553 56.7575 9.73646C56.147 8.91764 55.1293 8.71293 54.1117 8.71293C53.094 8.71293 52.0764 9.12234 51.4658 9.73646C50.8552 10.5553 50.4481 11.3741 50.4481 12.6023C50.4481 13.8306 50.8552 14.6494 51.4658 15.4682Z" fill="white"/>
<path d="M72.6329 18.5388H69.58L67.3412 14.24H65.5094V18.5388H62.8635V6.46118H68.5623C69.7835 6.46118 70.8012 6.87059 71.6153 7.48471C72.4294 8.30353 72.6329 9.12236 72.6329 10.3506C72.6329 11.3741 72.4294 12.1929 71.8188 12.8071C71.2082 13.4212 70.5976 13.8306 69.9871 14.0353L72.6329 18.5388ZM68.1553 11.9882C68.7659 11.9882 69.1729 11.7835 69.3765 11.5788C69.7835 11.3741 69.9871 10.9647 69.9871 10.3506C69.9871 9.94118 69.7835 9.53177 69.3765 9.12236C68.9694 8.91765 68.5624 8.71295 68.1553 8.71295H65.5094V11.9882H68.1553Z" fill="white"/>
<path d="M80.5705 18.5388H77.9246V8.71295H74.2611V6.46118H84.234V8.71295H80.5705V18.5388Z" fill="white"/>
<path d="M97.6671 18.5388H95.0212V13.4212H89.3224V18.5388H86.6765V6.46118H89.3224V11.1694H95.0212V6.46118H97.6671V18.5388Z" fill="white"/>
<path d="M108.658 18.5388H101.534V6.46118H104.18V16.2871H108.658V18.5388Z" fill="white"/>
<path d="M123.108 18.5388H120.055L119.241 16.4918H114.153L113.339 18.5388H110.286L114.967 6.46118H118.224L123.108 18.5388ZM118.631 14.24L116.799 9.12236L114.967 14.24H118.631Z" fill="white"/>
<path d="M136.134 18.5388H133.692L127.993 10.76V18.5388H125.347V6.46118H127.993L133.692 14.0353V6.46118H136.338V18.5388H136.134Z" fill="white"/>
<path d="M144.275 18.5388H139.391V6.46118H144.275C146.107 6.46118 147.735 7.0753 148.957 8.09883C150.178 9.12236 150.788 10.5553 150.788 12.3977C150.788 14.24 150.178 15.6729 148.957 16.6965C147.735 18.1294 146.107 18.5388 144.275 18.5388ZM144.275 16.2871C145.497 16.2871 146.311 15.8777 147.125 15.2635C148.142 14.4447 148.346 13.6259 148.142 12.6024C147.939 11.5788 147.735 10.5553 147.125 9.94118C146.514 9.32707 145.497 8.91765 144.275 8.91765H142.036V16.4918H144.275V16.2871Z" fill="white"/>
</svg>
