<svg width="128" height="30" viewBox="0 0 128 30" fill="none" xmlns="http://www.w3.org/2000/svg">
<path d="M15.7682 0.844696C7.29411 0.844696 0.376465 7.71529 0.376465 16.1318C0.376465 21.8 3.48941 26.6094 7.98588 29.3576C4.87293 26.9529 2.97058 23.3459 2.97058 19.2235C2.97058 12.1812 8.67764 6.51293 15.7682 6.51293C22.8588 6.51293 28.5659 12.1812 28.5659 19.2235C28.5659 23.3459 26.4906 27.1247 23.5506 29.3576C28.22 26.7812 31.3329 21.8 31.3329 16.1318C31.16 7.71529 24.2423 0.844696 15.7682 0.844696Z" fill="white"/>
<path d="M15.7681 11.4941C10.234 11.4941 5.73755 15.96 5.73755 21.4565C5.73755 25.9223 8.85049 29.8729 13.0011 31.0753C10.234 29.8729 8.15872 27.1247 8.15872 24.0329C8.15872 19.7388 11.6175 16.3035 15.9411 16.3035C20.2646 16.3035 23.7234 19.7388 23.7234 24.0329C23.7234 27.2965 21.8211 29.8729 18.8811 31.0753C23.0317 29.8729 25.9717 25.9223 25.9717 21.4565C25.7987 15.96 21.3023 11.4941 15.7681 11.4941Z" fill="white"/>
<path d="M39.98 10.4635C37.2129 10.4635 35.3105 10.9788 35.3105 14.0706V16.6471C35.3105 19.7388 37.2129 20.2541 39.98 20.2541C42.747 20.2541 44.6494 19.7388 44.6494 16.6471V14.0706C44.6494 10.9788 42.5741 10.4635 39.98 10.4635ZM41.8823 16.3035C41.8823 17.8494 41.3635 18.0212 39.98 18.0212C38.5964 18.0212 38.0776 17.8494 38.0776 16.3035V14.2424C38.0776 12.6965 38.5964 12.6965 39.98 12.6965C41.3635 12.6965 41.8823 12.8682 41.8823 14.2424V16.3035ZM51.567 16.4753C51.567 17.6776 51.2211 17.6777 50.0105 17.6777C48.9729 17.6777 48.2811 17.6776 48.2811 16.4753V10.6353H45.5141V16.6471C45.5141 19.0518 46.0329 20.0824 50.0105 20.0824C52.9505 20.0824 54.1611 19.3953 54.1611 16.6471V10.6353H51.3941V16.4753H51.567ZM67.6505 17.8494L65.4023 10.6353H55.1988V13.04H57.7929V20.0824H60.56V13.04H63.5L65.0564 18.1929C65.4023 19.2235 66.0941 20.0824 67.1317 20.0824H69.7258L72.6658 10.6353H69.8988L67.6505 17.8494ZM73.3576 12.3529V18.3647C73.3576 19.2235 74.2223 20.0824 75.087 20.0824H80.6211V17.8494H75.9517V16.1318H79.4105V14.2424H75.9517V12.6965H80.6211V10.6353H75.087C74.0494 10.6353 73.3576 11.3224 73.3576 12.3529ZM89.4411 17.6777L87.1929 12.5247C86.847 11.4941 86.1553 10.6353 85.1176 10.6353H82.0047V20.0824H84.7717L84.5988 13.04H84.7717L86.847 18.1929C87.1929 19.2235 87.8847 20.0824 88.9223 20.0824H92.0353V10.6353H89.2682L89.4411 17.6777ZM92.727 13.04H95.3211V20.0824H98.0882V13.04H100.682V10.6353H92.727V13.04ZM107.6 16.4753C107.6 17.6776 107.254 17.6777 106.043 17.6777C105.006 17.6777 104.314 17.6776 104.314 16.4753V10.6353H101.547V16.6471C101.547 19.0518 102.066 20.0824 106.043 20.0824C108.983 20.0824 110.194 19.3953 110.194 16.6471V10.6353H107.6V16.4753ZM119.533 13.3835C119.533 10.9788 118.322 10.6353 116.42 10.6353H111.232V20.0824H113.999V16.6471H115.728C116.593 16.6471 116.766 16.8188 116.766 17.6777V20.2541H119.533V17.5059C119.533 16.3035 118.841 15.7882 117.803 15.7882C119.187 15.2729 119.533 14.9294 119.533 13.3835ZM115.728 14.9294H113.999V12.8682H116.074C116.766 12.8682 116.939 13.04 116.939 13.8988C116.939 14.9294 116.593 14.9294 115.728 14.9294ZM127.834 12.8682V10.6353H122.3C121.262 10.6353 120.571 11.3224 120.571 12.3529V18.3647C120.571 19.2235 121.435 20.0824 122.3 20.0824H127.834V17.8494H123.165V16.1318H126.623V14.2424H123.165V12.6965H127.834V12.8682Z" fill="white"/>
<path d="M37.0399 29.7012C36.1752 29.7012 35.4834 29.1859 35.4834 28.3271C35.4834 27.1247 37.0399 26.9529 37.9046 26.9529V26.6094C37.9046 26.4376 37.7316 26.2659 37.3858 26.2659C36.694 26.2659 36.694 26.6094 36.3481 26.6094C36.0022 26.6094 35.8293 26.4376 35.8293 26.0941C35.8293 25.5788 36.694 25.2353 37.3858 25.2353C38.4234 25.2353 38.9422 25.5788 38.9422 26.4376V28.8423C38.9422 29.1859 38.7693 29.3576 38.4234 29.3576C38.2505 29.3576 37.9046 29.3576 37.9046 29.0141C37.9046 29.5294 37.3858 29.7012 37.0399 29.7012ZM37.2128 28.8423C37.7316 28.8423 38.0775 28.4988 38.0775 27.9835V27.8118C37.3858 27.8118 36.521 27.8118 36.521 28.3271C36.694 28.6706 37.0399 28.8423 37.2128 28.8423Z" fill="white"/>
<path d="M47.4165 26.6094C47.0706 26.6094 46.8977 26.4376 46.5518 26.4376C45.86 26.4376 45.6871 26.9529 45.6871 27.4682C45.6871 27.9835 46.0329 28.4988 46.5518 28.4988C46.8977 28.4988 47.2435 28.327 47.4165 28.327C47.5894 28.327 47.9353 28.4988 47.9353 28.8423C47.9353 29.3576 47.0706 29.5294 46.5518 29.5294C45.3412 29.5294 44.6494 28.4988 44.6494 27.4682C44.6494 26.4376 45.5141 25.407 46.5518 25.407C47.0706 25.407 47.9353 25.5788 47.9353 26.0941C47.9353 26.4376 47.7624 26.6094 47.4165 26.6094Z" fill="white"/>
<path d="M54.1612 26.4377H53.9883C53.6424 26.4377 53.4695 26.2659 53.4695 25.9224C53.4695 25.5788 53.6424 25.4071 53.9883 25.4071H54.1612V24.72C54.1612 24.3765 54.3342 24.033 54.6801 24.033C55.026 24.033 55.1989 24.2047 55.1989 24.72V25.4071H55.7177C56.0636 25.4071 56.2365 25.5788 56.2365 25.9224C56.2365 26.2659 56.0636 26.4377 55.7177 26.4377H55.3718V29.0141C55.3718 29.3577 55.1989 29.7012 54.853 29.7012C54.5071 29.7012 54.3342 29.5294 54.3342 29.0141V26.4377H54.1612Z" fill="white"/>
<path d="M63.3271 24.5482C63.3271 24.8918 62.9813 25.2353 62.6354 25.2353C62.2895 25.2353 61.9436 24.8918 61.9436 24.5482C61.9436 24.2047 62.2895 24.0329 62.6354 24.0329C63.1542 23.8612 63.3271 24.2047 63.3271 24.5482ZM62.2895 26.0941C62.2895 25.7506 62.4624 25.4071 62.8083 25.4071C63.1542 25.4071 63.3271 25.5788 63.3271 26.0941V29.0141C63.3271 29.3576 63.1542 29.7012 62.8083 29.7012C62.4624 29.7012 62.2895 29.5294 62.2895 29.0141V26.0941Z" fill="white"/>
<path d="M69.553 26.4376C69.553 26.2659 69.553 26.2659 69.553 26.0941C69.553 25.7506 69.8989 25.5788 70.0718 25.5788C70.4177 25.5788 70.4177 25.7506 70.5906 25.9223L71.2824 27.9835L71.9742 25.9223C71.9742 25.7506 72.1471 25.5788 72.493 25.5788C72.8389 25.5788 73.0118 25.7506 73.0118 26.0941C73.0118 26.2659 73.0118 26.2659 73.0118 26.4376L71.9742 29.1859C71.8012 29.5294 71.8012 29.7011 71.4553 29.7011C71.1094 29.7011 70.9365 29.5294 70.9365 29.1859L69.553 26.4376Z" fill="white"/>
<path d="M78.8917 27.9835C78.8917 28.4988 79.4105 28.8423 79.9293 28.8423C80.4481 28.8423 80.794 28.327 81.1399 28.327C81.3128 28.327 81.6587 28.4988 81.6587 28.8423C81.6587 29.3576 80.6211 29.7011 79.9293 29.7011C78.7187 29.7011 77.854 28.8423 77.854 27.64C77.854 26.6094 78.7187 25.5788 79.7564 25.5788C80.9669 25.5788 81.6587 26.6094 81.6587 27.4682C81.6587 27.8117 81.4858 27.9835 81.1399 27.9835H78.8917ZM80.6211 27.1247C80.6211 26.6094 80.2752 26.2659 79.7564 26.2659C79.2375 26.2659 78.8917 26.6094 78.8917 27.1247H80.6211Z" fill="white"/>
<path d="M99.8176 29.1859C99.8176 30.56 98.9529 31.0753 97.7424 31.0753C97.2235 31.0753 96.0129 30.9035 96.0129 30.2165C96.0129 30.0447 96.1859 29.7012 96.5318 29.7012C96.8776 29.7012 97.2235 30.0447 97.9153 30.0447C98.4341 30.0447 98.78 29.7012 98.78 29.1859V29.0141C98.6071 29.3576 98.2612 29.5294 97.7424 29.5294C96.5318 29.5294 96.0129 28.4988 96.0129 27.4682C96.0129 26.4376 96.7047 25.407 97.7424 25.407C98.0882 25.407 98.6071 25.5788 98.78 25.9223C98.78 25.5788 98.9529 25.407 99.2988 25.407C99.6447 25.407 99.8176 25.5788 99.8176 26.0941V29.1859ZM97.9153 26.4376C97.3965 26.4376 97.0506 26.9529 97.0506 27.4682C97.0506 27.9835 97.3965 28.4988 97.9153 28.4988C98.4341 28.4988 98.78 27.9835 98.78 27.4682C98.78 26.9529 98.4341 26.4376 97.9153 26.4376Z" fill="white"/>
<path d="M106.908 27.9835C106.908 28.4988 107.427 28.8423 107.946 28.8423C108.465 28.8423 108.811 28.327 109.156 28.327C109.329 28.327 109.675 28.4988 109.675 28.8423C109.675 29.3576 108.638 29.7011 107.946 29.7011C106.735 29.7011 105.871 28.8423 105.871 27.64C105.871 26.6094 106.735 25.5788 107.773 25.5788C108.984 25.5788 109.675 26.6094 109.675 27.4682C109.675 27.8117 109.502 27.9835 109.156 27.9835H106.908ZM108.638 27.1247C108.638 26.6094 108.292 26.2659 107.773 26.2659C107.254 26.2659 106.908 26.6094 106.908 27.1247H108.638Z" fill="white"/>
<path d="M117.112 29.7012C116.247 29.7012 115.555 29.1859 115.555 28.3271C115.555 27.1247 117.112 26.9529 117.976 26.9529V26.6094C117.976 26.4376 117.803 26.2659 117.458 26.2659C116.766 26.2659 116.766 26.6094 116.42 26.6094C116.074 26.6094 115.901 26.4376 115.901 26.0941C115.901 25.5788 116.766 25.2353 117.458 25.2353C118.495 25.2353 119.014 25.5788 119.014 26.4376V28.8423C119.014 29.1859 118.841 29.3576 118.495 29.3576C118.322 29.3576 118.149 29.3576 117.976 29.0141C117.976 29.5294 117.458 29.7012 117.112 29.7012ZM117.285 28.8423C117.803 28.8423 118.149 28.4988 118.149 27.9835V27.8118C117.458 27.8118 116.593 27.8118 116.593 28.3271C116.593 28.6706 116.939 28.8423 117.285 28.8423Z" fill="white"/>
<path d="M125.24 26.0941C125.24 25.7506 125.586 25.5788 125.759 25.5788C126.105 25.5788 126.278 25.7506 126.278 26.0941C126.451 25.7506 126.624 25.5788 126.969 25.5788C127.315 25.5788 127.488 25.7506 127.488 26.0941C127.488 26.4376 127.142 26.4376 126.797 26.6094C126.451 26.7811 126.105 26.9529 126.105 27.2964V29.0141C126.105 29.3576 125.932 29.7011 125.586 29.7011C125.24 29.7011 125.067 29.5294 125.067 29.0141V26.0941H125.24Z" fill="white"/>
</svg>
