<?xml version="1.0" encoding="utf-8"?><svg xmlns="http://www.w3.org/2000/svg" xmlns:xlink="http://www.w3.org/1999/xlink"><symbol viewBox="0 0 24 24" id="Iist-cards-mode" xmlns="http://www.w3.org/2000/svg"><path clip-rule="evenodd" d="M15 19v-4h4l.001 4H15Zm4-6h-4c-1.103 0-2 .897-2 2v4c0 1.103.897 2 2 2h4c1.103 0 2-.897 2-2v-4c0-1.103-.897-2-2-2ZM5 19v-4h4l.001 4H5Zm4-6H5c-1.103 0-2 .897-2 2v4c0 1.103.897 2 2 2h4c1.103 0 2-.897 2-2v-4c0-1.103-.897-2-2-2Zm6-4V5h4l.001 4H15Zm4-6h-4c-1.103 0-2 .897-2 2v4c0 1.103.897 2 2 2h4c1.103 0 2-.897 2-2V5c0-1.103-.897-2-2-2ZM5 9V5h4l.001 4H5Zm4-6H5c-1.103 0-2 .897-2 2v4c0 1.103.897 2 2 2h4c1.103 0 2-.897 2-2V5c0-1.103-.897-2-2-2Z"/><path clip-rule="evenodd" d="M15 19v-4h4l.001 4H15Zm4-6h-4c-1.103 0-2 .897-2 2v4c0 1.103.897 2 2 2h4c1.103 0 2-.897 2-2v-4c0-1.103-.897-2-2-2ZM5 19v-4h4l.001 4H5Zm4-6H5c-1.103 0-2 .897-2 2v4c0 1.103.897 2 2 2h4c1.103 0 2-.897 2-2v-4c0-1.103-.897-2-2-2Zm6-4V5h4l.001 4H15Zm4-6h-4c-1.103 0-2 .897-2 2v4c0 1.103.897 2 2 2h4c1.103 0 2-.897 2-2V5c0-1.103-.897-2-2-2ZM5 9V5h4l.001 4H5Zm4-6H5c-1.103 0-2 .897-2 2v4c0 1.103.897 2 2 2h4c1.103 0 2-.897 2-2V5c0-1.103-.897-2-2-2Z"/></symbol><symbol fill="none" viewBox="0 0 77 65" id="advantages-eight" xmlns="http://www.w3.org/2000/svg"><path fill="#F5F5F5" d="M0 0h77v65H0z"/><g clip-path="url(#bya)"><path fill="#fff" d="M-81-1816h1440v9223H-81z"/><g clip-path="url(#byb)"><path fill-rule="evenodd" clip-rule="evenodd" d="M34.437 48.75c-5.245 4.126-13.628 4.114-16.876-.024-3.248-4.138 6.183 4.583 13.965-2.153 11.246-9.73-1.744-20.183 2.622-17.248 6.651 4.486 5.545 15.311.3 19.425h-.011Z" fill="#B5CAFF"/><path d="M26.221 53.008c-7.385 0-13.387-6.002-13.387-13.387 0-7.386 6.002-13.388 13.387-13.388 7.386 0 13.388 6.002 13.388 13.388 0 7.385-6.002 13.387-13.388 13.387Zm0-24.97c-6.387 0-11.583 5.196-11.583 11.583 0 6.387 5.196 11.583 11.583 11.583 6.387 0 11.583-5.196 11.583-11.583 0-6.387-5.196-11.583-11.583-11.583Z" fill="#1551E5"/><path d="M19.377 65a.919.919 0 0 1-.397-.096l-6.82-3.38a.897.897 0 0 1-.493-.914l.626-5.425c-.794-.806-2.863-2.959-3.994-4.643l-5.64.144c-.446 0-.807-.276-.903-.697l-1.732-7.41a.911.911 0 0 1 .385-.962l4.57-2.947c.085-1.082.337-3.813 1.071-5.833l-3.62-4.559a.904.904 0 0 1 0-1.13l4.835-5.882c.24-.301.65-.41.998-.277l5.076 1.816c1.732-1.335 3.464-2.129 5.46-2.814l1.168-5.533a.89.89 0 0 1 .878-.71h7.614c.384 0 .721.24.854.602l1.84 5.135c1.082.385 3.981 1.444 5.75 2.478l5.063-2.55a.89.89 0 0 1 1.107.24l4.775 5.93c.24.301.264.71.072 1.035l-2.863 4.667c.301.962 1.059 3.416 1.36 5.34l5.232 2.057a.915.915 0 0 1 .565.987l-1.431 8.744c-.072.445-.47.794-.914.758l-5.136-.157-3.633 4.68 1.492 5.52a.892.892 0 0 1-.41 1.01l-7.3 4.307a.899.899 0 0 1-1.167-.229l-3.44-4.426c-.962.132-3.007.409-4.39.409-.686 0-1.66-.048-2.25-.084l-3.548 4.462a.913.913 0 0 1-.71.337Zm-5.845-4.8 5.593 2.767 3.392-4.258a.927.927 0 0 1 .77-.337c.012 0 1.66.109 2.598.109 1.683 0 4.618-.457 4.642-.457a.928.928 0 0 1 .854.336l3.284 4.222 6.026-3.56-1.431-5.292a.902.902 0 0 1 .156-.782l4.186-5.4a.89.89 0 0 1 .746-.35l4.81.145 1.192-7.241-5.052-1.985a.896.896 0 0 1-.565-.734c-.253-2.225-1.468-5.881-1.48-5.918a.93.93 0 0 1 .084-.757l2.743-4.487-3.921-4.871-4.86 2.441a.898.898 0 0 1-.902-.06c-1.804-1.202-6.158-2.67-6.194-2.694a.892.892 0 0 1-.566-.553l-1.768-4.956h-6.242l-1.131 5.317a.92.92 0 0 1-.601.673c-2.178.722-3.994 1.516-5.786 2.995a.922.922 0 0 1-.878.157l-4.944-1.78-3.969 4.823 3.488 4.39a.9.9 0 0 1 .12.914c-.95 2.213-1.154 6.158-1.154 6.195a.896.896 0 0 1-.41.71l-4.425 2.85 1.419 6.074 5.425-.132c.348 0 .637.156.793.445 1.119 1.888 4.282 5.016 4.306 5.052.193.192.29.469.265.745l-.601 5.22-.012.025Z" fill="#1551E5"/><path d="M63.354 53.008a5.256 5.256 0 1 0 0-10.513 5.256 5.256 0 0 0 0 10.513Z" fill="#B5CAFF"/><path d="M61.716 54.295c-.493 0-.986-.048-1.48-.132a7.832 7.832 0 0 1-5.087-3.32 7.853 7.853 0 0 1-1.25-5.954c.805-4.306 4.967-7.145 9.273-6.35a7.832 7.832 0 0 1 5.088 3.319 7.853 7.853 0 0 1 1.25 5.954 7.832 7.832 0 0 1-3.32 5.088 7.903 7.903 0 0 1-4.474 1.395Zm-.024-14.085c-2.898 0-5.484 2.057-6.026 5.016a6.128 6.128 0 0 0 4.908 7.157 6.094 6.094 0 0 0 4.594-.975 6.105 6.105 0 0 0 2.562-3.933 6.094 6.094 0 0 0-.974-4.595 6.105 6.105 0 0 0-3.933-2.562 6.092 6.092 0 0 0-1.13-.108Z" fill="#1551E5"/><path d="M63.737 61.476a.919.919 0 0 1-.806-.493l-1.347-2.61c-.613-.037-1.612-.097-2.31-.23-.312-.06-.733-.156-1.058-.24l-2.273 1.973a.89.89 0 0 1-1.13.036l-3.429-2.574a.917.917 0 0 1-.325-.986l.842-2.73a8.576 8.576 0 0 1-1.07-2.01l-.313-.841 1.696-.626.313.842c.385 1.059 1.058 1.864 1.07 1.864.205.241.265.554.18.855l-.793 2.561 2.345 1.757 2.081-1.805a.918.918 0 0 1 .818-.192s.878.228 1.407.325c.903.168 2.55.216 2.562.216a.86.86 0 0 1 .77.493l1.227 2.37 3.103-1.13-.216-2.791a.894.894 0 0 1 .3-.746l2.875-2.562a.912.912 0 0 1 .794-.204l2.31.505 1.178-3.272-2.321-1.455a.891.891 0 0 1-.421-.83c.084-1.215-.205-3.332-.205-3.356a.88.88 0 0 1 .229-.722l1.804-1.997-1.383-2.574-2.646.758a.932.932 0 0 1-.878-.216c-.698-.686-2.454-1.72-3.067-2.07a.92.92 0 0 1-.458-.649l-.42-2.658-2.875-.541-1.059 2.538a.91.91 0 0 1-.71.553c-1.238.169-2.285.41-3.38 1.01a.903.903 0 0 1-.89 0l-2.357-1.383-2.297 1.708-1.07-1.455 2.778-2.057a.89.89 0 0 1 .998-.048l2.442 1.431c1.058-.505 2.069-.745 3.03-.902l1.144-2.742a.893.893 0 0 1 .998-.542l4.222.794a.909.909 0 0 1 .721.746l.457 2.85c.626.362 1.829 1.095 2.67 1.78l2.863-.829a.893.893 0 0 1 1.047.445l2.033 3.777a.911.911 0 0 1-.12 1.034l-1.95 2.165c.073.614.193 1.769.181 2.755l2.502 1.563c.36.229.517.674.373 1.071l-1.696 4.69a.908.908 0 0 1-1.034.578l-2.635-.577-2.2 1.948.24 3.02a.877.877 0 0 1-.59.914l-4.498 1.636a.896.896 0 0 1-.313.048l-.06.036ZM51.805 27.364c-.337 0-.685-.024-1.022-.06l-.902-.096.192-1.793.902.097c4.126.457 7.83-2.526 8.288-6.64a7.485 7.485 0 0 0-1.6-5.52 7.445 7.445 0 0 0-5.04-2.767 7.434 7.434 0 0 0-5.52 1.6 7.444 7.444 0 0 0-2.767 5.027l-.096.902-1.793-.192.096-.902c.566-5.1 5.16-8.805 10.273-8.228a9.251 9.251 0 0 1 6.242 3.428 9.235 9.235 0 0 1 1.985 6.844c-.53 4.752-4.57 8.288-9.25 8.288l.012.012Z" fill="#1551E5"/><path d="m65.89 29.313-1.624-.782 2.646-5.533-2.706-2.093a.896.896 0 0 1-.337-.866c.253-1.456.157-4.018.157-4.042 0-.264.096-.517.3-.697l2.466-2.238-1.443-3.476-3.368.626a.886.886 0 0 1-.854-.313c-.758-.902-2.742-2.37-3.44-2.85a.878.878 0 0 1-.385-.686l-.205-3.332-3.608-1.058-1.624 3.019a.92.92 0 0 1-.758.469c-1.515.06-2.802.216-4.197.818a.943.943 0 0 1-.89-.097l-2.695-1.96-3.103 2.117 1.335 3.271a.899.899 0 0 1-.144.915c-.998 1.214-1.852 3.668-1.864 3.692a.861.861 0 0 1-.602.566l-4.667 1.383-.517-1.732 4.234-1.251c.276-.746.902-2.25 1.684-3.368l-1.42-3.476a.904.904 0 0 1 .325-1.083L42.82 2.37a.905.905 0 0 1 1.035.012l2.802 2.044c1.36-.505 2.646-.673 3.837-.745l1.72-3.212a.923.923 0 0 1 1.047-.445l4.919 1.431c.36.109.626.433.65.818l.216 3.537c.674.493 2.141 1.575 3.067 2.525l3.597-.661a.907.907 0 0 1 .998.541l1.96 4.727a.89.89 0 0 1-.228 1.01l-2.634 2.394c.012.722.024 2.225-.12 3.452l2.862 2.213a.912.912 0 0 1 .265 1.107l-2.959 6.195h.036Z" fill="#1551E5"/></g></g><defs><clipPath id="bya"><path fill="#fff" transform="translate(-81 -1816)" d="M0 0h1440v9223H0z"/></clipPath><clipPath id="byb"><path fill="#fff" d="M0 0h76.523v65H0z"/></clipPath></defs></symbol><symbol fill="none" viewBox="0 0 72 55" id="advantages-five" xmlns="http://www.w3.org/2000/svg"><g clip-path="url(#bza)"><path d="M7.281 24.393C2.977 22.318 0 17.918 0 12.831 0 5.74 5.74 0 12.831 0c5.028 0 9.368 2.893 11.479 7.091l21.5.048a3.057 3.057 0 0 1 3.047 3.06v6.427h9.535c.486 0 .948.19 1.292.533l10.934 10.91c.344.344.533.807.533 1.293v17.42a3.06 3.06 0 0 1-3.06 3.06H61.89A6.677 6.677 0 0 1 55.39 55a6.677 6.677 0 0 1-6.498-5.158H29.48A6.677 6.677 0 0 1 22.982 55a6.677 6.677 0 0 1-6.499-5.158H10.33a3.06 3.06 0 0 1-3.06-3.06V24.393h.012Z" fill="#fff"/><path fill-rule="evenodd" clip-rule="evenodd" d="M52.58 21.986h4.258l7.673 7.66v3.617H52.58V21.986Zm-6.403 13.85H10.945v7.045h8.325a6.585 6.585 0 0 1 3.747-1.163c1.388 0 2.68.427 3.748 1.163h19.424v-7.044h-.012Z" fill="#B5CAFF"/><path fill-rule="evenodd" clip-rule="evenodd" d="M23.824 12.83c0 6.072-4.921 10.994-10.993 10.994S1.826 18.902 1.826 12.83c0-6.072 4.933-11.005 11.005-11.005 6.072 0 10.993 4.921 10.993 10.993v.012Zm-1.779 0c0 5.088-4.127 9.215-9.214 9.215-5.087 0-9.214-4.127-9.214-9.214 0-5.087 4.115-9.226 9.214-9.226 5.1 0 9.214 4.127 9.214 9.214v.012Z" fill="#1551E5"/><path fill-rule="evenodd" clip-rule="evenodd" d="M26.302 9.048a.896.896 0 0 0-.89.89c0 .486.404.889.89.889h19.14v24.239h-34.45v-8.752a.896.896 0 0 0-.889-.89.896.896 0 0 0-.889.89v20.017c0 .985.795 1.78 1.779 1.78h6.96v.213c0 2.798 2.29 5.04 5.088 5.04 2.799 0 5.087-2.242 5.087-5.04 0-2.799-2.288-5.04-5.087-5.04a5.083 5.083 0 0 0-4.672 3.047h-7.376v-9.486h34.449v9.486h-14.8a.896.896 0 0 0-.889.89c0 .486.403.89.89.89h19.602v.213c0 2.798 2.288 5.04 5.087 5.04s5.087-2.242 5.087-5.04v-.214h7.222a1.79 1.79 0 0 0 1.779-1.767l.036-6.19-.048-9.973c0-.474-.19-.925-.522-1.257l-9.984-9.961a1.777 1.777 0 0 0-1.258-.522h-6.202a.896.896 0 0 0-.889.89c0 .486.403.889.89.889h6.202l9.984 9.961.036 9.072H63.17a.896.896 0 0 0-.89.89c0 .485.403.889.89.889h4.494l-.036 5.3h-7.625a5.102 5.102 0 0 0-4.672-3.047 5.083 5.083 0 0 0-4.672 3.047h-3.44V10.827c0-.984-.794-1.779-1.778-1.779h-19.14Zm32.244 38.457s-.024-.059-.024-.095a3.302 3.302 0 0 0-3.178-2.347c-1.838 0-3.309 1.47-3.309 3.26 0 1.791 1.47 3.262 3.309 3.262 1.838 0 3.308-1.47 3.308-3.261 0-.285-.035-.558-.106-.819Zm-38.588-.367a3.326 3.326 0 0 1 3.083-2.075c1.838 0 3.309 1.47 3.309 3.26 0 1.791-1.47 3.262-3.309 3.262-1.838 0-3.308-1.47-3.308-3.261 0-.297.035-.593.118-.866l.107-.32Z" fill="#1551E5"/><circle cx="12.824" cy="12.825" r="10.999" fill="#1551E5"/><path d="m17.348 9.6-4.356 1.768-8.181-1.73 8.646 4.388L17.348 9.6Z" fill="#FF0016"/><path d="M10.143 13.132 5.59 18.315l5.126-2.065 9.57 2.018-10.143-5.136ZM12.93 10.715a1.367 1.367 0 0 0 1.258-1.468c-.075-.757-.718-1.317-1.484-1.25a1.364 1.364 0 0 0-1.243 1.467 1.373 1.373 0 0 0 1.469 1.25Z" fill="#fff"/></g><defs><clipPath id="bza"><path fill="#fff" d="M0 0h71.151v55H0z"/></clipPath></defs></symbol><symbol fill="none" viewBox="0 0 83 62" id="advantages-nine" xmlns="http://www.w3.org/2000/svg"><path d="M35.332 8.087c1.463-2.342 4.873-2.342 6.336 0l29.057 46.515c1.554 2.488-.235 5.715-3.169 5.715H9.444c-2.934 0-4.723-3.227-3.169-5.715L35.332 8.087Z" stroke="#1551E5" stroke-width="3"/><path d="m37.688 42.75-1.393-16.235v-1.283h5.204v1.283L40.143 42.75h-2.455Zm-1.21 8.137V45.83h4.875v5.057h-4.875Z" fill="#FF0217"/></symbol><symbol fill="none" viewBox="0 0 65 66" id="advantages-one" xmlns="http://www.w3.org/2000/svg"><path d="M46.376 15.105C17.965 9.863 9.165 27.786 8.316 37.403c-.75-5.31-.17-16.386 7.99-22.461 10.427-7.764 23.625-4.044 30.07.163Z" fill="#B5CAFF"/><path d="M18.099 44.58V34.54h1.958l3.946 5.852V34.54h2.09V44.58h-1.825l-4.078-6.068v6.068h-2.091Zm12.044-3.96c-1.65 0-2.783-1.276-2.783-3.026v-.086c0-1.75 1.134-3.027 2.797-3.027 1.65 0 2.783 1.277 2.783 3.027v.086c0 1.75-1.133 3.027-2.797 3.027Zm.014-1.348c.722 0 1.193-.703 1.193-1.65v-.1c0-.96-.471-1.692-1.207-1.692-.722 0-1.193.703-1.193 1.65v.1c0 .96.471 1.692 1.207 1.692Zm-2.65 3.5v-1.204h5.271v1.205h-5.27Z" fill="#1551E5"/><path d="M38.191 44.58V26.344l-4.16.996-1.09-4.185 6.853-1.993h3.58V44.58H38.19Z" fill="#FF0217"/><path fill-rule="evenodd" clip-rule="evenodd" d="M58.917 34.086c0 14.46-12.027 26.178-26.868 26.178-14.84 0-26.869-11.718-26.869-26.178 0-14.459 12.028-26.178 26.869-26.178 14.84 0 26.868 11.719 26.868 26.178Zm-3.544 0c0 12.539-10.432 22.725-23.324 22.725-12.892 0-23.325-10.164-23.325-22.725 0-12.56 10.433-22.725 23.325-22.725s23.324 10.165 23.324 22.725Z" fill="#1551E5"/></symbol><symbol fill="none" viewBox="0 0 66 56" id="advantages-seven" xmlns="http://www.w3.org/2000/svg"><g clip-path="url(#cca)"><path fill-rule="evenodd" clip-rule="evenodd" d="m32.146 38.434 2.48-5.536a.892.892 0 0 1 1.32-.326l.236.169a.975.975 0 0 1 .397.836l-.142 3.41a.95.95 0 0 1-.664.877l-1.79.533c-.577.172-1.822.663-1.837.037Z" fill="#B5CAFF"/><path d="M29.408 35.038c-.082 0-.165 0-.235-.035L.646 26.949a.886.886 0 0 1-.61-1.091.886.886 0 0 1 1.091-.61L29.654 33.3a.886.886 0 0 1-.235 1.738h-.011Z" fill="#1551E5"/><path fill-rule="evenodd" clip-rule="evenodd" d="M61.891 47.646H3.334l1.467 6.974H60.73l1.162-6.974Z" fill="#B5CAFF"/><path d="M21.742 5.689V2.754c0-1.409.95-2.254 2.547-2.254h17.34c1.56 0 2.535.869 2.535 2.266v5.646c0 1.386-.962 2.243-2.5 2.243H24.278c-1.585 0-2.525-.845-2.536-2.254V5.689Zm20.661-.094V2.777c0-.54-.176-.692-.774-.692h-17.34c-.61 0-.786.14-.786.68v5.636c0 .552.152.68.774.68h17.375c.575 0 .74-.152.751-.669V5.595ZM58.58 55.5H6.88c-2.442 0-4.426-2.125-4.426-4.731V26.902h1.76v23.879c0 1.631 1.198 2.97 2.665 2.97h51.702c1.467 0 2.664-1.327 2.664-2.97V25.975h1.761v24.794c0 2.606-1.984 4.73-4.425 4.73Z" fill="#1551E5"/><path d="M64.58 26.855c-.482 0-.881-.399-.881-.88V13.637a2.973 2.973 0 0 0-2.97-2.97H4.73a2.973 2.973 0 0 0-2.97 2.97v12.338a.88.88 0 1 1-1.76 0V13.637a4.74 4.74 0 0 1 4.73-4.731H60.73a4.74 4.74 0 0 1 4.731 4.73v12.339c0 .481-.4.88-.88.88Z" fill="#1551E5"/><path d="M64.327 25.123 36.26 33.161l.485 1.693 28.068-8.038-.485-1.693Z" fill="#1551E5"/><path d="M37.379 39.581h-8.852V30.73h8.852v8.852Zm-7.09-1.76h5.329v-5.33h-5.33v5.33Z" fill="#FF0217"/></g><defs><clipPath id="cca"><path fill="#fff" transform="translate(0 .5)" d="M0 0h65.46v55H0z"/></clipPath></defs></symbol><symbol fill="none" viewBox="0 0 77 56" id="advantages-six" xmlns="http://www.w3.org/2000/svg"><g clip-path="url(#cda)"><path d="M16.07 21.424a5.341 5.341 0 1 0 0-10.682 5.341 5.341 0 0 0 0 10.682ZM65.31 21.424a5.341 5.341 0 1 0 0-10.682 5.341 5.341 0 0 0 0 10.682Z" fill="#B5CAFF"/><path fill-rule="evenodd" clip-rule="evenodd" d="M53.811 26.486c-2.211 2.616-2.487 6.834-.435 8.592 2.052 1.76-2.203-3.263 1.483-7.052 5.329-5.468 25.782 4.314 15.125-3.228-3.304-2.336-12.585-2.573-16.173 1.688ZM3.712 26.486C1.501 29.102-.853 32.681 1.2 34.44c2.052 1.758-.133-2.625 3.561-6.414 5.329-5.468 29.015 5.023 15.125-3.228-3.481-2.065-12.585-2.573-16.173 1.688Z" fill="#B5CAFF"/><path d="M13.846 23.538c-4.174 0-7.567-3.343-7.567-7.455s3.393-7.455 7.567-7.455 7.567 3.343 7.567 7.455-3.393 7.455-7.567 7.455Zm0-13.597c-3.437 0-6.235 2.756-6.235 6.142 0 3.386 2.798 6.142 6.235 6.142 3.437 0 6.234-2.756 6.234-6.142 0-3.386-2.797-6.142-6.234-6.142Z" fill="#1551E5"/><path d="M27.763 35.105H0v-.656c0-.202.018-5.049 3.624-8.61 2.424-2.397 5.861-3.614 10.213-3.614 12.345 0 13.828 12.031 13.837 12.154l.08.726h.009ZM1.377 33.792h24.858c-.497-2.467-2.815-10.254-12.398-10.254-3.988 0-7.105 1.085-9.272 3.228-2.487 2.45-3.064 5.67-3.197 7.026h.009ZM63.083 23.538c-4.174 0-7.567-3.343-7.567-7.455s3.393-7.455 7.567-7.455 7.567 3.343 7.567 7.455-3.393 7.455-7.567 7.455Zm0-13.597c-3.437 0-6.234 2.756-6.234 6.142 0 3.386 2.797 6.142 6.234 6.142s6.235-2.756 6.235-6.142c0-3.386-2.798-6.142-6.235-6.142Z" fill="#1551E5"/><path d="M77 35.105H49.237v-.656c0-.202.018-5.049 3.624-8.61 2.425-2.397 5.861-3.614 10.213-3.614 12.345 0 13.828 12.031 13.837 12.154l.08.726H77Zm-26.386-1.313h24.858c-.497-2.467-2.815-10.254-12.398-10.254-5.195 0-8.88 1.82-10.941 5.407-1.102 1.916-1.43 3.867-1.528 4.847h.009Z" fill="#1551E5"/><path d="M38.464 23.538c6.273 0 11.36-5.01 11.36-11.191 0-6.18-5.087-11.19-11.36-11.19s-11.359 5.01-11.359 11.19 5.086 11.19 11.359 11.19Z" fill="#fff"/><path d="M38.464 24.194c-6.634 0-12.025-5.311-12.025-11.847S31.829.5 38.464.5c6.634 0 12.025 5.311 12.025 11.847S45.1 24.194 38.464 24.194Zm0-22.382c-5.897 0-10.693 4.725-10.693 10.535 0 5.81 4.796 10.534 10.693 10.534 5.897 0 10.693-4.724 10.693-10.534 0-5.81-4.796-10.535-10.693-10.535Z" fill="#1551E5"/><path fill-rule="evenodd" clip-rule="evenodd" d="M60.152 42.577H16.777s-.072-19.04 21.687-19.04c19.575 0 21.688 19.04 21.688 19.04Z" fill="#fff"/><path d="M60.898 43.233H16.11v-.656c0-.333.036-8.137 5.844-13.877 3.908-3.867 9.468-5.827 16.51-5.827 19.939 0 22.328 19.433 22.354 19.625l.08.726v.01ZM17.47 41.921h41.91c-.603-3.465-4.102-17.727-20.923-17.727-6.67 0-11.91 1.829-15.551 5.425-4.485 4.427-5.294 10.35-5.436 12.302Z" fill="#1551E5"/><path fill-rule="evenodd" clip-rule="evenodd" d="m42.301 38.5 8.615 1.128-6.155 6.055 1.572 8.426-7.744-3.902-7.647 4.077 1.368-8.46-6.297-5.907 8.588-1.33 3.757-7.726L42.3 38.5Z" fill="#fff"/><path d="m30.072 55.5 1.527-9.432-7.025-6.588 9.574-1.488 4.192-8.618 4.396 8.513 9.61 1.26-6.865 6.746 1.75 9.397-8.633-4.349-8.526 4.542v.017Zm-2.62-15.137 5.577 5.233-1.208 7.49 6.768-3.606 6.856 3.448-1.394-7.455 5.444-5.355-7.629-1.006-3.49-6.763-3.322 6.842-7.602 1.181v-.009Z" fill="#FF0016"/></g><defs><clipPath id="cda"><path fill="#fff" transform="translate(0 .5)" d="M0 0h77v55H0z"/></clipPath></defs></symbol><symbol fill="none" viewBox="0 0 65 56" id="advantages-three" xmlns="http://www.w3.org/2000/svg"><g clip-path="url(#cea)"><path d="M4.598 34.024H.873v20.335h3.725V34.024Z" fill="#B5CAFF"/><path d="M31.94 55.383h-2.863c-1.269 0-2.177-.873-2.27-2.165V19.404H23.141c-.768 0-1.42-.384-1.758-.99-.337-.605-.303-1.362.105-2.014.943-1.536 1.897-3.06 2.84-4.586l2.712-4.353c1.2-1.92 2.386-3.842 3.585-5.762C31.254.675 32.07.546 32.441.523c.396 0 1.164.152 1.781 1.14 3.062 4.901 6.111 9.802 9.15 14.703.407.663.453 1.431.116 2.048-.35.629-1.024 1.001-1.816 1.013h-3.597V29.95c0 .43-.175.908-.454 1.245-3.073 3.783-4.307 8.125-3.666 12.898.395 2.968 1.606 5.703 3.596 8.113.64.78.652 1.548.024 2.34-.454.57-1.071.872-1.793.872H31.999l-.058-.035Zm-4.818-37.737h1.42V53.09c.035.477.302.535.535.535h6.635a.49.49 0 0 0 .43-.21.434.434 0 0 1 .06-.07c-.013-.023-.036-.046-.06-.07-2.2-2.665-3.538-5.691-3.98-8.997-.71-5.273.652-10.057 4.05-14.236a.407.407 0 0 0 .059-.152c.011-2.898.011-5.796 0-8.695v-3.562H41.602c.163 0 .268-.058.303-.105.023-.046.023-.14-.07-.279L32.685 2.55c-.15-.245-.267-.315-.302-.315-.023 0-.151.082-.326.35-1.187 1.92-2.386 3.84-3.585 5.761L25.76 12.7a967.158 967.158 0 0 0-2.84 4.574c-.082.128-.082.222-.059.256.024.035.105.082.256.094H27.087l.035.023Z" fill="#1551E5"/><path d="M18.822 55.383H15.75c-1.292 0-2.211-.85-2.328-2.141-.011-.163-.011-.338-.011-.5v-24.76c0-.279 0-.512.034-.733.163-1.187 1.06-1.99 2.235-2.002 2.235-.012 4.47-.012 6.693 0 1.2 0 2.154.896 2.259 2.13.011.14.011.28.011.42V52.81c0 .314-.023.652-.128 1.001-.29.966-1.164 1.583-2.211 1.583H18.81l.011-.012Zm.315-28.402H15.69c-.198 0-.454.059-.512.49-.023.15-.023.302-.023.453v25.132c.034.395.21.558.593.558h6.554c.29 0 .477-.116.547-.349.035-.128.046-.314.046-.489V27.53c0-.129-.081-.536-.535-.536h-3.224v-.012ZM5.739 55.383H2.49C.931 55.383 0 54.441 0 52.857V35.666c0-1.548.966-2.514 2.503-2.514h6.25c1.525 0 2.48.954 2.48 2.479v17.239c0 1.572-.931 2.503-2.491 2.514H5.739Zm-.105-20.486h-3.12c-.593 0-.768.174-.768.768v17.193c0 .605.163.78.745.78h6.24c.604 0 .756-.152.756-.769V35.642c0-.57-.163-.734-.734-.745h-3.12Z" fill="#1551E5"/><path fill-rule="evenodd" clip-rule="evenodd" d="M56.642 52.464c-6.183 2.962-14.587 1.074-16.923-3.8-2.335-4.874 5.073 6.448 14.972 1.115 13.462-7.253 2.288-20.794 6.003-16.865 5.665 5.987 2.142 16.591-4.052 19.55Z" fill="#B5CAFF"/><path fill-rule="evenodd" clip-rule="evenodd" d="M64.452 41.38c0 7.8-6.32 14.12-14.12 14.12-7.798 0-14.119-6.32-14.119-14.12 0-7.799 6.32-14.12 14.12-14.12 7.799 0 14.12 6.321 14.12 14.12Zm-1.862 0c0 6.763-5.483 12.258-12.257 12.258-6.775 0-12.257-5.483-12.257-12.258 0-6.774 5.482-12.257 12.257-12.257 6.774 0 12.257 5.483 12.257 12.257Z" fill="#1551E5"/><path d="M51.368 34.582h-3.061c-.629 0-1.14.512-1.14 1.141v4.703h-.85c-.63 0-1.141.512-1.141 1.14v.163c0 .629.512 1.141 1.14 1.141h.85v1.118h-.85c-.628 0-1.14.512-1.14 1.14v.163c0 .629.512 1.141 1.14 1.141h.85v.605c0 .629.512 1.141 1.14 1.141h.164c.628 0 1.14-.512 1.14-1.14v-.606h2.492c.628 0 1.14-.512 1.14-1.14v-.164c0-.628-.512-1.14-1.14-1.14H49.61V42.87h1.757a4.161 4.161 0 0 0 2.934-1.222 4.19 4.19 0 0 0 1.222-2.933 4.161 4.161 0 0 0-1.222-2.934 4.19 4.19 0 0 0-2.934-1.222v.023Zm0 5.844h-1.757v-3.4h1.757c.931 0 1.7.77 1.7 1.7 0 .931-.768 1.7-1.7 1.7Z" fill="#FF0016"/></g><defs><clipPath id="cea"><path fill="#fff" transform="translate(0 .5)" d="M0 0h64.452v55H0z"/></clipPath></defs></symbol><symbol fill="none" viewBox="0 0 66 56" id="advantages-two" xmlns="http://www.w3.org/2000/svg"><g clip-path="url(#cfa)"><path fill-rule="evenodd" clip-rule="evenodd" d="M64.208 30.575H25.882l1.558 6.902h36.768v-6.902ZM25.87 48.191c.104 1.5-4.49 5.24-10.367 5.624-5.875.384-9.339-.162-9.339-1.673 0-4.683 5.357-4.218 8.855-5.194 11.578-3.23 10.747-.268 10.851 1.243Z" fill="#B5CAFF"/><path d="M61.275.5H16.773c-2.459 0-4.456 2.011-4.456 4.486v20.452c0 2.476 1.732 1.511 1.732 0V4.986c0-1.51 1.223-2.742 2.724-2.742h44.502C62.776 2.244 64 3.476 64 4.986V34.2c0 1.511-1.224 2.743-2.725 2.743H26.54c.243.476.173 1.08-.161 1.487 0 .081-.023.163-.046.256h34.943c2.46 0 4.456-2.01 4.456-4.486V4.986c0-2.475-1.997-4.485-4.456-4.485Z" fill="#1551E5"/><path d="M13.737 40.232C6.037 40.232 0 36.978 0 32.829c0-4.148 6.038-7.402 13.737-7.402 7.7 0 13.738 3.254 13.738 7.402 0 4.149-6.038 7.403-13.738 7.403Zm0-13.05c-6.51 0-12.005 2.591-12.005 5.659 0 3.068 5.495 5.66 12.005 5.66 6.511 0 12.006-2.592 12.006-5.66s-5.495-5.66-12.006-5.66Z" fill="#1551E5"/><path d="M13.737 55.5c-7.122 0-12.329-2.928-13.633-6.472C.058 48.9 0 48.772 0 48.62v-15.78c0-.477.392-.872.866-.872.473 0 .866.395.866.871v7.635c0 3.068 5.495 5.66 12.005 5.66 6.87 0 12.006-3.29 12.006-6.23 0-.476.393-.87.866-.87s.866.394.866.87v7.636c0 4.322-6.292 7.971-13.738 7.971v-.011ZM1.732 48.099c0 3.068 5.495 5.66 12.005 5.66 6.87 0 12.006-3.29 12.006-6.23v-3.822c-2.366 2.452-6.915 4.16-12.006 4.16-5.09 0-9.674-1.5-12.005-3.754v3.986Z" fill="#1551E5"/><path d="M26.609 49.481a.875.875 0 0 1-.866-.871V32.83c0-.477.393-.872.866-.872s.866.395.866.871v14.235c0 .477-.393 2.417-.866 2.417Z" fill="#1551E5"/><path d="M27.729 12.644c1.95 0 3.532-1.592 3.532-3.556S29.68 5.532 27.73 5.532s-3.533 1.592-3.533 3.556 1.582 3.556 3.533 3.556Z" fill="#FF0217"/><path d="m32.138 19.93-18.505-8.622.288-1.79 17.801 8.297 6.673-7.146 1.258 1.185-7.515 8.076ZM44.894 30.26 21.898 20.197l-6.245 6.705-1.258-1.197 7.076-7.6 24.116 10.552-.693 1.604Z" fill="#1551E5"/></g><defs><clipPath id="cfa"><path fill="#fff" transform="translate(0 .5)" d="M0 0h65.732v55H0z"/></clipPath></defs></symbol><symbol viewBox="0 0 16 17" id="annotations" xmlns="http://www.w3.org/2000/svg"><path clip-rule="evenodd" d="M7.333 5.833a.667.667 0 1 1 1.334 0 .667.667 0 0 1-1.334 0Zm0 2a.667.667 0 0 1 1.333 0v3.334a.667.667 0 0 1-1.333 0V7.833Zm.667 6A5.34 5.34 0 0 1 2.666 8.5 5.34 5.34 0 0 1 8 3.167 5.34 5.34 0 0 1 13.333 8.5 5.34 5.34 0 0 1 8 13.833Zm0-12a6.667 6.667 0 1 0 0 13.333A6.667 6.667 0 0 0 8 1.833Z"/></symbol><symbol viewBox="0 0 24 24" id="arrow-down" xmlns="http://www.w3.org/2000/svg"><path fill-rule="evenodd" clip-rule="evenodd" d="M12 15.5a.997.997 0 0 1-.707-.293l-4-4a.999.999 0 1 1 1.414-1.414l3.305 3.305 3.293-3.18a1 1 0 0 1 1.39 1.439l-4 3.862A.997.997 0 0 1 12 15.5Z"/></symbol><symbol viewBox="0 0 24 24" id="arrow-left" xmlns="http://www.w3.org/2000/svg"><path clip-rule="evenodd" d="M13.829 19a.998.998 0 0 1-.78-.373l-4.828-6a1 1 0 0 1 .01-1.267l5-6a1 1 0 1 1 1.536 1.28l-4.474 5.371 4.315 5.362a1 1 0 0 1-.78 1.627Z"/></symbol><symbol viewBox="0 0 24 24" id="arrow-right" xmlns="http://www.w3.org/2000/svg"><path clip-rule="evenodd" d="M10 19a1 1 0 0 1-.768-1.64l4.476-5.371-4.316-5.362a1 1 0 0 1 1.56-1.254l4.828 6a1 1 0 0 1-.011 1.267l-5 6a1 1 0 0 1-.77.36Z"/></symbol><symbol viewBox="0 0 24 24" id="bar" xmlns="http://www.w3.org/2000/svg"><path clip-rule="evenodd" d="M5.737 6h12.524c.406 0 .738.427.738.949v.102c0 .522-.332.949-.738.949H5.737C5.331 8 5 7.573 5 7.051v-.102C5 6.427 5.331 6 5.737 6Zm12.524 5H5.737c-.406 0-.737.427-.737.949v.102c0 .522.331.949.737.949h12.524c.406 0 .738-.427.738-.949v-.102c0-.522-.332-.949-.738-.949Zm0 5H5.737c-.406 0-.737.427-.737.949v.102c0 .522.331.949.737.949h12.524c.406 0 .738-.427.738-.949v-.102c0-.522-.332-.949-.738-.949Z"/><path clip-rule="evenodd" d="M5.737 6h12.524c.406 0 .738.427.738.949v.102c0 .522-.332.949-.738.949H5.737C5.331 8 5 7.573 5 7.051v-.102C5 6.427 5.331 6 5.737 6Zm12.524 5H5.737c-.406 0-.737.427-.737.949v.102c0 .522.331.949.737.949h12.524c.406 0 .738-.427.738-.949v-.102c0-.522-.332-.949-.738-.949Zm0 5H5.737c-.406 0-.737.427-.737.949v.102c0 .522.331.949.737.949h12.524c.406 0 .738-.427.738-.949v-.102c0-.522-.332-.949-.738-.949Z"/></symbol><symbol viewBox="0 0 24 24" id="basket" xmlns="http://www.w3.org/2000/svg"><path clip-rule="evenodd" d="M16.382 14H8.764L7.127 8h12.255l-3 6Zm4.701-7.052A1.986 1.986 0 0 0 19.382 6h-12.8l-.617-2.263A1 1 0 0 0 5 3H3a1 1 0 1 0 0 2h1.236l2.799 10.263A1 1 0 0 0 8 16h9c.379 0 .725-.214.895-.553l3.276-6.553a1.986 1.986 0 0 0-.088-1.946ZM7.5 18a1.5 1.5 0 1 0 0 3 1.5 1.5 0 0 0 0-3Zm8.5 1.5a1.5 1.5 0 1 1 3 0 1.5 1.5 0 0 1-3 0Z"/><path clip-rule="evenodd" d="M16.382 14H8.764L7.127 8h12.255l-3 6Zm4.701-7.052A1.986 1.986 0 0 0 19.382 6h-12.8l-.617-2.263A1 1 0 0 0 5 3H3a1 1 0 1 0 0 2h1.236l2.799 10.263A1 1 0 0 0 8 16h9c.379 0 .725-.214.895-.553l3.276-6.553a1.986 1.986 0 0 0-.088-1.946ZM7.5 18a1.5 1.5 0 1 0 0 3 1.5 1.5 0 0 0 0-3Zm8.5 1.5a1.5 1.5 0 1 1 3 0 1.5 1.5 0 0 1-3 0Z"/></symbol><symbol viewBox="0 0 24 24" id="bookmark" xmlns="http://www.w3.org/2000/svg"><path fill-rule="evenodd" clip-rule="evenodd" d="M10.56 8.44a1.5 1.5 0 1 1-2.12 2.12 1.5 1.5 0 0 1 2.12-2.12Zm-4.726 4.452 6.032 6.032 7.058-7.057-6.032-6.034-7.785-.726.727 7.785Zm6.032 8.107c-.465 0-.93-.177-1.284-.53L4.165 14.05a1 1 0 0 1-.29-.614l-.871-9.344a1.002 1.002 0 0 1 1.089-1.088l9.344.872a.995.995 0 0 1 .614.288l6.417 6.418c.343.342.532.798.532 1.284s-.19.943-.532 1.286l-7.317 7.316a1.81 1.81 0 0 1-1.285.53Z"/><path fill-rule="evenodd" clip-rule="evenodd" d="M10.56 8.44a1.5 1.5 0 1 1-2.12 2.12 1.5 1.5 0 0 1 2.12-2.12Zm-4.726 4.452 6.032 6.032 7.058-7.057-6.032-6.034-7.785-.726.727 7.785Zm6.032 8.107c-.465 0-.93-.177-1.284-.53L4.165 14.05a1 1 0 0 1-.29-.614l-.871-9.344a1.002 1.002 0 0 1 1.089-1.088l9.344.872a.995.995 0 0 1 .614.288l6.417 6.418c.343.342.532.798.532 1.284s-.19.943-.532 1.286l-7.317 7.316a1.81 1.81 0 0 1-1.285.53Z"/></symbol><symbol viewBox="0 0 16 16" id="brand-label" xmlns="http://www.w3.org/2000/svg"><path clip-rule="evenodd" d="M7.04 5.626A1 1 0 1 1 5.627 7.04 1 1 0 0 1 7.04 5.626ZM3.89 8.594l4.02 4.022 4.706-4.705L8.595 3.89l-5.19-.484.484 5.19ZM7.91 14c-.31 0-.619-.118-.855-.353L2.777 9.367a.666.666 0 0 1-.193-.41l-.581-6.229a.668.668 0 0 1 .726-.725l6.23.581c.154.014.298.082.408.192l4.278 4.278c.23.23.355.533.355.857 0 .324-.126.628-.355.857l-4.878 4.877a1.207 1.207 0 0 1-.856.354Z"/></symbol><symbol viewBox="0 0 16 16" id="brand-size" xmlns="http://www.w3.org/2000/svg"><path clip-rule="evenodd" d="M4 3.333c-.367 0-.667.3-.667.667v8c0 .367.3.667.667.667h8c.367 0 .667-.3.667-.667V4c0-.367-.3-.667-.667-.667H4ZM12 14H4c-1.103 0-2-.897-2-2V4c0-1.103.897-2 2-2h8c1.103 0 2 .897 2 2v8c0 1.103-.897 2-2 2Z"/><path clip-rule="evenodd" d="M6 10.667a.666.666 0 1 1-.002-1.332A.666.666 0 0 1 6 10.667ZM10 9.333a.666.666 0 1 1 0 1.332.666.666 0 0 1 0-1.332ZM10 6.667a.666.666 0 1 1 0-1.333.666.666 0 0 1 0 1.333ZM6 6.667a.666.666 0 1 1-.002-1.332A.666.666 0 0 1 6 6.667Z"/></symbol><symbol viewBox="0 0 16 16" id="brand-type" xmlns="http://www.w3.org/2000/svg"><path clip-rule="evenodd" d="m12.46 10.642-3.793 1.763V7.927l4-1.858v4.29c0 .116-.079.224-.207.283Zm-8.925 0c-.126-.058-.203-.166-.202-.287V6.069l4 1.858v4.479l-3.798-1.763Zm4.27-7.266a.458.458 0 0 1 .39 0l3.552 1.65L8 6.765l-3.748-1.74 3.553-1.65Zm5.966 1.463-.004-.016c-.002-.006-.008-.01-.01-.014-.032-.051-.069-.096-.104-.142-.02-.023-.038-.048-.06-.068a1.682 1.682 0 0 0-.57-.452L8.754 2.165a1.8 1.8 0 0 0-1.51 0L2.978 4.147c-.229.106-.414.267-.57.45-.026.022-.044.05-.066.074-.034.045-.07.088-.099.136-.003.006-.009.01-.011.016-.003.006-.002.012-.005.018-.14.24-.228.512-.228.798v4.71a1.66 1.66 0 0 0 .972 1.502l4.266 1.982a1.792 1.792 0 0 0 1.517 0l4.265-1.981c.595-.275.98-.86.98-1.492V5.638c0-.285-.088-.557-.23-.799Z"/></symbol><symbol viewBox="0 0 24 24" id="calendar" xmlns="http://www.w3.org/2000/svg"><path clip-rule="evenodd" d="M7 16c0-.55.45-1 1-1s1 .45 1 1-.45 1-1 1-1-.45-1-1Zm5-1h4c.55 0 1 .45 1 1s-.45 1-1 1h-4c-.55 0-1-.45-1-1s.45-1 1-1Zm6 5H6c-.551 0-1-.449-1-1v-6h14v6c0 .551-.449 1-1 1ZM6 6h1v1c0 .55.45 1 1 1s1-.45 1-1V6h6v1c0 .55.45 1 1 1s1-.45 1-1V6h1c.551 0 1 .449 1 1v4H5V7c0-.551.449-1 1-1Zm12-2h-1V3c0-.55-.45-1-1-1s-1 .45-1 1v1H9V3c0-.55-.45-1-1-1s-1 .45-1 1v1H6C4.346 4 3 5.346 3 7v12c0 1.654 1.346 3 3 3h12c1.654 0 3-1.346 3-3V7c0-1.654-1.346-3-3-3Z"/></symbol><symbol viewBox="0 0 24 24" id="car" xmlns="http://www.w3.org/2000/svg"><path clip-rule="evenodd" d="M19 18a1 1 0 1 1-2 0 1 1 0 0 1 2 0Zm-7-3H4l.016-10H15l-.016 10H12Zm-5 3a1 1 0 1 1-2 0 1 1 0 0 1 2 0Zm13-5.52V15h-3v-4.919l3 2.399Zm1.625-1.261L17 7.519V5c0-1.103-.813-2-1.813-2H3.812C2.813 3 2 3.897 2 5v10c0 .873.513 1.609 1.221 1.882C3.081 17.228 3 17.604 3 18c0 1.654 1.346 3 3 3s3-1.346 3-3c0-.353-.072-.686-.185-1h6.37A2.938 2.938 0 0 0 15 18c0 1.654 1.346 3 3 3s3-1.346 3-3c0-.353-.072-.686-.185-1H21a1 1 0 0 0 1-1v-4a1 1 0 0 0-.375-.781Z"/><path clip-rule="evenodd" d="M19 18a1 1 0 1 1-2 0 1 1 0 0 1 2 0Zm-7-3H4l.016-10H15l-.016 10H12Zm-5 3a1 1 0 1 1-2 0 1 1 0 0 1 2 0Zm13-5.52V15h-3v-4.919l3 2.399Zm1.625-1.261L17 7.519V5c0-1.103-.813-2-1.813-2H3.812C2.813 3 2 3.897 2 5v10c0 .873.513 1.609 1.221 1.882C3.081 17.228 3 17.604 3 18c0 1.654 1.346 3 3 3s3-1.346 3-3c0-.353-.072-.686-.185-1h6.37A2.938 2.938 0 0 0 15 18c0 1.654 1.346 3 3 3s3-1.346 3-3c0-.353-.072-.686-.185-1H21a1 1 0 0 0 1-1v-4a1 1 0 0 0-.375-.781Z"/></symbol><symbol viewBox="0 0 16 16" id="check" xmlns="http://www.w3.org/2000/svg"><path clip-rule="evenodd" d="M10.039 5.43a1.11 1.11 0 0 1 1.517-.228c.483.342.588.998.234 1.466L8.431 11.1a1 1 0 0 1-1.492.114L4.317 8.677a1.023 1.023 0 0 1 .002-1.483 1.113 1.113 0 0 1 1.535.002l1.641 1.59 2.544-3.357Z"/></symbol><symbol viewBox="0 0 25 24" id="chevron-down" xmlns="http://www.w3.org/2000/svg"><path clip-rule="evenodd" d="M12.5 15.5a.997.997 0 0 1-.707-.293l-4-4a.999.999 0 1 1 1.414-1.414l3.305 3.305 3.293-3.18a1 1 0 0 1 1.39 1.439l-4 3.862a.997.997 0 0 1-.695.281Z"/></symbol><symbol viewBox="0 0 16 16" id="close" xmlns="http://www.w3.org/2000/svg"><path clip-rule="evenodd" d="m8.943 8 2.862-2.862a.666.666 0 1 0-.943-.943L8 7.057 5.138 4.195a.666.666 0 1 0-.942.943L7.058 8l-2.862 2.862a.666.666 0 1 0 .942.943L8 8.943l2.862 2.862a.665.665 0 0 0 .943 0 .666.666 0 0 0 0-.943L8.943 8Z"/></symbol><symbol fill="none" viewBox="0 0 177 32" id="columbia" xmlns="http://www.w3.org/2000/svg"><g clip-path="url(#aea)"><path d="M9.49 18.98c.882.882.882 2.206 0 3.089l-.773.772c-.883.883-2.207.883-3.09 0L.663 17.876c-.883-.883-.883-2.207 0-3.09l.772-.772c.883-.883 2.207-.883 3.09 0l4.966 4.965Zm-.552-9.49c-.883-.883-2.207-.883-3.09 0l-.772.772c-.883.883-.883 2.207 0 3.09l4.965 4.965c.883.883 2.207.883 3.09 0l.772-.772c.883-.883.883-2.207 0-3.09L8.938 9.49Zm13.241 4.413c-.882-.882-2.207-.882-3.09 0l-.772.773c-.883.883-.883 2.207 0 3.09l4.966 4.965c.883.883 2.207.883 3.09 0l.772-.772c.883-.883.883-2.207 0-3.09l-4.966-4.966Zm4.524-4.524c-.882-.882-2.206-.882-3.09 0l-.772.773c-.882.883-.882 2.207 0 3.09l4.966 4.965c.883.883 2.207.883 3.09 0l.772-.773c.883-.882.883-2.206 0-3.09L26.703 9.38Zm-8.275-4.855c.882-.883.882-2.207 0-3.09l-.773-.772c-.883-.883-2.207-.883-3.09 0L9.6 5.628c-.883.882-.883 2.206 0 3.09l.772.772c.883.882 2.207.882 3.09 0l4.966-4.966Zm4.413 4.414c.883-.883.883-2.207 0-3.09l-.772-.772c-.883-.883-2.207-.883-3.09 0l-4.965 4.965c-.883.883-.883 2.207 0 3.09l.772.772c.883.883 2.207.883 3.09 0l4.965-4.965Zm-4.413 13.02c.882-.882.882-2.206 0-3.089l-.773-.772c-.883-.883-2.207-.883-3.09 0L9.6 23.062c-.883.883-.883 2.207 0 3.09l.772.772c.883.883 2.207.883 3.09 0l4.966-4.965Zm4.413 4.414c.883-.882.883-2.206 0-3.09l-.772-.772c-.883-.882-2.207-.882-3.09 0l-4.855 5.076c-.883.883-.883 2.207 0 3.09l.773.772c.882.883 2.206.883 3.09 0l4.854-5.076Zm36.194-4.303c.11.22.772 1.214.772 1.214-.331 1.545-1.324 3.641-1.324 3.641l-.11.11c-3.642 1.435-9.38 2.649-15.449.221-3.641-1.434-6.29-4.303-7.283-8.055-1.103-3.862-.33-8.055 2.097-11.366 2.648-3.53 6.841-5.517 12.58-5.848 2.206-.11 6.62.442 9.047 1.876h.221s.11 6.069 0 6.29l-.11.33-1.766.111-.11-.662c-.331-1.765-1.103-6.4-7.614-6.069-2.758.11-5.076 1.545-6.73 3.752-2.097 2.758-2.65 6.4-1.766 10.593.882 3.972 3.972 6.51 6.29 7.503.992.331 4.082 1.104 6.4 0 1.986-.993 3.972-2.538 4.855-3.641Zm22.29 6.4V7.614c0-.662 0-1.766-.663-2.538-.11-.11-1.103-.883-1.103-.883V3.31l5.627-1.103.552.33v22.4c.11 2.098 1.545 2.318 1.545 2.318v1.324l-5.959-.11Zm24.827-1.434c-.993-.221-1.545-1.104-1.545-2.538V11.255l-.441-.22-5.628 1.103v.883s.993.772 1.103.882c.662.773.662 1.876.662 2.538v7.835c-1.875 1.434-3.53 1.876-4.744 1.324-.883-.441-1.435-1.545-1.435-3.09V11.255l-.441-.22-5.628 1.103v.883s.993.772 1.104.882c.772.773.772 1.876.662 2.538v6.731c0 1.325.11 1.766.22 2.318.331 1.434 1.214 2.427 2.428 2.869 1.986.772 4.855 0 7.834-1.987v1.876h6.18v-1.213h-.331Zm28.027 0c-.993-.221-1.434-1.104-1.545-2.538V16.44c0-1.875-.993-5.406-4.634-5.406-2.759 0-4.524 1.655-5.517 2.537-.552-1.213-1.766-2.537-3.973-2.537-1.765 0-3.31.662-4.855 1.986v-1.655l-.552-.332-5.627 1.104v.883s.993.772 1.103.882c.662.773.662 1.876.662 2.538v11.807h6.18v-1.213l-.331-.11c-.993-.222-1.435-.994-1.435-2.539v-9.49c1.104-.882 2.207-1.103 3.311-.993.882.11 1.875.773 1.875 4.083v10.152h6.069v-1.214l-.331-.11c-.993-.22-1.434-.993-1.545-2.538V16.22c0-.221 0-.883-.11-1.324 1.104-.994 2.207-1.104 3.31-.994.883.11 1.876.773 1.876 4.083v10.152h6.069v-1.214.11Zm-54.841-7.283c0-2.538-.883-4.855-2.428-6.4-1.655-1.655-3.972-2.538-6.841-2.538-5.297 0-9.269 3.862-9.269 8.938 0 5.407 3.641 8.938 9.269 8.938 2.648 0 5.076-.883 6.731-2.538 1.655-1.766 2.538-3.973 2.538-6.4Zm-9.269 6.951c-3.42 0-4.414-2.648-4.414-7.062 0-3.2.993-7.062 4.414-7.062 3.42 0 4.414 3.862 4.414 7.062 0 4.414-.993 7.062-4.414 7.062Zm84.855-21.075c0-1.214.993-2.318 2.317-2.318 1.214 0 2.318.993 2.318 2.318 0 1.324-.993 2.317-2.318 2.317-1.324 0-2.317-1.104-2.317-2.317Zm.221 22.62V16.331c0-.662 0-1.765-.662-2.538-.111-.11-1.104-.883-1.104-.883v-.882l5.628-1.104.552.331v13.242c0 1.434.551 2.317 1.434 2.538l.331.11v1.214l-6.179-.11Zm-3.2-13.13c-1.214-2.097-2.759-3.421-4.635-3.863-2.648-.662-5.296.552-6.951 1.435V2.428l-.552-.331-5.628 1.103v.883s.993.772 1.104.883c.662.772.662 1.765.662 2.537v19.532l.221.11c3.2 1.655 7.393 1.876 10.482.662 3.421-1.435 4.966-3.862 5.518-5.628 1.103-2.758.662-5.517-.221-7.062Zm-4.635 9.268c-.993 1.655-2.979 2.649-4.524 2.207-1.545-.441-2.427-2.096-2.427-4.634v-7.173s.11 0 .22-.11c.993-.441 2.759-1.435 5.076-.22 1.214.661 2.207 1.875 2.648 3.42.552 2.096.221 4.414-.993 6.51Zm29.242 2.097-.331-.11c-.221 0-.662-.663-.662-1.656v-7.834c0-2.317-.773-4.083-2.097-4.966-1.214-.883-2.869-.993-4.855-.33-2.317.772-5.738 3.75-6.29 4.413l-.11.11v.221c0 .22.331.552.441.772l.111.11h3.862V16.11c0-1.544.993-2.317 1.876-2.427.882-.11 1.434-.11 1.875.22.552.442.883 1.545.883 3.31v.994l-8.055 3.53-.11.111v.11c-.773 2.208-.552 3.973.441 5.187 1.655 1.876 5.738 2.096 11.697.772.441-.11 1.434-.22 1.434-.22-.11-.11-.11-1.214-.11-1.214Zm-5.186-6.51v6.068c-1.325.883-2.649.994-3.642.221-.993-.883-1.214-2.428-.552-3.972l4.194-2.318Z" fill="#fff"/></g><defs><clipPath id="aea"><path fill="#fff" d="M0 0h176.552v32H0z"/></clipPath></defs></symbol><symbol viewBox="0 0 16 16" id="delete" xmlns="http://www.w3.org/2000/svg"><path clip-rule="evenodd" d="M9.803 6.195a.666.666 0 0 0-.942 0l-.862.862-.862-.862a.666.666 0 1 0-.943.943L7.056 8l-.862.862a.666.666 0 1 0 .943.943l.862-.862.862.862a.665.665 0 0 0 .942 0 .666.666 0 0 0 0-.943L8.941 8l.862-.862a.666.666 0 0 0 0-.943ZM8 13.333A5.34 5.34 0 0 1 2.665 8 5.34 5.34 0 0 1 8 2.667 5.34 5.34 0 0 1 13.332 8a5.34 5.34 0 0 1-5.333 5.333Zm0-12A6.674 6.674 0 0 0 1.332 8a6.674 6.674 0 0 0 6.667 6.667A6.674 6.674 0 0 0 14.665 8 6.674 6.674 0 0 0 8 1.333Z"/><path clip-rule="evenodd" d="M9.803 6.195a.666.666 0 0 0-.942 0l-.862.862-.862-.862a.666.666 0 1 0-.943.943L7.056 8l-.862.862a.666.666 0 1 0 .943.943l.862-.862.862.862a.665.665 0 0 0 .942 0 .666.666 0 0 0 0-.943L8.941 8l.862-.862a.666.666 0 0 0 0-.943ZM8 13.333A5.34 5.34 0 0 1 2.665 8 5.34 5.34 0 0 1 8 2.667 5.34 5.34 0 0 1 13.332 8a5.34 5.34 0 0 1-5.333 5.333Zm0-12A6.674 6.674 0 0 0 1.332 8a6.674 6.674 0 0 0 6.667 6.667A6.674 6.674 0 0 0 14.665 8 6.674 6.674 0 0 0 8 1.333Z"/></symbol><symbol fill="none" viewBox="0 0 171 30" id="demix" xmlns="http://www.w3.org/2000/svg"><path d="M14.201 12.452c.234.466.468 1.165.702 1.397v.7c-.234.465-4.448 7.22-4.448 7.22l9.365-5.59c1.17-.699 1.405-2.097.702-3.028-.468-.7-7.491-11.182-7.726-11.88-.234-.466 0-.932.469-.932h1.638c.469 0 .937 0 1.64.466 4.448 3.494 13.812 11.18 16.388 13.277.702.7.936 1.631.468 2.796-.468.931-1.64 1.863-3.512 2.562-2.107.699-22.475 8.386-25.753 9.55-.936.234-1.873.466-3.044.466h-2.107c-.468 0-.702-.698-.468-.931.937-.932 14.515-15.84 15.218-16.54-.234 0 .234 0 .468.467ZM95.206 15.713c-.234-.233-.703-.466-1.405-.466H82.329l1.17-2.33h13.814c1.17 0 2.107-.465 2.575-1.397l.468-.932c.234-.466.234-.699 0-1.164-.234-.233-.702-.466-1.404-.466h-18.73c-1.17 0-2.107.466-2.575 1.397L70.623 24.1c-.234.466-.234.932 0 1.165.234.233.703.465 1.405.465h18.73c1.17 0 2.107-.465 2.575-1.397l.468-1.165c.234-.466.234-.699-.234-1.165-.234-.233-.702-.465-1.405-.465H78.817l1.171-2.563h11.706c.936 0 2.107-.466 2.575-1.398l.468-.931c.937-.233.703-.7.469-.932ZM170.592 9.424c.234.465-.235.931-.703 1.164l-11.003 6.523 4.448 6.755c.234.466.234.699 0 .932-.234.466-.937.466-1.639.466l-3.278.233c-1.404 0-2.341-.466-2.809-1.165l-2.575-3.727-6.321 3.727c-.703.466-2.107 1.165-3.746 1.165h-3.98c-.937 0-1.171-.466-1.171-.466-.234-.466 0-.932.702-1.398l11.706-6.988-4.214-6.29c-.234-.466-.234-.699 0-.931.234-.466.937-.7 1.639-.7h3.512c1.405 0 2.107.467 2.809 1.398l2.107 3.262 6.087-3.495c.703-.465 2.341-.931 3.746-.931h3.512c.702 0 1.171.233 1.171.466ZM142.732 9.424c.234.232.234.698 0 1.164l-7.024 13.744c-.468.699-1.639 1.397-2.575 1.397h-3.044c-.702 0-1.17-.232-1.404-.465-.234-.233-.234-.7 0-1.165l7.023-13.744c.468-.699 1.405-1.397 2.575-1.397h3.044c.702 0 1.171 0 1.405.466ZM132.431 9.424c.234.232.234.698 0 1.164l-7.024 13.744c-.468.699-1.405 1.397-2.575 1.397h-3.044c-.702 0-1.17-.232-1.404-.465-.235-.233-.235-.7 0-1.165l4.448-8.619-9.365 9.085c-.702.699-1.873 1.164-3.043 1.164h-1.171c-1.171 0-2.107-.698-2.107-1.397V15.48l-4.448 8.852c-.469.699-1.405 1.397-2.576 1.397h-3.043c-.703 0-1.17-.232-1.405-.465-.234-.233-.234-.7 0-1.165l7.024-13.744c.468-.699 1.404-1.397 2.575-1.397h5.385c.468 0 1.17.233 1.404.466.234.232.469.698.469.931v8.153l8.662-8.619c.702-.698 1.873-1.164 3.043-1.164h6.556c.936.233 1.404.233 1.639.699ZM72.028 11.287c1.17 1.398 1.17 3.494-.234 6.057-3.043 5.59-8.428 8.152-18.027 8.152H43.466c-.703 0-1.17-.232-1.405-.465-.234-.233-.234-.7 0-1.165l5.15-9.784h7.024l-3.746 6.989h4.683c6.087 0 7.96-1.165 9.364-4.193.937-1.63.937-2.796.469-3.261-.703-.7-2.107-.932-4.917-.932H46.51c-.468 0-.702-.233-.468-.466.234-.699.937-2.097 2.107-2.795.468-.233.937-.466 2.107-.466h11.706c5.385 0 8.662.698 10.067 2.33Z" fill="#fff"/></symbol><symbol viewBox="0 0 24 25" id="double-arrow-up" xmlns="http://www.w3.org/2000/svg"><path clip-rule="evenodd" d="M11.99 7.815 6.626 12.13a1 1 0 0 1-1.254-1.559l6-4.828a.998.998 0 0 1 1.267.012l6 5a.998.998 0 0 1-.64 1.768c-.226 0-.453-.077-.64-.232l-5.37-4.476Zm-.617 4.929a.998.998 0 0 1 1.267.01l6 5a1 1 0 0 1-1.28 1.537l-5.37-4.475-5.363 4.314a.999.999 0 1 1-1.254-1.558l6-4.828Z"/><path clip-rule="evenodd" d="M11.99 7.815 6.626 12.13a1 1 0 0 1-1.254-1.559l6-4.828a.998.998 0 0 1 1.267.012l6 5a.998.998 0 0 1-.64 1.768c-.226 0-.453-.077-.64-.232l-5.37-4.476Zm-.617 4.929a.998.998 0 0 1 1.267.01l6 5a1 1 0 0 1-1.28 1.537l-5.37-4.475-5.363 4.314a.999.999 0 1 1-1.254-1.558l6-4.828Z"/></symbol><symbol viewBox="0 0 16 16" id="download" xmlns="http://www.w3.org/2000/svg"><path clip-rule="evenodd" d="M7.336 8.05A.678.678 0 0 1 7.334 8V2.667a.666.666 0 1 1 1.333 0V8l1.6-1.2a.666.666 0 1 1 .8 1.067l-2.667 2a.666.666 0 0 1-.783.012L4.95 8.003a.666.666 0 1 1 .767-1.091l1.619 1.139ZM4 11.334V12h8v-.667c0-.366.3-.666.667-.666.367 0 .667.3.667.666v1.334c0 .366-.3.666-.667.666H3.334a.669.669 0 0 1-.667-.666v-1.334c0-.366.3-.666.667-.666.366 0 .666.3.666.666Z"/><path clip-rule="evenodd" d="M7.336 8.05A.678.678 0 0 1 7.334 8V2.667a.666.666 0 1 1 1.333 0V8l1.6-1.2a.666.666 0 1 1 .8 1.067l-2.667 2a.666.666 0 0 1-.783.012L4.95 8.003a.666.666 0 1 1 .767-1.091l1.619 1.139ZM4 11.334V12h8v-.667c0-.366.3-.666.667-.666.367 0 .667.3.667.666v1.334c0 .366-.3.666-.667.666H3.334a.669.669 0 0 1-.667-.666v-1.334c0-.366.3-.666.667-.666.366 0 .666.3.666.666Z"/></symbol><symbol viewBox="0 0 24 24" id="email" xmlns="http://www.w3.org/2000/svg"><path clip-rule="evenodd" d="M19 18H5c-.551 0-1-.448-1-1V7.25l7.4 5.55a.995.995 0 0 0 1.2 0L20 7.25V17c0 .552-.449 1-1 1Zm-.667-12L12 10.75 5.667 6h12.666ZM19 4H5C3.346 4 2 5.346 2 7v10c0 1.654 1.346 3 3 3h14c1.654 0 3-1.346 3-3V7c0-1.654-1.346-3-3-3Z"/></symbol><symbol viewBox="0 0 24 24" id="eye" xmlns="http://www.w3.org/2000/svg"><path clip-rule="evenodd" d="M12 13.5c-.827 0-1.5-.673-1.5-1.5s.673-1.5 1.5-1.5 1.5.673 1.5 1.5-.673 1.5-1.5 1.5Zm0-5c-1.93 0-3.5 1.57-3.5 3.5s1.57 3.5 3.5 3.5 3.5-1.57 3.5-3.5-1.57-3.5-3.5-3.5Zm.22 8.498c-4.306.1-7.115-3.583-8.047-5.002 1.026-1.605 3.61-4.891 7.608-4.993 4.289-.11 7.114 3.583 8.046 5.002-1.025 1.605-3.61 4.89-7.607 4.993Zm9.648-5.495c-.638-1.112-4.162-6.686-10.138-6.5-5.528.14-8.743 5.01-9.597 6.5a.999.999 0 0 0 0 .995C2.762 13.595 6.162 19 12.025 19l.246-.003c5.527-.141 8.743-5.01 9.597-6.5a1.004 1.004 0 0 0 0-.994Z"/></symbol><symbol viewBox="0 0 24 24" id="eye-off" xmlns="http://www.w3.org/2000/svg"><path clip-rule="evenodd" d="M12 13.5c-.827 0-1.5-.673-1.5-1.5 0-.013.003-.026.006-.039.003-.011.006-.023.006-.035l1.562 1.562a.184.184 0 0 0-.035.006c-.013.003-.026.006-.039.006ZM4.707 3.293a.999.999 0 1 0-1.414 1.414l5.63 5.63A3.471 3.471 0 0 0 8.5 12c0 1.93 1.57 3.5 3.5 3.5.589 0 1.154-.147 1.663-.423l5.63 5.63a.997.997 0 0 0 1.414 0 .999.999 0 0 0 0-1.414l-16-16Zm7.513 13.705c-4.305.1-7.115-3.583-8.047-5.002a13.432 13.432 0 0 1 2.283-2.711L5.045 7.873a15.605 15.605 0 0 0-2.912 3.63.999.999 0 0 0 0 .995C2.762 13.595 6.162 19 12.025 19l.246-.003a9.35 9.35 0 0 0 3.227-.67l-1.58-1.58a7.29 7.29 0 0 1-1.698.25Zm-.49-11.995c5.975-.187 9.5 5.387 10.138 6.5.176.307.176.686 0 .994a15.646 15.646 0 0 1-2.913 3.63l-1.411-1.412a13.395 13.395 0 0 0 2.283-2.71c-.932-1.42-3.755-5.11-8.046-5.003-.6.015-1.163.11-1.7.251l-1.58-1.58a9.357 9.357 0 0 1 3.229-.67Z"/></symbol><symbol fill="none" viewBox="0 0 71 24" id="fila" xmlns="http://www.w3.org/2000/svg"><path d="M26.13.605c-1.775 0-3.276 1.5-3.276 3.275v16.65c0 1.773 1.501 3.275 3.275 3.275s3.276-1.502 3.276-3.276V3.88c0-1.774-1.502-3.275-3.276-3.275ZM17.805.878H3.612C1.838.878.336 2.378.336 4.153c0 1.774 1.502 3.275 3.276 3.275h14.193c1.774 0 3.275-1.5 3.275-3.275 0-1.774-1.501-3.275-3.275-3.275ZM68.708 13.842l-6.823-11.19c-.82-1.365-1.911-1.91-3.276-1.91-1.364 0-2.593.682-3.412 1.91l-8.051 13.1c-.546.956-1.092 1.366-2.184 1.366h-5.868c-.546 0-.819-.41-.819-.82V3.88c0-1.774-1.501-3.139-3.275-3.139s-3.275 1.365-3.275 3.139v15.285c0 2.32 2.32 4.503 4.503 4.503h11.873c1.638 0 2.866-1.228 3.821-2.866l6.141-10.644c0-.137.137-.273.273-.273.137 0 .137.136.273.273l4.094 6.414c.137.273.137.41.137.682-.137.273-.273.273-.682.273h-5.596c-1.637 0-3.002 1.365-3.002 3.002 0 1.638 1.365 3.003 3.002 3.003h9.144c2.183 0 4.776-2.184 4.776-4.913 0-1.774-.41-2.457-1.774-4.777ZM16.303 9.202H3.748c-1.774 0-3.275 1.502-3.275 3.276v7.915c0 1.774 1.501 3.275 3.275 3.275s3.275-1.5 3.275-3.275v-3.685c0-.546.41-.955.956-.955h8.325c1.774 0 3.275-1.501 3.275-3.275-.137-1.774-1.501-3.276-3.276-3.276Z" fill="#fff"/></symbol><symbol viewBox="0 0 24 24" id="file-text" xmlns="http://www.w3.org/2000/svg"><path fill-rule="evenodd" clip-rule="evenodd" d="M12 14H9a1 1 0 0 1 0-2h3a1 1 0 0 1 0 2Zm-4 3a1 1 0 0 1 1-1h6a1 1 0 1 1 0 2H9a1 1 0 0 1-1-1Zm9.444 3H6.555C6.249 20 6 19.776 6 19.5v-15c0-.276.249-.5.555-.5H12v3.15C12 8.722 13.217 10 14.714 10H18v9.5c0 .276-.249.5-.556.5ZM14 4.978 16.742 8h-2.028C14.32 8 14 7.619 14 7.15V4.978Zm5.74 3.35-5.444-6A1 1 0 0 0 13.555 2h-7C5.146 2 4 3.122 4 4.5v15C4 20.878 5.146 22 6.555 22h10.889C18.853 22 20 20.878 20 19.5V9a1 1 0 0 0-.26-.672Z"/><path fill-rule="evenodd" clip-rule="evenodd" d="M12 14H9a1 1 0 0 1 0-2h3a1 1 0 0 1 0 2Zm-4 3a1 1 0 0 1 1-1h6a1 1 0 1 1 0 2H9a1 1 0 0 1-1-1Zm9.444 3H6.555C6.249 20 6 19.776 6 19.5v-15c0-.276.249-.5.555-.5H12v3.15C12 8.722 13.217 10 14.714 10H18v9.5c0 .276-.249.5-.556.5ZM14 4.978 16.742 8h-2.028C14.32 8 14 7.619 14 7.15V4.978Zm5.74 3.35-5.444-6A1 1 0 0 0 13.555 2h-7C5.146 2 4 3.122 4 4.5v15C4 20.878 5.146 22 6.555 22h10.889C18.853 22 20 20.878 20 19.5V9a1 1 0 0 0-.26-.672Z"/></symbol><symbol viewBox="0 0 32 32" id="filter" xmlns="http://www.w3.org/2000/svg"><path clip-rule="evenodd" d="M26.735 8H5.264C4.568 8 4 8.57 4 9.265v.136c0 .696.568 1.266 1.264 1.266h21.47c.697 0 1.266-.57 1.266-1.266v-.136C28 8.57 27.43 8 26.735 8ZM23.956 14.667H8.043c-.758 0-1.376.569-1.376 1.265v.136c0 .696.618 1.265 1.376 1.265h15.913c.758 0 1.378-.569 1.378-1.265v-.136c0-.696-.62-1.265-1.378-1.265ZM19.016 21.333h-6.033c-.541 0-.983.57-.983 1.266v.136c0 .696.442 1.265.983 1.265h6.033c.541 0 .984-.57.984-1.265v-.136c0-.696-.443-1.266-.984-1.266Z"/></symbol><symbol viewBox="0 0 103 13" id="frame1" xmlns="http://www.w3.org/2000/svg"><path d="M0 .5h4.256v4.063H0zM4.256 4.563h4.256v4.875H4.256z"/><path d="M4.256 4.563h4.256v4.875H4.256zM0 9.438h4.256v4.063H0zM8.512 9.438h4.256v4.063H8.512zM8.512.5h4.256v4.063H8.512zM31.62 4.73C30.585 2.171 28.053.5 24.98.5c-2.04 0-3.72.64-5.089 1.943-1.343 1.278-2.015 2.876-2.015 4.819 0 1.942.672 3.54 2.015 4.844 1.37 1.278 3.048 1.918 5.09 1.918 3.073 0 5.605-1.672 6.638-4.23l-3.229-.91c-.594 1.28-1.886 2.066-3.41 2.066-1.06 0-1.963-.344-2.686-1.057-.724-.713-1.085-1.574-1.085-2.631 0-1.057.361-1.918 1.085-2.631.723-.713 1.627-1.057 2.686-1.057 1.524 0 2.816.786 3.41 2.065l3.23-.91ZM35.129 12.106c1.369 1.278 3.048 1.918 5.089 1.918 2.04 0 3.72-.64 5.089-1.918 1.369-1.303 2.04-2.902 2.04-4.844 0-1.943-.671-3.54-2.04-4.82C43.937 1.14 42.258.5 40.217.5c-2.04 0-3.72.64-5.088 1.943-1.344 1.278-2.015 2.876-2.015 4.819 0 1.942.671 3.54 2.015 4.844ZM37.53 4.63c.723-.713 1.627-1.057 2.687-1.057 1.059 0 1.963.344 2.686 1.057.724.713 1.085 1.574 1.085 2.63 0 1.058-.361 1.919-1.085 2.632-.723.713-1.627 1.057-2.686 1.057-1.06 0-1.964-.344-2.687-1.057-.723-.713-1.085-1.574-1.085-2.631 0-1.057.362-1.918 1.085-2.631ZM52.803 13.655V6.131c0-1.55 1.24-2.705 2.816-2.705 1.575 0 2.79 1.156 2.79 2.705v7.524h3.229V6.131c0-1.55 1.24-2.705 2.815-2.705 1.576 0 2.79 1.156 2.79 2.705v7.524h3.204v-8.41c0-1.352-.517-2.483-1.525-3.393C67.915.942 66.65.5 65.1.5c-1.886 0-3.332.688-4.288 2.09C59.855 1.188 58.434.5 56.574.5c-1.575 0-2.841.566-3.771 1.721V.87h-3.23v12.786h3.23ZM76.416 19.188v-6.541a6.49 6.49 0 0 0 4.056 1.377c1.86 0 3.41-.64 4.675-1.918 1.266-1.303 1.886-2.902 1.886-4.844 0-1.943-.62-3.54-1.886-4.82C83.882 1.14 82.332.5 80.472.5a6.49 6.49 0 0 0-4.056 1.377V.869h-3.23v18.319h3.23Zm6.2-14.557c.697.713 1.059 1.574 1.059 2.63 0 1.058-.362 1.919-1.06 2.632-.697.713-1.55 1.057-2.557 1.057s-1.86-.344-2.557-1.057c-.698-.713-1.034-1.574-1.034-2.631 0-1.057.336-1.918 1.034-2.631.697-.713 1.55-1.057 2.557-1.057 1.008 0 1.86.344 2.558 1.057ZM90.78 12.106c1.37 1.278 3.05 1.918 5.09 1.918s3.72-.64 5.089-1.918C102.328 10.803 103 9.204 103 7.262c0-1.943-.672-3.54-2.041-4.82C99.59 1.14 97.911.5 95.87.5c-2.04 0-3.72.64-5.09 1.943-1.343 1.278-2.014 2.876-2.014 4.819 0 1.942.671 3.54 2.015 4.844Zm2.403-7.475c.724-.713 1.628-1.057 2.687-1.057 1.06 0 1.963.344 2.687 1.057.723.713 1.085 1.574 1.085 2.63 0 1.058-.362 1.919-1.085 2.632-.724.713-1.628 1.057-2.687 1.057-1.06 0-1.963-.344-2.687-1.057-.723-.713-1.085-1.574-1.085-2.631 0-1.057.362-1.918 1.085-2.631Z"/></symbol><symbol fill="#fff" viewBox="0 0 16 16" id="franchise-coop-label-white" xmlns="http://www.w3.org/2000/svg"><path clip-rule="evenodd" d="M7.04 5.626A1 1 0 1 1 5.627 7.04 1 1 0 0 1 7.04 5.626ZM3.89 8.594l4.02 4.022 4.706-4.705L8.595 3.89l-5.19-.484.484 5.19ZM7.91 14c-.31 0-.619-.118-.855-.353L2.777 9.367a.666.666 0 0 1-.193-.41l-.581-6.229a.668.668 0 0 1 .726-.725l6.23.581c.154.014.298.082.408.192l4.278 4.278c.23.23.355.533.355.857 0 .324-.126.628-.355.857l-4.878 4.877a1.207 1.207 0 0 1-.856.354Z"/></symbol><symbol fill="#fff" viewBox="0 0 16 16" id="franchise-coop-size-white" xmlns="http://www.w3.org/2000/svg"><path clip-rule="evenodd" d="M4 3.333c-.367 0-.667.3-.667.667v8c0 .367.3.667.667.667h8c.367 0 .667-.3.667-.667V4c0-.367-.3-.667-.667-.667H4ZM12 14H4c-1.103 0-2-.897-2-2V4c0-1.103.897-2 2-2h8c1.103 0 2 .897 2 2v8c0 1.103-.897 2-2 2Z"/><path clip-rule="evenodd" d="M6 10.667a.666.666 0 1 1-.002-1.332A.666.666 0 0 1 6 10.667ZM10 9.333a.666.666 0 1 1 0 1.332.666.666 0 0 1 0-1.332ZM10 6.667a.666.666 0 1 1 0-1.333.666.666 0 0 1 0 1.333ZM6 6.667a.666.666 0 1 1-.002-1.332A.666.666 0 0 1 6 6.667Z"/></symbol><symbol fill="#fff" viewBox="0 0 16 16" id="franchise-coop-type-white" xmlns="http://www.w3.org/2000/svg"><path clip-rule="evenodd" d="m12.46 10.642-3.793 1.763V7.927l4-1.858v4.29c0 .116-.079.224-.207.283Zm-8.925 0c-.126-.058-.203-.166-.202-.287V6.069l4 1.858v4.479l-3.798-1.763Zm4.27-7.266a.458.458 0 0 1 .39 0l3.552 1.65L8 6.765l-3.748-1.74 3.553-1.65Zm5.966 1.463-.004-.016c-.002-.006-.008-.01-.01-.014-.032-.051-.069-.096-.104-.142-.02-.023-.038-.048-.06-.068a1.682 1.682 0 0 0-.57-.452L8.754 2.165a1.8 1.8 0 0 0-1.51 0L2.978 4.147c-.229.106-.414.267-.57.45-.026.022-.044.05-.066.074-.034.045-.07.088-.099.136-.003.006-.009.01-.011.016-.003.006-.002.012-.005.018-.14.24-.228.512-.228.798v4.71a1.66 1.66 0 0 0 .972 1.502l4.266 1.982a1.792 1.792 0 0 0 1.517 0l4.265-1.981c.595-.275.98-.86.98-1.492V5.638c0-.285-.088-.557-.23-.799Z"/></symbol><symbol viewBox="0 0 24 25" id="import-file" xmlns="http://www.w3.org/2000/svg"><path clip-rule="evenodd" d="M14 13.261h-1v-1a1 1 0 1 0-2 0v1h-1a1 1 0 1 0 0 2h1v1a1 1 0 1 0 2 0v-1h1a1 1 0 1 0 0-2Zm3.444 7H6.555c-.306 0-.555-.223-.555-.5v-15c0-.276.249-.5.555-.5H12v3.15c0 1.572 1.217 2.85 2.714 2.85H18v9.5c0 .277-.249.5-.556.5ZM14 5.24l2.742 3.022h-2.028c-.394 0-.714-.38-.714-.85V5.24Zm5.74 3.35-5.444-6a1 1 0 0 0-.741-.328h-7C5.146 2.261 4 3.383 4 4.761v15c0 1.379 1.146 2.5 2.555 2.5h10.889c1.409 0 2.556-1.121 2.556-2.5v-10.5a1 1 0 0 0-.26-.672Z"/><path clip-rule="evenodd" d="M14 13.261h-1v-1a1 1 0 1 0-2 0v1h-1a1 1 0 1 0 0 2h1v1a1 1 0 1 0 2 0v-1h1a1 1 0 1 0 0-2Zm3.444 7H6.555c-.306 0-.555-.223-.555-.5v-15c0-.276.249-.5.555-.5H12v3.15c0 1.572 1.217 2.85 2.714 2.85H18v9.5c0 .277-.249.5-.556.5ZM14 5.24l2.742 3.022h-2.028c-.394 0-.714-.38-.714-.85V5.24Zm5.74 3.35-5.444-6a1 1 0 0 0-.741-.328h-7C5.146 2.261 4 3.383 4 4.761v15c0 1.379 1.146 2.5 2.555 2.5h10.889c1.409 0 2.556-1.121 2.556-2.5v-10.5a1 1 0 0 0-.26-.672Z"/></symbol><symbol fill="none" viewBox="0 0 24 24" id="key" xmlns="http://www.w3.org/2000/svg"><circle cx="6.5" cy="11.5" r="3.5" stroke="currentColor" stroke-width="2"/><path d="M9 11.5h12V16M17 11.5V14" stroke="currentColor" stroke-width="2"/></symbol><symbol fill="none" viewBox="0 0 37 41" id="layer-four" xmlns="http://www.w3.org/2000/svg"><g clip-path="url(#cga)"><path d="M11.19 32.396H7.14c-3.936 0-7.14-3.088-7.14-6.883V6.883C0 3.088 3.204 0 7.14 0h19.038c3.936 0 7.14 3.088 7.14 6.883v14.73c0 .934-.786 1.692-1.755 1.692-.97 0-1.756-.758-1.756-1.692V6.883c0-1.93-1.628-3.499-3.63-3.499H7.14c-2.001 0-3.63 1.57-3.63 3.499v18.63c0 1.929 1.629 3.498 3.63 3.498h4.05c.97 0 1.756.758 1.756 1.692 0 .935-.785 1.693-1.755 1.693Z" fill="#1551E5"/><path d="M22.671 32.45c.158-.435.334-.706.347-.98.11-2.514.184-5.026.272-7.54.07-2.06.145-4.115.224-6.171.044-1.05.851-1.798 1.896-1.798 1.08 0 1.874.757 1.909 1.84.074 2.158.149 4.315.197 6.473.01.397.14.587.523.744 2.36.956 4.704 1.963 7.07 2.915 1.241.499 1.895 1.353 1.891 2.644-.009 2.055-.004 4.116-.079 6.172-.053 1.51-.873 2.783-1.575 4.073-.057.106-.308.17-.466.17-3.84.008-7.684.012-11.524-.009-.224 0-.527-.194-.658-.385-1.79-2.606-3.555-5.233-5.328-7.847-.382-.563-.808-1.1-1.176-1.671a4.29 4.29 0 0 1-.478-1.024c-.299-.947.153-1.59 1.167-1.743 1.04-.152 1.983.098 2.743.774.614.546 1.136 1.19 1.69 1.798.416.457.811.931 1.36 1.561" fill="#1551E5"/><path d="M15.575 25.267a1.77 1.77 0 0 1-1.435-.719l-6.802-9.306a1.651 1.651 0 0 1 .425-2.357c.795-.537 1.887-.355 2.445.41l5.231 7.158 7.619-12.538c.491-.808 1.566-1.079 2.4-.605.834.474 1.12 1.51.628 2.314L17.089 24.43a1.773 1.773 0 0 1-1.44.837h-.074Z" fill="#FF0016"/></g><defs><clipPath id="cga"><path fill="#fff" d="M0 0h37v41H0z"/></clipPath></defs></symbol><symbol fill="none" viewBox="0 0 39 41" id="layer-one" xmlns="http://www.w3.org/2000/svg"><g clip-path="url(#cha)"><path d="M33.184 36.651h-.002c-3.414-.003-9.977-.01-15.575-.02-9.963-.019-9.987-.024-10.218-.075-1.953-.436-3.37-2.254-3.37-4.322V5.794c0-.89.698-1.611 1.557-1.611.86 0 1.557.721 1.557 1.61v26.44c0 .522.332.985.804 1.143 1.312.02 10.827.04 25.25.053.858.001 1.555.724 1.554 1.613 0 .89-.698 1.61-1.556 1.61h-.001Z" fill="#0043FF"/><path d="m.299 12.212 5.277-5.466 5.278 5.466V7.574L5.576 2.11.3 7.574v4.638ZM26.977 40.495l5.287-5.457-5.275-5.467 4.481.004 5.272 5.469L31.46 40.5l-4.482-.005ZM36.742 27.288c-.86 0-1.556-.721-1.556-1.611V4.921c0-.66-.52-1.199-1.159-1.199H12.96c-.859 0-1.556-.722-1.556-1.611 0-.89.696-1.611 1.556-1.611h21.067C36.382.5 38.3 2.483 38.3 4.921v20.756c0 .89-.698 1.611-1.557 1.611ZM10.325 15.268h2.684v1.39c.618-.823 1.43-1.573 2.79-1.573 1.237 0 2.173.567 2.668 1.554.83-1.006 1.819-1.554 3.108-1.554 1.996 0 3.198 1.243 3.198 3.602v6.38h-2.685v-5.466c0-1.317-.565-1.993-1.573-1.993-1.006 0-1.625.676-1.625 1.993v5.466h-2.685v-5.466c0-1.317-.565-1.993-1.572-1.993-1.007 0-1.625.676-1.625 1.993v5.466h-2.685v-9.8h.002Z" fill="#0043FF"/><path d="m26.818 18.029 2.35-1.975c.83-.694 1.183-1.078 1.183-1.645 0-.53-.423-.84-.936-.84-.548 0-1.024.346-1.501.968l-1.096-.932c.69-.95 1.396-1.518 2.685-1.518 1.484 0 2.455.878 2.455 2.176 0 .987-.406 1.59-1.448 2.45l-1.59 1.298h3.074V19.4h-5.176v-1.371Z" fill="#FF0016"/></g><defs><clipPath id="cha"><path fill="#fff" transform="translate(.299 .5)" d="M0 0h38v40H0z"/></clipPath></defs></symbol><symbol fill="none" viewBox="0 0 30 51" id="layer-three" xmlns="http://www.w3.org/2000/svg"><g clip-path="url(#cia)"><path d="M27.951 0H2.049A2.057 2.057 0 0 0 0 2.053v46.894C0 50.078.922 51 2.048 51h25.903A2.056 2.056 0 0 0 30 48.947V2.053A2.057 2.057 0 0 0 27.951 0ZM9.813 4.392a.68.68 0 0 1 .676-.677h9.024a.68.68 0 0 1 .676.677.676.676 0 0 1-.676.678h-9.024a.68.68 0 0 1-.676-.678Zm5.121 44.443a2.528 2.528 0 0 1-2.524-2.525c0-1.39 1.131-2.53 2.524-2.53a2.53 2.53 0 0 1 2.525 2.53 2.525 2.525 0 0 1-2.525 2.525Zm11.154-7.887H3.913V8.323h22.174v32.625Z" fill="#1551E5"/><path d="m20.244 19.022-4.752 1.93-8.927-1.89L16 23.85l4.245-4.828Z" fill="#FF0016"/><path d="M12.383 22.875 7.416 28.53l5.592-2.253L23.45 28.48l-11.067-5.604ZM15.425 20.238a1.492 1.492 0 0 0 1.372-1.601c-.081-.826-.783-1.437-1.618-1.365a1.488 1.488 0 0 0-1.357 1.6c.067.812.784 1.427 1.603 1.366Z" fill="#1551E5"/></g><defs><clipPath id="cia"><path fill="#fff" d="M0 0h30v51H0z"/></clipPath></defs></symbol><symbol fill="none" viewBox="0 0 47 43" id="layer-two" xmlns="http://www.w3.org/2000/svg"><g clip-path="url(#cja)"><path d="M40.443.5H19.429c-3.23 0-5.856 2.498-5.856 5.568v5.312H6.154C2.925 11.38.3 13.878.3 16.948v19.984c0 3.07 2.626 5.568 5.855 5.568H27.17c3.229 0 5.855-2.498 5.855-5.568V31.62h7.419c3.229 0 5.856-2.498 5.856-5.568V6.068c0-3.07-2.627-5.568-5.856-5.568ZM29.87 31.62v5.312c0 1.416-1.212 2.569-2.701 2.569H6.154c-1.49 0-2.701-1.152-2.701-2.57V16.949c0-1.416 1.211-2.569 2.701-2.569H27.17c1.489 0 2.701 1.152 2.701 2.57V31.62Zm13.274-5.568c0 1.416-1.211 2.569-2.701 2.569h-7.419V16.948c0-3.07-2.626-5.568-5.855-5.568H16.727V6.068c0-1.416 1.212-2.569 2.702-2.569h21.014c1.49 0 2.701 1.152 2.701 2.57v19.983Z" fill="#1551E5"/><path d="M25.441 17.976c-.752-.42-1.717-.18-2.158.536l-7.78 12.632-5.41-7.299c-.501-.677-1.485-.84-2.197-.362-.712.477-.882 1.413-.38 2.09l6.82 9.205c.296.4.777.636 1.288.636.023 0 .045 0 .067-.002a1.592 1.592 0 0 0 1.295-.74l9.02-14.644c.44-.715.187-1.633-.564-2.052Z" fill="#FF0016"/></g><defs><clipPath id="cja"><path fill="#fff" transform="translate(.299 .5)" d="M0 0h46v42H0z"/></clipPath></defs></symbol><symbol viewBox="0 0 24 24" id="lightning" xmlns="http://www.w3.org/2000/svg"><path fill-rule="evenodd" clip-rule="evenodd" d="M6.871 12.8h5.13a1 1 0 0 1 .993 1.107l-.449 4.15L17.13 11.2H12a1 1 0 0 1-.994-1.107l.45-4.15L6.87 12.8Zm4.24 10.2a.998.998 0 0 1-.994-1.107l.77-7.093H5a1 1 0 0 1-.83-1.556l7.888-11.8a1 1 0 0 1 1.825.663L13.114 9.2H19a1.001 1.001 0 0 1 .831 1.556l-7.889 11.8a.998.998 0 0 1-.83.444Z"/><path fill-rule="evenodd" clip-rule="evenodd" d="M6.871 12.8h5.13a1 1 0 0 1 .993 1.107l-.449 4.15L17.13 11.2H12a1 1 0 0 1-.994-1.107l.45-4.15L6.87 12.8Zm4.24 10.2a.998.998 0 0 1-.994-1.107l.77-7.093H5a1 1 0 0 1-.83-1.556l7.888-11.8a1 1 0 0 1 1.825.663L13.114 9.2H19a1.001 1.001 0 0 1 .831 1.556l-7.889 11.8a.998.998 0 0 1-.83.444Z"/></symbol><symbol viewBox="0 0 24 24" id="list" xmlns="http://www.w3.org/2000/svg"><path clip-rule="evenodd" d="M3 7a1 1 0 1 1 2 0 1 1 0 0 1-2 0Zm0 5a1 1 0 1 1 2 0 1 1 0 0 1-2 0Zm1 4a1 1 0 1 0 0 2 1 1 0 0 0 0-2Zm3.936-5h12.128c.515 0 .936.421.936.936v.128a.938.938 0 0 1-.936.936H7.936A.938.938 0 0 1 7 12.064v-.128c0-.515.42-.936.936-.936Zm12.128 5H7.936a.938.938 0 0 0-.936.936v.128c0 .515.42.936.936.936h12.128a.938.938 0 0 0 .936-.936v-.128a.938.938 0 0 0-.936-.936ZM7.936 6h12.128c.515 0 .936.421.936.936v.128a.938.938 0 0 1-.936.936H7.936A.938.938 0 0 1 7 7.064v-.128C7 6.421 7.42 6 7.936 6Z"/></symbol><symbol fill="none" viewBox="0 0 200 28" id="logo" xmlns="http://www.w3.org/2000/svg"><g clip-path="url(#daa)"><path d="M115.474 8.947 108.421.842l4 18.421L126.947.843l-11.473 8.104Zm-94.106 8L31.053 6 20.21 10.316 0 6.106l21.368 10.841Z" fill="#F01"/><path d="m108 5.579-4.211 15.053h7.369L108 5.579Zm17.053 0-11.369 15.053h7.158l4.211-15.053Zm70 1.579a6.318 6.318 0 0 0-3.369 1.053 7.348 7.348 0 0 0-1.263 1.263l.421-2h-4.421l-4.737 16.947h4.948l1.578-5.263c.422 1.053 1.369 1.684 2.632 1.684h.842c1.263-.21 2.526-.737 3.79-1.579.736-.526 1.473-1.263 2.105-2.105.526-.842 1.053-2 1.368-3.158.527-1.895.527-3.474-.105-4.842-.632-1.263-1.895-2-3.789-2ZM194 14c-.316.947-.737 1.684-1.263 2.105-.316.421-.632.527-1.053.737-.279.04-.563.04-.842 0-.737 0-1.053-.105-1.368-.737-.211-.526-.211-1.263 0-2.105.315-1.263.842-1.895 1.263-2.21.21-.316.842-.843 1.684-.843 1.368 0 2.105 1.053 1.474 3.158M86.315 7.158a6.316 6.316 0 0 0-3.262 1.053 7.37 7.37 0 0 0-1.369 1.263l.526-2h-4.526L72.947 24.42h4.948l1.473-5.263c.527 1.053 1.474 1.684 2.737 1.684h.842c1.263-.21 2.527-.737 3.79-1.579.737-.526 1.368-1.263 2-2.105.526-.842 1.052-2 1.474-3.158.526-1.895.42-3.474-.106-4.842-.631-1.263-1.895-2-3.895-2M85.158 14c-.21.947-.632 1.684-1.158 2.105-.316.421-.737.527-1.053.737a2.946 2.946 0 0 1-.947 0c-.737 0-1.053-.105-1.263-.737-.316-.526-.316-1.263 0-2.105.316-1.263.842-1.895 1.263-2.21.21-.316.842-.843 1.684-.843 1.369 0 2.105 1.053 1.474 3.158M.42 26.421l12.632-5.052 23.79 5.263-25.264-12.948L.42 26.421ZM18.947 1.895a3.368 3.368 0 0 0-3.158 3.579c.211 1.79 1.895 3.158 3.685 3.158a3.368 3.368 0 0 0 3.157-3.685 3.368 3.368 0 0 0-3.684-3.157m158.211 15.052a2.628 2.628 0 0 1-2.105 1.053c-.843 0-1.264-.21-1.685-.632-.315-.526-.421-1.052-.21-1.895h9.474c.736-2.315.736-4.315-.211-5.789-.842-1.474-2.421-2.316-4.842-2.316l-1.263.105a9.685 9.685 0 0 0-7.895 7.053c-.526 2.105-.211 3.684.737 4.948 1.052 1.052 2.526 1.684 4.631 1.684 1.55.017 3.087-.27 4.527-.842A7.687 7.687 0 0 0 182 16.842h-4.842Zm-.842-6.316h.631c.632 0 1.053.21 1.263.632.316.421.422 1.053.316 1.684H174c.316-1.263 1.053-2.105 2.316-2.316Zm-38.527-2.842c-.842-.21-2-.42-3.473-.42a16.1 16.1 0 0 0-3.053.315c-1.053.21-1.895.526-2.631.842a5.255 5.255 0 0 0-2.527 3.263h4.948l.21-.316c.105-.315.526-.631.842-.736a2.848 2.848 0 0 1 1.053-.21c.421 0 .737 0 1.052.21.316 0 .527.526.422.842-.211.526-.843.947-1.79 1.052l-4.947.842a7.584 7.584 0 0 0-1.79.737c-.421.316-.947.632-1.368 1.158-.421.527-.737 1.053-.948 1.895-.315 1.263-.105 2.21.632 2.947.632.632 1.579.948 2.737.948a7.577 7.577 0 0 0 5.263-1.79l-.211 1.369h5.264s-.421-.21-.211-.843l2-7.052.421-2.21c0-.632 0-1.159-.316-1.685-.21-.526-.736-.842-1.579-1.052m-5.263 9.473c-.34.386-.776.677-1.263.842h-.842c-1.158 0-1.579-.316-1.474-1.052.211-.316.421-.737.737-.948l1.053-.42 1.368-.211 1.474-.421c-.105.842-.421 1.579-1.053 2.21Zm15.369-.316a2.22 2.22 0 0 1-1.579.632c-.737 0-1.158-.316-1.369-.947-.21-.527-.21-1.58.211-2.843.105-.315.526-1.368.947-1.789.211-.421.527-.737.948-.947.315-.21.736-.316 1.157-.316.632 0 .948.21 1.158.526.316.316.316.737.211 1.369h5.053c.315-1.895-.106-3.369-1.158-4.21-1.053-.738-2.527-1.054-4.211-1.054-2.105 0-4 .527-5.684 1.79a9.478 9.478 0 0 0-3.474 5.158c-.631 2.105-.421 3.79.632 5.053 1.052 1.052 2.526 1.684 4.631 1.684 1.729 0 3.431-.434 4.948-1.264a7.69 7.69 0 0 0 2.105-1.684c.632-.631 1.053-1.473 1.474-2.526h-5.053c-.21.632-.526 1.053-.947 1.368Zm-73.58-7.684c-.841-1.263-2.42-2.105-4.947-2.105-.636.012-1.27.083-1.894.21-1.58.316-3.053.948-4.21 1.895a9.474 9.474 0 0 0-3.159 4.842c-.42 1.895-.316 3.474.421 4.842.842 1.369 2.421 2.106 4.948 2.106.736 0 1.368 0 2.105-.21a8.736 8.736 0 0 0 4-1.896 9.474 9.474 0 0 0 3.158-4.842c.526-1.894.42-3.473-.421-4.842Zm-4.42 4.842c-.316 1.053-.737 1.895-1.369 2.527-.316.42-1.052 1.052-2.105 1.052-.737 0-1.263-.316-1.474-1.052a4.21 4.21 0 0 1 0-2.527c.316-1.052.737-1.894 1.369-2.631a2.63 2.63 0 0 1 2.105-.842c.737 0 1.368.21 1.579.842.21.737.21 1.579-.105 2.631Zm21.79-2.842h3.894l-2.632 9.369h4.948l2.631-9.474h3.579l1.053-3.684H92.737l-1.053 3.79Zm64.21 0h3.894l-2.526 9.369h4.842l2.737-9.474h3.579l1.053-3.684h-12.421l-1.158 3.79ZM47.053 7.473l-3.685 13.159h4.948l2.631-9.474h4l-2.631 9.474h5.052l3.685-13.158h-14Zm-9.369 9.37a2.106 2.106 0 0 1-1.579.63c-.737 0-1.158-.315-1.368-.947-.21-.526-.21-1.473.21-2.842a9.477 9.477 0 0 1 .948-1.79c.21-.42.526-.736.947-.947.316-.21.737-.315 1.158-.315.632 0 .947.21 1.158.526.316.316.316.842.21 1.368h4.843c.315-1.894-.106-3.368-1.158-4.21-1.053-.737-2.632-1.053-4.21-1.053a9.158 9.158 0 0 0-9.159 6.948c-.631 2.105-.42 3.79.632 5.052 1.052 1.053 2.526 1.684 4.631 1.684 1.756.05 3.495-.348 5.053-1.157a7.893 7.893 0 0 0 2.105-1.685c.527-.631 1.053-1.473 1.474-2.526h-5.053c-.21.632-.526 1.053-.947 1.368" fill="#fff"/></g><defs><clipPath id="daa"><path fill="#fff" transform="translate(0 .842)" d="M0 0h200v26.316H0z"/></clipPath></defs></symbol><symbol fill="none" viewBox="0 0 257 36" id="logo-footer" xmlns="http://www.w3.org/2000/svg"><g clip-path="url(#cza)"><path d="m148.384 11.504-9.063-10.421 5.14 23.684 18.666-23.684-14.743 10.42ZM27.458 21.79 39.903 7.713l-13.932 5.55L0 7.85l27.458 13.94Z" fill="#FF3D71"/><path d="m138.78 7.173-5.411 19.353h9.469L138.78 7.173Zm21.913 0-14.609 19.353h9.198l5.411-19.353Zm89.95 2.03c-1.542.03-3.044.5-4.329 1.354a9.459 9.459 0 0 0-1.623 1.623l.541-2.57h-5.681l-6.087 21.789h6.358l2.028-6.767c.542 1.353 1.759 2.165 3.382 2.165h1.082c1.623-.27 3.246-.947 4.87-2.03.946-.677 1.893-1.624 2.705-2.707a15.96 15.96 0 0 0 1.758-4.06c.677-2.436.677-4.466-.135-6.226-.812-1.623-2.435-2.57-4.869-2.57ZM249.29 18c-.406 1.218-.947 2.166-1.623 2.707-.406.541-.812.677-1.353.947a3.786 3.786 0 0 1-1.082 0c-.947 0-1.353-.135-1.758-.947-.271-.677-.271-1.624 0-2.707.405-1.624 1.082-2.436 1.623-2.842.27-.406 1.082-1.083 2.164-1.083 1.758 0 2.705 1.354 1.894 4.06M110.916 9.203a8.11 8.11 0 0 0-4.193 1.354 9.449 9.449 0 0 0-1.759 1.623l.676-2.57h-5.816l-6.087 21.789h6.358l1.893-6.767c.677 1.353 1.894 2.165 3.517 2.165h1.082c1.623-.27 3.247-.947 4.87-2.03.947-.677 1.758-1.624 2.57-2.707.676-1.082 1.352-2.571 1.893-4.06.677-2.436.542-4.466-.135-6.226-.811-1.623-2.435-2.57-5.005-2.57M109.428 18c-.271 1.218-.812 2.166-1.488 2.707-.406.541-.947.677-1.353.947a3.782 3.782 0 0 1-1.217 0c-.947 0-1.353-.135-1.623-.947-.406-.677-.406-1.624 0-2.707.406-1.624 1.082-2.436 1.623-2.842.27-.406 1.082-1.083 2.164-1.083 1.759 0 2.705 1.354 1.894 4.06M.541 33.97l16.232-6.496 30.57 6.767-32.464-16.647L.54 33.97ZM24.347 2.436a4.326 4.326 0 0 0-3.834 2.923c-.184.54-.26 1.11-.224 1.679.271 2.3 2.435 4.06 4.735 4.06a4.326 4.326 0 0 0 3.875-3.017c.176-.555.238-1.14.182-1.72a4.332 4.332 0 0 0-4.734-4.06m203.301 19.353a3.387 3.387 0 0 1-2.705 1.354c-1.083 0-1.624-.271-2.165-.812-.405-.677-.541-1.354-.27-2.437h12.174c.946-2.977.946-5.548-.271-7.443-1.082-1.895-3.111-2.978-6.222-2.978l-1.623.136a12.446 12.446 0 0 0-10.145 9.067c-.676 2.707-.271 4.737.947 6.361 1.352 1.354 3.246 2.166 5.951 2.166a15.28 15.28 0 0 0 5.817-1.083 9.873 9.873 0 0 0 4.734-4.33h-6.222Zm-1.082-8.12h.811c.812 0 1.353.27 1.623.812.406.541.542 1.353.406 2.165h-5.816c.406-1.624 1.353-2.706 2.976-2.977ZM177.059 9.88a18.155 18.155 0 0 0-4.463-.542c-1.318.01-2.631.146-3.923.406-1.353.271-2.435.677-3.381 1.083a6.766 6.766 0 0 0-3.247 4.196h6.358l.27-.406c.135-.406.676-.812 1.082-.948.43-.175.889-.267 1.353-.27.541 0 .947 0 1.352.27.406 0 .677.677.542 1.083-.271.677-1.083 1.218-2.3 1.353l-6.357 1.083a9.735 9.735 0 0 0-2.3.947c-.541.406-1.217.812-1.758 1.49-.541.676-.947 1.352-1.218 2.435-.405 1.624-.135 2.842.812 3.79.812.812 2.029 1.218 3.517 1.218a9.736 9.736 0 0 0 6.763-2.301l-.271 1.76h6.764s-.541-.271-.271-1.083l2.57-9.068.541-2.842c0-.812 0-1.489-.406-2.166-.27-.676-.946-1.082-2.029-1.353m-6.763 12.18c-.437.497-.997.87-1.623 1.083h-1.082c-1.488 0-2.029-.406-1.894-1.353.271-.406.541-.948.947-1.218l1.353-.541 1.758-.271 1.894-.541c-.135 1.082-.541 2.03-1.353 2.842Zm19.749-.405a2.838 2.838 0 0 1-2.029.812c-.947 0-1.488-.406-1.759-1.218-.27-.677-.27-2.03.271-3.655.135-.406.676-1.759 1.217-2.3a2.659 2.659 0 0 1 1.218-1.218c.405-.271.946-.406 1.487-.406.812 0 1.218.27 1.488.676.406.406.406.948.271 1.76h6.493c.405-2.436-.136-4.331-1.488-5.414-1.353-.947-3.247-1.353-5.411-1.353-2.705 0-5.14.676-7.304 2.3a12.184 12.184 0 0 0-4.464 6.632c-.811 2.707-.541 4.872.812 6.496 1.352 1.354 3.246 2.166 5.951 2.166 2.222 0 4.408-.559 6.358-1.624a9.876 9.876 0 0 0 2.705-2.166c.812-.812 1.353-1.894 1.894-3.248h-6.493c-.27.812-.676 1.354-1.217 1.76Zm-94.55-9.88c-1.081-1.624-3.11-2.707-6.357-2.707-.818.016-1.633.106-2.434.27-2.03.407-3.923 1.219-5.41 2.437a12.181 12.181 0 0 0-4.059 6.225c-.54 2.436-.406 4.467.541 6.226 1.082 1.76 3.111 2.707 6.358 2.707.947 0 1.758 0 2.705-.27a11.225 11.225 0 0 0 5.14-2.437 12.182 12.182 0 0 0 4.058-6.226c.676-2.436.54-4.466-.541-6.225Zm-5.68 6.225c-.406 1.354-.947 2.436-1.759 3.248-.406.542-1.352 1.354-2.705 1.354-.947 0-1.623-.406-1.894-1.353a5.416 5.416 0 0 1 0-3.249c.406-1.353.947-2.436 1.759-3.383a3.382 3.382 0 0 1 2.705-1.083c.947 0 1.758.27 2.029 1.083.27.947.27 2.03-.135 3.383Zm27.999-3.654h5.005l-3.382 12.045h6.358l3.381-12.18h4.599l1.353-4.737h-15.961l-1.353 4.872Zm82.511 0h5.004l-3.246 12.045h6.222l3.517-12.18h4.599l1.353-4.737h-15.961l-1.488 4.872ZM60.463 9.61l-4.735 16.917h6.358l3.381-12.18h5.14l-3.381 12.18h6.492L78.453 9.61h-17.99ZM48.424 21.654a2.706 2.706 0 0 1-2.029.812c-.947 0-1.488-.406-1.758-1.218-.27-.677-.27-1.895.27-3.654.323-.808.73-1.58 1.218-2.3.27-.542.676-.948 1.217-1.219.406-.27.947-.406 1.488-.406.812 0 1.217.27 1.488.677.406.406.406 1.083.27 1.76h6.222c.406-2.437-.135-4.332-1.487-5.414-1.353-.948-3.382-1.354-5.41-1.354a11.764 11.764 0 0 0-11.769 8.933c-.811 2.706-.54 4.872.812 6.496 1.352 1.353 3.246 2.165 5.951 2.165a13.25 13.25 0 0 0 6.493-1.488 10.149 10.149 0 0 0 2.705-2.166c.677-.812 1.353-1.894 1.894-3.248h-6.493c-.27.812-.676 1.354-1.217 1.76" fill="#1551E5"/></g><defs><clipPath id="cza"><path fill="#fff" transform="translate(0 1.083)" d="M0 0h257v33.835H0z"/></clipPath></defs></symbol><symbol viewBox="0 0 24 25" id="logout" xmlns="http://www.w3.org/2000/svg"><path fill-rule="evenodd" clip-rule="evenodd" d="M8 5.5c0 .55-.45 1-1 1H6v12h1c.55 0 1 .45 1 1s-.45 1-1 1H5c-.55 0-1-.45-1-1v-14c0-.55.45-1 1-1h2c.55 0 1 .45 1 1Zm10.004 2.425 2.814 4A.998.998 0 0 1 20.8 13.1l-3 4a.998.998 0 0 1-1.4.2.999.999 0 0 1-.2-1.4l1.8-2.4h-8a1 1 0 1 1 0-2h8c.016 0 .032.004.047.009a.2.2 0 0 0 .039.009l-1.718-2.443a1 1 0 1 1 1.636-1.15Z"/><path fill-rule="evenodd" clip-rule="evenodd" d="M8 5.5c0 .55-.45 1-1 1H6v12h1c.55 0 1 .45 1 1s-.45 1-1 1H5c-.55 0-1-.45-1-1v-14c0-.55.45-1 1-1h2c.55 0 1 .45 1 1Zm10.004 2.425 2.814 4A.998.998 0 0 1 20.8 13.1l-3 4a.998.998 0 0 1-1.4.2.999.999 0 0 1-.2-1.4l1.8-2.4h-8a1 1 0 1 1 0-2h8c.016 0 .032.004.047.009a.2.2 0 0 0 .039.009l-1.718-2.443a1 1 0 1 1 1.636-1.15Z"/></symbol><symbol viewBox="0 0 24 24" id="long-arrow" xmlns="http://www.w3.org/2000/svg"><path clip-rule="evenodd" d="M19 11H7.135l3.633-4.36a1 1 0 1 0-1.536-1.28l-5 6c-.039.047-.059.102-.088.154-.024.042-.053.078-.071.124a.985.985 0 0 0-.072.358L4 12l.001.004c0 .122.027.243.072.358.018.046.047.082.071.124.029.052.049.107.088.154l5 6a.999.999 0 1 0 1.536-1.28L7.135 13H19a1 1 0 0 0 0-2Z"/></symbol><symbol viewBox="0 0 24 24" id="map" xmlns="http://www.w3.org/2000/svg"><path clip-rule="evenodd" d="m19 17.454-2-.898V6.546l2 .898v10.01Zm-6-10.01 2-.898v10.01l-2 .898V7.444Zm-4-.898 2 .898v10.01l-2-.898V6.546Zm-4 .898 2-.898v10.01l-2 .898V7.444Zm15.41-1.558-4-1.798c-.015-.007-.031-.008-.046-.014a1.106 1.106 0 0 0-.36-.067c-.044 0-.087.001-.131.006-.037.004-.072.013-.108.022a1.21 1.21 0 0 0-.13.04c-.014.005-.031.006-.045.013L12 5.701 8.41 4.088c-.015-.007-.031-.008-.046-.014a1.106 1.106 0 0 0-.36-.067c-.044 0-.087.001-.131.006-.037.004-.072.013-.108.022a1.21 1.21 0 0 0-.13.04c-.014.005-.031.006-.045.013l-4 1.798a1 1 0 0 0-.59.912V19a1.002 1.002 0 0 0 1.41.912L8 18.3l3.59 1.613c.015.007.031.004.047.01A.974.974 0 0 0 12 20a.974.974 0 0 0 .363-.078c.015-.006.033-.003.047-.01L16 18.3l3.59 1.613A.998.998 0 0 0 21 19V6.798a1 1 0 0 0-.59-.912Z"/></symbol><symbol viewBox="0 0 24 25" id="marker" xmlns="http://www.w3.org/2000/svg"><path clip-rule="evenodd" d="M12 11.976c-.827 0-1.5-.673-1.5-1.5s.673-1.5 1.5-1.5 1.5.673 1.5 1.5-.673 1.5-1.5 1.5Zm0-5c-1.93 0-3.5 1.57-3.5 3.5s1.57 3.5 3.5 3.5 3.5-1.57 3.5-3.5-1.57-3.5-3.5-3.5Zm0 13.646c-1.675-1.584-6-6.03-6-9.724 0-3.265 2.691-5.922 6-5.922s6 2.657 6 5.922c0 3.693-4.325 8.14-6 9.724Zm0-17.646c-4.411 0-8 3.553-8 7.922 0 5.475 7.049 11.58 7.349 11.836a.998.998 0 0 0 1.302 0c.3-.257 7.349-6.36 7.349-11.836 0-4.369-3.589-7.922-8-7.922Z"/><path clip-rule="evenodd" d="M12 11.976c-.827 0-1.5-.673-1.5-1.5s.673-1.5 1.5-1.5 1.5.673 1.5 1.5-.673 1.5-1.5 1.5Zm0-5c-1.93 0-3.5 1.57-3.5 3.5s1.57 3.5 3.5 3.5 3.5-1.57 3.5-3.5-1.57-3.5-3.5-3.5Zm0 13.646c-1.675-1.584-6-6.03-6-9.724 0-3.265 2.691-5.922 6-5.922s6 2.657 6 5.922c0 3.693-4.325 8.14-6 9.724Zm0-17.646c-4.411 0-8 3.553-8 7.922 0 5.475 7.049 11.58 7.349 11.836a.998.998 0 0 0 1.302 0c.3-.257 7.349-6.36 7.349-11.836 0-4.369-3.589-7.922-8-7.922Z"/></symbol><symbol viewBox="0 0 24 24" id="minus" xmlns="http://www.w3.org/2000/svg"><path clip-rule="evenodd" d="M19 13H5a1 1 0 1 1 0-2h14a1 1 0 1 1 0 2Z"/><path clip-rule="evenodd" d="M19 13H5a1 1 0 1 1 0-2h14a1 1 0 1 1 0 2Z"/></symbol><symbol viewBox="0 0 24 25" id="more" xmlns="http://www.w3.org/2000/svg"><path clip-rule="evenodd" d="M3 12.5a2 2 0 1 1 4.001.001A2 2 0 0 1 3 12.5Zm9-2a2 2 0 1 0 .001 4.001A2 2 0 0 0 12 10.5Zm7 0a2 2 0 1 0 .001 4.001A2 2 0 0 0 19 10.5Z"/></symbol><symbol viewBox="0 0 24 24" id="next-arrow" xmlns="http://www.w3.org/2000/svg"><path fill-rule="evenodd" clip-rule="evenodd" d="m13.951 5.373 4.828 6a1 1 0 0 1-.01 1.267l-5 6a1 1 0 1 1-1.537-1.28l4.476-5.371-4.316-5.362a1 1 0 1 1 1.56-1.254Zm-8.406-.152a1 1 0 0 1 1.406.152l4.828 6a1 1 0 0 1-.01 1.267l-5 6a1 1 0 1 1-1.537-1.28l4.475-5.371-4.315-5.362a1 1 0 0 1 .153-1.406Z"/><path fill-rule="evenodd" clip-rule="evenodd" d="m13.951 5.373 4.828 6a1 1 0 0 1-.01 1.267l-5 6a1 1 0 1 1-1.537-1.28l4.476-5.371-4.316-5.362a1 1 0 1 1 1.56-1.254Zm-8.406-.152a1 1 0 0 1 1.406.152l4.828 6a1 1 0 0 1-.01 1.267l-5 6a1 1 0 1 1-1.537-1.28l4.475-5.371-4.315-5.362a1 1 0 0 1 .153-1.406Z"/></symbol><symbol fill="none" viewBox="0 0 151 25" id="northland" xmlns="http://www.w3.org/2000/svg"><path d="M27.246 4.619C26.228 3.8 21.954.32 14.83.32 10.76.32 6.079.934.787 4.619.38 4.824.38 5.847.584 6.052c.203.41.407.204.61 0 1.221-.819 3.867-2.047 5.292-2.457C14.83 1.14 21.75 4.21 24.193 6.256c.61.615.814 1.024.407 2.252-.407 1.024-1.425 3.276-3.664 6.346-2.442 3.48-6.105 7.574-7.123 7.574-.61 0-3.053-2.252-5.088-4.299-2.036-2.251-3.46-4.298-3.257-4.913 0-.409 1.832-2.047 2.443-2.251h.203c1.221 1.842 4.07 5.527 5.495 5.527 1.425-.205 5.7-5.118 6.717-7.574.203-.205-.61-1.638-.814-1.229-1.628 2.662-3.867 5.323-5.292 6.142-.204.204-.407.204-.61 0-2.443-2.662-3.664-6.142-4.885-6.142-1.425 0-4.681 2.866-5.7 4.3-.813 1.023-.61 1.432.204 2.66 1.832 2.662 4.682 5.732 7.327 7.984 1.629 1.228 2.85 1.842 3.46 1.842 1.222 0 5.496-3.48 8.142-6.55 3.053-3.685 4.68-6.55 5.495-8.189 1.018-2.865 1.221-3.684-.407-5.117ZM45.36 18.539h-2.442l-5.7-7.779v7.779h-2.645V6.46h2.646l5.699 7.574V6.461h2.645V18.54h-.203ZM54.112 18.744c-1.832 0-3.257-.615-4.478-1.843-1.221-1.228-1.832-2.661-1.832-4.503 0-1.843.61-3.276 1.832-4.504 1.221-1.228 2.646-1.842 4.478-1.842 1.831 0 3.46.614 4.477 1.842 1.221 1.228 1.832 2.661 1.832 4.504 0 1.842-.61 3.275-1.832 4.503-1.017 1.433-2.646 1.843-4.477 1.843Zm-2.646-3.276c.61.82 1.628 1.024 2.646 1.024 1.017 0 2.035-.41 2.645-1.024.611-.819 1.018-1.637 1.018-2.866 0-1.228-.407-2.047-1.017-2.866-.611-.818-1.629-1.023-2.646-1.023-1.018 0-2.036.41-2.646 1.023-.61.82-1.018 1.638-1.018 2.866 0 1.229.407 2.047 1.018 2.866ZM72.633 18.539H69.58l-2.239-4.299H65.51v4.299h-2.645V6.46h5.698a4.98 4.98 0 0 1 3.053 1.024c.814.819 1.018 1.637 1.018 2.866 0 1.023-.204 1.842-.814 2.456-.61.614-1.221 1.024-1.832 1.228l2.646 4.504Zm-4.478-6.55c.61 0 1.018-.206 1.221-.41.407-.205.611-.614.611-1.228 0-.41-.203-.82-.61-1.229-.408-.204-.815-.41-1.222-.41H65.51v3.276h2.646ZM80.57 18.539h-2.645V8.713H74.26V6.46h9.973v2.252h-3.663v9.826ZM97.667 18.539h-2.646V13.42h-5.699v5.118h-2.645V6.46h2.645v4.708h5.7V6.461h2.645V18.54ZM108.658 18.539h-7.124V6.46h2.646v9.826h4.478v2.252ZM123.108 18.539h-3.053l-.814-2.047h-5.088l-.814 2.047h-3.053l4.681-12.078h3.257l4.884 12.078Zm-4.477-4.299-1.832-5.118-1.832 5.118h3.664ZM136.134 18.539h-2.442l-5.699-7.779v7.779h-2.646V6.46h2.646l5.699 7.574V6.461h2.646V18.54h-.204ZM144.275 18.539h-4.884V6.46h4.884c1.832 0 3.46.614 4.682 1.638 1.221 1.023 1.831 2.456 1.831 4.299 0 1.842-.61 3.275-1.831 4.299-1.222 1.432-2.85 1.842-4.682 1.842Zm0-2.252c1.222 0 2.036-.41 2.85-1.023 1.017-.82 1.221-1.638 1.017-2.662-.203-1.023-.407-2.047-1.017-2.66-.611-.615-1.628-1.024-2.85-1.024h-2.239v7.574h2.239v-.205Z" fill="#fff"/></symbol><symbol fill="none" viewBox="0 0 128 30" id="outventure" xmlns="http://www.w3.org/2000/svg"><path d="M15.768.845C7.294.845.376 7.715.376 16.132c0 5.668 3.113 10.477 7.61 13.226-3.113-2.405-5.015-6.012-5.015-10.134 0-7.043 5.707-12.711 12.797-12.711 7.09 0 12.798 5.668 12.798 12.71 0 4.123-2.075 7.902-5.015 10.135a15.082 15.082 0 0 0 7.782-13.226C31.16 7.715 24.243.845 15.768.845Z" fill="#fff"/><path d="M15.768 11.494c-5.534 0-10.03 4.466-10.03 9.962 0 4.466 3.112 8.417 7.263 9.62-2.767-1.203-4.842-3.951-4.842-7.043 0-4.294 3.458-7.73 7.782-7.73s7.782 3.436 7.782 7.73c0 3.264-1.902 5.84-4.842 7.042 4.15-1.202 7.09-5.153 7.09-9.619-.172-5.496-4.669-9.962-10.203-9.962ZM39.98 10.463c-2.767 0-4.67.516-4.67 3.608v2.576c0 3.092 1.903 3.607 4.67 3.607s4.67-.515 4.67-3.607v-2.576c0-3.092-2.076-3.607-4.67-3.607Zm1.902 5.84c0 1.546-.518 1.718-1.902 1.718s-1.902-.172-1.902-1.718v-2.06c0-1.546.518-1.546 1.902-1.546s1.902.171 1.902 1.545v2.061Zm9.685.172c0 1.203-.346 1.203-1.556 1.203-1.038 0-1.73 0-1.73-1.203v-5.84h-2.767v6.012c0 2.405.519 3.435 4.496 3.435 2.94 0 4.151-.687 4.151-3.435v-6.012h-2.767v5.84h.173ZM67.65 17.85l-2.248-7.214H55.2v2.405h2.594v7.042h2.767V13.04h2.94l1.556 5.153c.346 1.03 1.038 1.89 2.076 1.89h2.594l2.94-9.448h-2.767L67.65 17.85Zm5.708-5.496v6.012c0 .859.864 1.717 1.729 1.717h5.534V17.85h-4.67v-1.717h3.46v-1.89h-3.46v-1.546h4.67v-2.06h-5.534c-1.038 0-1.73.686-1.73 1.717Zm16.083 5.325-2.248-5.153c-.346-1.03-1.038-1.89-2.075-1.89h-3.113v9.447h2.767l-.173-7.042h.173l2.075 5.153c.346 1.03 1.038 1.89 2.075 1.89h3.113v-9.448h-2.767l.173 7.043Zm3.286-4.638h2.594v7.042h2.767V13.04h2.594v-2.405h-7.955v2.405Zm14.873 3.435c0 1.203-.346 1.203-1.557 1.203-1.037 0-1.729 0-1.729-1.203v-5.84h-2.767v6.012c0 2.405.519 3.435 4.496 3.435 2.94 0 4.151-.687 4.151-3.435v-6.012H107.6v5.84Zm11.933-3.092c0-2.404-1.211-2.748-3.113-2.748h-5.188v9.447h2.767v-3.435h1.729c.865 0 1.038.172 1.038 1.03v2.577h2.767v-2.748c0-1.203-.692-1.718-1.73-1.718 1.384-.515 1.73-.859 1.73-2.405Zm-3.805 1.546h-1.729v-2.06h2.075c.692 0 .865.171.865 1.03 0 1.03-.346 1.03-1.211 1.03Zm12.106-2.06v-2.234H122.3c-1.038 0-1.729.687-1.729 1.718v6.012c0 .859.864 1.717 1.729 1.717h5.534V17.85h-4.669v-1.717h3.458v-1.89h-3.458v-1.546h4.669v.172ZM37.04 29.701c-.865 0-1.557-.515-1.557-1.374 0-1.202 1.557-1.374 2.422-1.374v-.344c0-.171-.173-.343-.52-.343-.691 0-.691.343-1.037.343s-.519-.171-.519-.515c0-.515.865-.859 1.557-.859 1.037 0 1.556.344 1.556 1.203v2.404c0 .344-.173.516-.519.516-.172 0-.518 0-.518-.344 0 .515-.52.687-.865.687Zm.173-.859c.519 0 .864-.343.864-.858v-.172c-.691 0-1.556 0-1.556.515.173.344.519.515.692.515ZM47.416 26.61c-.345 0-.518-.172-.864-.172-.692 0-.865.515-.865 1.03s.346 1.03.865 1.03c.346 0 .691-.171.864-.171.173 0 .52.172.52.515 0 .516-.865.687-1.384.687-1.21 0-1.903-1.03-1.903-2.06 0-1.031.865-2.062 1.903-2.062.519 0 1.383.172 1.383.687 0 .344-.173.515-.519.515ZM54.161 26.438h-.173c-.346 0-.519-.172-.519-.516 0-.343.173-.515.52-.515h.172v-.687c0-.343.173-.687.52-.687.345 0 .518.172.518.687v.687h.519c.346 0 .518.172.518.515 0 .344-.172.516-.518.516h-.346v2.576c0 .344-.173.687-.519.687-.346 0-.519-.172-.519-.687v-2.576h-.173ZM63.327 24.548c0 .344-.346.687-.692.687s-.691-.343-.691-.687c0-.343.345-.515.691-.515.52-.172.692.172.692.515Zm-1.038 1.546c0-.343.173-.687.52-.687.345 0 .518.172.518.687v2.92c0 .344-.173.687-.519.687-.346 0-.519-.172-.519-.687v-2.92ZM69.553 26.438v-.344c0-.343.346-.515.519-.515.346 0 .346.172.519.343l.691 2.061.692-2.06c0-.172.173-.344.519-.344.346 0 .519.172.519.515v.344l-1.038 2.748c-.173.343-.173.515-.519.515-.346 0-.519-.172-.519-.515l-1.383-2.748ZM78.892 27.983c0 .516.519.86 1.037.86.52 0 .865-.516 1.21-.516.174 0 .52.172.52.515 0 .516-1.038.86-1.73.86-1.21 0-2.075-.86-2.075-2.062 0-1.03.865-2.061 1.902-2.061 1.21 0 1.903 1.03 1.903 1.89 0 .343-.173.514-.52.514h-2.247Zm1.73-.858c0-.516-.347-.86-.866-.86s-.864.344-.864.86h1.73ZM99.818 29.186c0 1.374-.865 1.89-2.076 1.89-.519 0-1.73-.172-1.73-.86 0-.171.174-.515.52-.515.346 0 .692.344 1.383.344.52 0 .865-.344.865-.86v-.17c-.173.343-.519.514-1.038.514-1.21 0-1.73-1.03-1.73-2.06 0-1.031.693-2.062 1.73-2.062.346 0 .865.172 1.038.515 0-.343.173-.515.519-.515.346 0 .519.172.519.687v3.092Zm-1.903-2.748c-.519 0-.864.515-.864 1.03s.346 1.03.864 1.03c.52 0 .865-.515.865-1.03s-.346-1.03-.865-1.03ZM106.908 27.983c0 .516.519.86 1.038.86s.865-.516 1.21-.516c.173 0 .519.172.519.515 0 .516-1.037.86-1.729.86-1.211 0-2.075-.86-2.075-2.062 0-1.03.864-2.061 1.902-2.061 1.211 0 1.902 1.03 1.902 1.89 0 .343-.173.514-.519.514h-2.248Zm1.73-.858c0-.516-.346-.86-.865-.86s-.865.344-.865.86h1.73ZM117.112 29.701c-.865 0-1.557-.515-1.557-1.374 0-1.202 1.557-1.374 2.421-1.374v-.344c0-.171-.173-.343-.518-.343-.692 0-.692.343-1.038.343-.346 0-.519-.171-.519-.515 0-.515.865-.859 1.557-.859 1.037 0 1.556.344 1.556 1.203v2.404c0 .344-.173.516-.519.516-.173 0-.346 0-.519-.344 0 .515-.518.687-.864.687Zm.173-.859c.518 0 .864-.343.864-.858v-.172c-.691 0-1.556 0-1.556.515 0 .344.346.515.692.515ZM125.24 26.094c0-.343.346-.515.519-.515.346 0 .519.172.519.515.173-.343.346-.515.691-.515.346 0 .519.172.519.515 0 .344-.346.344-.691.515-.346.172-.692.344-.692.687v1.718c0 .344-.173.687-.519.687-.346 0-.519-.172-.519-.687v-2.92h.173Z" fill="#fff"/></symbol><symbol viewBox="0 0 25 24" id="pencil" xmlns="http://www.w3.org/2000/svg"><path clip-rule="evenodd" d="m16.519 10.679-2.695-2.695 1.948-1.95 2.694 2.695-1.947 1.95Zm-6.94 6.946-2.976.27.264-2.955 5.617-5.617 2.696 2.696-5.6 5.606ZM19.905 7.338l-.001-.001-2.738-2.738c-.741-.74-2.014-.774-2.716-.07l-8.996 8.997a1.973 1.973 0 0 0-.57 1.214l-.38 4.17a1.002 1.002 0 0 0 1.088 1.086l4.17-.38a1.974 1.974 0 0 0 1.214-.567l8.997-8.997c.728-.73.697-1.948-.068-2.714Z"/><path clip-rule="evenodd" d="m16.519 10.679-2.695-2.695 1.948-1.95 2.694 2.695-1.947 1.95Zm-6.94 6.946-2.976.27.264-2.955 5.617-5.617 2.696 2.696-5.6 5.606ZM19.905 7.338l-.001-.001-2.738-2.738c-.741-.74-2.014-.774-2.716-.07l-8.996 8.997a1.973 1.973 0 0 0-.57 1.214l-.38 4.17a1.002 1.002 0 0 0 1.088 1.086l4.17-.38a1.974 1.974 0 0 0 1.214-.567l8.997-8.997c.728-.73.697-1.948-.068-2.714Z"/></symbol><symbol viewBox="0 0 24 24" id="phone-call" xmlns="http://www.w3.org/2000/svg"><path fill-rule="evenodd" clip-rule="evenodd" d="M6.6 4A2.602 2.602 0 0 0 4 6.6C4 13.988 10.011 20 17.4 20a2.603 2.603 0 0 0 2.58-2.928l-4.62-1.06c-.093.176-.194.367-.286.545-.456.87-.786 1.502-1.628 1.163-3.306-1.16-6.005-3.86-7.18-7.206-.357-.785.323-1.141 1.185-1.591l.537-.281-1.06-4.621A2.604 2.604 0 0 0 6.6 4Zm10.8 18C8.908 22 2 15.092 2 6.6a4.605 4.605 0 0 1 6.091-4.352c.325.113.57.386.647.722l1.37 5.964a.998.998 0 0 1-.254.916c-.136.142-.139.145-1.379.794a9.949 9.949 0 0 0 4.88 4.883c.65-1.241.653-1.245.795-1.381a1.01 1.01 0 0 1 .916-.253l5.965 1.369a.998.998 0 0 1 .72.646A4.553 4.553 0 0 1 22 17.4c0 2.537-2.064 4.6-4.6 4.6Z"/><path fill-rule="evenodd" clip-rule="evenodd" d="M6.6 4A2.602 2.602 0 0 0 4 6.6C4 13.988 10.011 20 17.4 20a2.603 2.603 0 0 0 2.58-2.928l-4.62-1.06c-.093.176-.194.367-.286.545-.456.87-.786 1.502-1.628 1.163-3.306-1.16-6.005-3.86-7.18-7.206-.357-.785.323-1.141 1.185-1.591l.537-.281-1.06-4.621A2.604 2.604 0 0 0 6.6 4Zm10.8 18C8.908 22 2 15.092 2 6.6a4.605 4.605 0 0 1 6.091-4.352c.325.113.57.386.647.722l1.37 5.964a.998.998 0 0 1-.254.916c-.136.142-.139.145-1.379.794a9.949 9.949 0 0 0 4.88 4.883c.65-1.241.653-1.245.795-1.381a1.01 1.01 0 0 1 .916-.253l5.965 1.369a.998.998 0 0 1 .72.646A4.553 4.553 0 0 1 22 17.4c0 2.537-2.064 4.6-4.6 4.6Z"/></symbol><symbol viewBox="0 0 24 24" id="play-circle" xmlns="http://www.w3.org/2000/svg"><path clip-rule="evenodd" d="M11.5 14.6V9.4l2.809 2.6-2.809 2.6Zm.839-7.147a1.709 1.709 0 0 0-1.851-.307c-.61.266-.988.835-.988 1.484v6.74c0 .65.378 1.219.988 1.485.223.098.46.145.693.145.423 0 .838-.155 1.157-.451l3.642-3.37a1.61 1.61 0 0 0 .52-1.18c0-.442-.189-.872-.52-1.177l-3.641-3.37ZM12 20c-4.411 0-8-3.589-8-8s3.589-8 8-8 8 3.589 8 8-3.589 8-8 8Zm0-18C6.486 2 2 6.486 2 12s4.486 10 10 10 10-4.486 10-10S17.514 2 12 2Z"/></symbol><symbol viewBox="0 0 24 24" id="plus" xmlns="http://www.w3.org/2000/svg"><path clip-rule="evenodd" d="M19 11h-6V5a1 1 0 1 0-2 0v6H5a1 1 0 1 0 0 2h6v6a1 1 0 1 0 2 0v-6h6a1 1 0 1 0 0-2Z"/><path clip-rule="evenodd" d="M19 11h-6V5a1 1 0 1 0-2 0v6H5a1 1 0 1 0 0 2h6v6a1 1 0 1 0 2 0v-6h6a1 1 0 1 0 0-2Z"/></symbol><symbol viewBox="0 0 24 24" id="search" xmlns="http://www.w3.org/2000/svg"><path clip-rule="evenodd" d="M5 11c0-3.309 2.691-6 6-6s6 2.691 6 6-2.691 6-6 6-6-2.691-6-6Zm15.707 8.293-3.395-3.396A7.952 7.952 0 0 0 19 11c0-4.411-3.589-8-8-8s-8 3.589-8 8 3.589 8 8 8a7.952 7.952 0 0 0 4.897-1.688l3.396 3.395a.997.997 0 0 0 1.414 0 .999.999 0 0 0 0-1.414Z"/></symbol><symbol fill="none" viewBox="0 0 25 37" id="smmini-marker" xmlns="http://www.w3.org/2000/svg"><circle cx="12.725" cy="12.394" r="12" fill="#1551E5"/><path d="m17.66 8.875-4.753 1.93-8.926-1.89 9.433 4.788 4.246-4.828Z" fill="#FF0016"/><path d="M9.798 12.729 4.83 18.383l5.593-2.252 10.442 2.2L9.798 12.73Z" fill="#fff"/><path d="m12.725 36.373-5.24-15.881h10.479l-5.24 15.88Z" fill="#1551E5"/><path d="M12.84 10.091a1.492 1.492 0 0 0 1.373-1.6c-.082-.827-.784-1.437-1.619-1.366a1.488 1.488 0 0 0-1.357 1.601c.067.811.784 1.427 1.603 1.365Z" fill="#fff"/></symbol><symbol fill="none" viewBox="0 0 25 25" id="stages" xmlns="http://www.w3.org/2000/svg"><circle cx="12.159" cy="12.79" r="12" fill="#1551E5"/><path d="m17.395 8.914-4.753 1.929-8.926-1.888 9.433 4.787 4.246-4.828Z" fill="#FF0016"/><path d="m9.533 12.767-4.968 5.655 5.593-2.253L20.6 18.37 9.533 12.768ZM12.575 10.13a1.492 1.492 0 0 0 1.372-1.601c-.082-.826-.783-1.437-1.618-1.365a1.488 1.488 0 0 0-1.357 1.6c.067.812.784 1.427 1.603 1.366Z" fill="#fff"/></symbol><symbol viewBox="0 0 24 24" id="star" xmlns="http://www.w3.org/2000/svg"><path clip-rule="evenodd" d="M12 16.05c.159 0 .318.038.463.113l3.769 1.97-.717-4.157a.999.999 0 0 1 .29-.889l3.035-2.936-4.203-.612a.999.999 0 0 1-.752-.544L12 5.201l-1.886 3.794a.998.998 0 0 1-.751.544l-4.203.612 3.036 2.936a.999.999 0 0 1 .29.889l-.717 4.157 3.769-1.97c.144-.075.303-.113.462-.113Zm5.561 4.905a.996.996 0 0 1-.462-.113l-5.1-2.664-5.098 2.664a1 1 0 0 1-1.448-1.057l.972-5.628-4.12-3.985a.998.998 0 0 1 .55-1.708l5.702-.828 2.546-5.126c.338-.68 1.454-.68 1.793 0l2.546 5.126 5.701.828a.998.998 0 0 1 .551 1.708l-4.12 3.985.973 5.628a1 1 0 0 1-.986 1.17Z"/><path clip-rule="evenodd" d="M12 16.05c.159 0 .318.038.463.113l3.769 1.97-.717-4.157a.999.999 0 0 1 .29-.889l3.035-2.936-4.203-.612a.999.999 0 0 1-.752-.544L12 5.201l-1.886 3.794a.998.998 0 0 1-.751.544l-4.203.612 3.036 2.936a.999.999 0 0 1 .29.889l-.717 4.157 3.769-1.97c.144-.075.303-.113.462-.113Zm5.561 4.905a.996.996 0 0 1-.462-.113l-5.1-2.664-5.098 2.664a1 1 0 0 1-1.448-1.057l.972-5.628-4.12-3.985a.998.998 0 0 1 .55-1.708l5.702-.828 2.546-5.126c.338-.68 1.454-.68 1.793 0l2.546 5.126 5.701.828a.998.998 0 0 1 .551 1.708l-4.12 3.985.973 5.628a1 1 0 0 1-.986 1.17Z"/></symbol><symbol viewBox="0 0 24 24" id="star-outline" xmlns="http://www.w3.org/2000/svg"><path d="m12 15.39-3.76 2.27.99-4.28-3.32-2.88 4.38-.37L12 6.09l1.71 4.04 4.38.37-3.32 2.88.99 4.28M22 9.24l-7.19-.61L12 2 9.19 8.63 2 9.24l5.45 4.73L5.82 21 12 17.27 18.18 21l-1.64-7.03L22 9.24Z"/></symbol><symbol viewBox="0 0 24 24" id="table-cards-mode" xmlns="http://www.w3.org/2000/svg"><path clip-rule="evenodd" d="M15 19v-4h4l.001 4H15Zm4-6h-4c-1.103 0-2 .897-2 2v4c0 1.103.897 2 2 2h4c1.103 0 2-.897 2-2v-4c0-1.103-.897-2-2-2ZM5 19v-4h4l.001 4H5Zm4-6H5c-1.103 0-2 .897-2 2v4c0 1.103.897 2 2 2h4c1.103 0 2-.897 2-2v-4c0-1.103-.897-2-2-2Zm6-4V5h4l.001 4H15Zm4-6h-4c-1.103 0-2 .897-2 2v4c0 1.103.897 2 2 2h4c1.103 0 2-.897 2-2V5c0-1.103-.897-2-2-2ZM5 9V5h4l.001 4H5Zm4-6H5c-1.103 0-2 .897-2 2v4c0 1.103.897 2 2 2h4c1.103 0 2-.897 2-2V5c0-1.103-.897-2-2-2Z"/><path clip-rule="evenodd" d="M15 19v-4h4l.001 4H15Zm4-6h-4c-1.103 0-2 .897-2 2v4c0 1.103.897 2 2 2h4c1.103 0 2-.897 2-2v-4c0-1.103-.897-2-2-2ZM5 19v-4h4l.001 4H5Zm4-6H5c-1.103 0-2 .897-2 2v4c0 1.103.897 2 2 2h4c1.103 0 2-.897 2-2v-4c0-1.103-.897-2-2-2Zm6-4V5h4l.001 4H15Zm4-6h-4c-1.103 0-2 .897-2 2v4c0 1.103.897 2 2 2h4c1.103 0 2-.897 2-2V5c0-1.103-.897-2-2-2ZM5 9V5h4l.001 4H5Zm4-6H5c-1.103 0-2 .897-2 2v4c0 1.103.897 2 2 2h4c1.103 0 2-.897 2-2V5c0-1.103-.897-2-2-2Z"/></symbol><symbol viewBox="0 0 24 24" id="table-mode" xmlns="http://www.w3.org/2000/svg"><path clip-rule="evenodd" d="M18.261 13H5.737c-.406 0-.737.427-.737.949v.102c0 .522.331.949.737.949h12.524c.406 0 .738-.427.738-.949v-.102c0-.522-.332-.949-.738-.949ZM18.261 5H5.737C5.331 5 5 5.427 5 5.949v.102c0 .522.331.949.737.949h12.524c.406 0 .738-.427.738-.949v-.102c0-.522-.332-.949-.738-.949ZM18.261 17H5.737c-.406 0-.737.427-.737.949v.102c0 .522.331.949.737.949h12.524c.406 0 .738-.427.738-.949v-.102c0-.522-.332-.949-.738-.949ZM18.261 9H5.737C5.331 9 5 9.427 5 9.949v.102c0 .522.331.949.737.949h12.524c.406 0 .738-.427.738-.949v-.102c0-.522-.332-.949-.738-.949Z"/></symbol><symbol viewBox="0 0 24 24" id="table-view-mode" xmlns="http://www.w3.org/2000/svg"><path clip-rule="evenodd" d="M3 7a1 1 0 1 1 2 0 1 1 0 0 1-2 0Zm0 5a1 1 0 1 1 2 0 1 1 0 0 1-2 0Zm1 4a1 1 0 1 0 0 2 1 1 0 0 0 0-2Zm3.936-5h12.128c.515 0 .936.421.936.936v.128a.938.938 0 0 1-.936.936H7.936A.938.938 0 0 1 7 12.064v-.128c0-.515.42-.936.936-.936Zm12.128 5H7.936a.938.938 0 0 0-.936.936v.128c0 .515.42.936.936.936h12.128a.938.938 0 0 0 .936-.936v-.128a.938.938 0 0 0-.936-.936ZM7.936 6h12.128c.515 0 .936.421.936.936v.128a.938.938 0 0 1-.936.936H7.936A.938.938 0 0 1 7 7.064v-.128C7 6.421 7.42 6 7.936 6Z"/><path clip-rule="evenodd" d="M3 7a1 1 0 1 1 2 0 1 1 0 0 1-2 0Zm0 5a1 1 0 1 1 2 0 1 1 0 0 1-2 0Zm1 4a1 1 0 1 0 0 2 1 1 0 0 0 0-2Zm3.936-5h12.128c.515 0 .936.421.936.936v.128a.938.938 0 0 1-.936.936H7.936A.938.938 0 0 1 7 12.064v-.128c0-.515.42-.936.936-.936Zm12.128 5H7.936a.938.938 0 0 0-.936.936v.128c0 .515.42.936.936.936h12.128a.938.938 0 0 0 .936-.936v-.128a.938.938 0 0 0-.936-.936ZM7.936 6h12.128c.515 0 .936.421.936.936v.128a.938.938 0 0 1-.936.936H7.936A.938.938 0 0 1 7 7.064v-.128C7 6.421 7.42 6 7.936 6Z"/></symbol><symbol viewBox="0 0 32 32" id="tg" xmlns="http://www.w3.org/2000/svg"><path d="m13.687 18.106 7.912 5.672c.9.476 1.553.238 1.782-.808l3.204-14.703c.327-1.283-.507-1.854-1.373-1.474L6.331 13.844c-1.292.507-1.275 1.204-.23 1.505l4.856 1.474 11.214-6.86c.524-.318 1.014-.143.622.205l-9.106 7.938Z"/></symbol><symbol viewBox="0 0 24 24" id="thin-check" xmlns="http://www.w3.org/2000/svg"><path fill-rule="evenodd" clip-rule="evenodd" d="M9.863 18a1 1 0 0 1-.729-.315l-4.863-5.179a1 1 0 1 1 1.457-1.369l4.125 4.391 8.408-9.202a1 1 0 0 1 1.477 1.348l-9.137 10a.998.998 0 0 1-.73.326h-.008Z"/><path fill-rule="evenodd" clip-rule="evenodd" d="M9.863 18a1 1 0 0 1-.729-.315l-4.863-5.179a1 1 0 1 1 1.457-1.369l4.125 4.391 8.408-9.202a1 1 0 0 1 1.477 1.348l-9.137 10a.998.998 0 0 1-.73.326h-.008Z"/></symbol><symbol viewBox="0 0 24 24" id="trash" xmlns="http://www.w3.org/2000/svg"><path clip-rule="evenodd" d="M10 16c0 .55-.45 1-1 1s-1-.45-1-1v-4c0-.55.45-1 1-1s1 .45 1 1v4Zm6 0c0 .55-.45 1-1 1s-1-.45-1-1v-4c0-.55.45-1 1-1s1 .45 1 1v4Zm2 3c0 .551-.448 1-1 1H7c-.552 0-1-.449-1-1V8h12v11ZM10 4.328c0-.155.214-.328.5-.328h3c.286 0 .5.173.5.328V6h-4V4.328ZM21 6h-5V4.328C16 3.044 14.879 2 13.5 2h-3C9.121 2 8 3.044 8 4.328V6H3c-.55 0-1 .45-1 1s.45 1 1 1h1v11c0 1.654 1.346 3 3 3h10c1.654 0 3-1.346 3-3V8h1c.55 0 1-.45 1-1s-.45-1-1-1Z"/><path clip-rule="evenodd" d="M10 16c0 .55-.45 1-1 1s-1-.45-1-1v-4c0-.55.45-1 1-1s1 .45 1 1v4Zm6 0c0 .55-.45 1-1 1s-1-.45-1-1v-4c0-.55.45-1 1-1s1 .45 1 1v4Zm2 3c0 .551-.448 1-1 1H7c-.552 0-1-.449-1-1V8h12v11ZM10 4.328c0-.155.214-.328.5-.328h3c.286 0 .5.173.5.328V6h-4V4.328ZM21 6h-5V4.328C16 3.044 14.879 2 13.5 2h-3C9.121 2 8 3.044 8 4.328V6H3c-.55 0-1 .45-1 1s.45 1 1 1h1v11c0 1.654 1.346 3 3 3h10c1.654 0 3-1.346 3-3V8h1c.55 0 1-.45 1-1s-.45-1-1-1Z"/></symbol><symbol viewBox="0 0 16 16" id="twitter" xmlns="http://www.w3.org/2000/svg"><path d="M5.348 15.167c6.414 0 9.92-5.449 9.92-10.173 0-.156-.004-.308-.008-.46A7.15 7.15 0 0 0 17 2.684a6.781 6.781 0 0 1-2.003.565 3.557 3.557 0 0 0 1.533-1.98 6.903 6.903 0 0 1-2.214.869 3.44 3.44 0 0 0-2.545-1.13c-1.927 0-3.49 1.603-3.49 3.578 0 .282.03.552.09.816-2.896-.16-5.466-1.584-7.19-3.746-.3.53-.474 1.142-.474 1.797 0 1.242.614 2.336 1.554 2.978a3.377 3.377 0 0 1-1.58-.447v.048c0 1.732 1.203 3.178 2.8 3.504a3.381 3.381 0 0 1-1.576.06c.445 1.42 1.732 2.454 3.256 2.484A6.888 6.888 0 0 1 0 13.565a9.753 9.753 0 0 0 5.348 1.602Z"/></symbol><symbol viewBox="0 0 24 25" id="uploader-photo" xmlns="http://www.w3.org/2000/svg"><path clip-rule="evenodd" d="M12 16c-.827 0-1.5-.673-1.5-1.5S11.173 13 12 13s1.5.673 1.5 1.5S12.827 16 12 16Zm0-5c-1.93 0-3.5 1.57-3.5 3.5S10.07 18 12 18s3.5-1.57 3.5-3.5S13.93 11 12 11Zm8 7.5c0 .551-.448 1-1 1H5c-.552 0-1-.449-1-1v-8c0-.551.448-1 1-1h14c.552 0 1 .449 1 1v8ZM10 6a.5.5 0 0 1 .5-.5h3a.5.5 0 0 1 .5.5v1.5h-4V6Zm9 1.5h-3V6c0-1.378-1.121-2.5-2.5-2.5h-3A2.503 2.503 0 0 0 8 6v1.5H5c-1.654 0-3 1.346-3 3v8c0 1.654 1.346 3 3 3h14c1.654 0 3-1.346 3-3v-8c0-1.654-1.346-3-3-3Z"/></symbol><symbol viewBox="0 0 24 24" id="user" xmlns="http://www.w3.org/2000/svg"><path clip-rule="evenodd" d="M14 7c0-1.103-.897-2-2-2s-2 .897-2 2 .897 2 2 2 2-.897 2-2Zm2 0c0 2.206-1.794 4-4 4S8 9.206 8 7s1.794-4 4-4 4 1.794 4 4ZM5 20c0-3.86 3.141-7 7-7s7 3.14 7 7a1 1 0 1 1-2 0c0-2.757-2.243-5-5-5s-5 2.243-5 5a1 1 0 1 1-2 0Z"/><path clip-rule="evenodd" d="M14 7c0-1.103-.897-2-2-2s-2 .897-2 2 .897 2 2 2 2-.897 2-2Zm2 0c0 2.206-1.794 4-4 4S8 9.206 8 7s1.794-4 4-4 4 1.794 4 4ZM5 20c0-3.86 3.141-7 7-7s7 3.14 7 7a1 1 0 1 1-2 0c0-2.757-2.243-5-5-5s-5 2.243-5 5a1 1 0 1 1-2 0Z"/></symbol><symbol viewBox="0 0 16 16" id="vk" xmlns="http://www.w3.org/2000/svg"><path fill-rule="evenodd" clip-rule="evenodd" d="M1.697 1.697C.667 2.728.667 4.387.667 7.707v.586c0 3.319 0 4.978 1.03 6.01 1.031 1.03 2.69 1.03 6.01 1.03h.586c3.319 0 4.978 0 6.01-1.03 1.03-1.032 1.03-2.691 1.03-6.01v-.586c0-3.32 0-4.979-1.03-6.01C13.27.667 11.611.667 8.292.667h-.586c-3.32 0-4.979 0-6.01 1.03Zm1.445 3.43c.079 3.814 1.986 6.106 5.328 6.106h.19V9.05c1.228.122 2.157 1.02 2.53 2.182h1.735c-.476-1.736-1.73-2.695-2.511-3.062.782-.452 1.882-1.552 2.145-3.043h-1.577c-.342 1.21-1.357 2.31-2.322 2.413V5.128H7.083v4.228c-.978-.244-2.212-1.43-2.267-4.228H3.142Z"/></symbol><symbol viewBox="0 0 16 16" id="warning" xmlns="http://www.w3.org/2000/svg"><path clip-rule="evenodd" d="M7.333 6a.667.667 0 0 1 1.334 0v2.667a.667.667 0 0 1-1.334 0V6Zm0 4.667a.667.667 0 1 1 1.334 0 .667.667 0 0 1-1.334 0Zm6.577 1.568c-.153.27-.45.432-.796.432H2.886c-.345 0-.643-.162-.795-.432a.647.647 0 0 1 .012-.678L7.216 3.08c.311-.516 1.256-.516 1.568 0l5.114 8.478a.649.649 0 0 1 .012.678Zm1.13-1.366-5.114-8.48c-.4-.661-1.12-1.056-1.926-1.056-.807 0-1.527.395-1.926 1.056L.96 10.87a1.982 1.982 0 0 0-.03 2.022C1.314 13.575 2.064 14 2.884 14h10.23c.82 0 1.57-.425 1.956-1.11a1.982 1.982 0 0 0-.03-2.021Z"/><path clip-rule="evenodd" d="M7.333 6a.667.667 0 0 1 1.334 0v2.667a.667.667 0 0 1-1.334 0V6Zm0 4.667a.667.667 0 1 1 1.334 0 .667.667 0 0 1-1.334 0Zm6.577 1.568c-.153.27-.45.432-.796.432H2.886c-.345 0-.643-.162-.795-.432a.647.647 0 0 1 .012-.678L7.216 3.08c.311-.516 1.256-.516 1.568 0l5.114 8.478a.649.649 0 0 1 .012.678Zm1.13-1.366-5.114-8.48c-.4-.661-1.12-1.056-1.926-1.056-.807 0-1.527.395-1.926 1.056L.96 10.87a1.982 1.982 0 0 0-.03 2.022C1.314 13.575 2.064 14 2.884 14h10.23c.82 0 1.57-.425 1.956-1.11a1.982 1.982 0 0 0-.03-2.021Z"/></symbol><symbol viewBox="0 0 16 16" id="youtube" xmlns="http://www.w3.org/2000/svg"><path d="M14.386 4.724c-.151-.545-.605-.975-1.181-1.125C12.167 3.333 8 3.333 8 3.333s-4.167 0-5.212.266a1.631 1.631 0 0 0-1.182 1.125c-.273.99-.273 3.054-.273 3.054s0 2.064.28 3.054c.152.544.607.975 1.183 1.125 1.038.265 5.204.265 5.204.265s4.167 0 5.212-.265a1.632 1.632 0 0 0 1.182-1.125c.273-.99.273-3.054.273-3.054s0-2.065-.28-3.054Zm-7.75 4.932V5.9l3.485 1.878-3.484 1.878Z"/></symbol></svg>